<?xml version="1.0" encoding="UTF-8" standalone="no"?>
<!-- Created with Inkscape (http://www.inkscape.org/) -->

<svg
   width="16"
   height="16"
   viewBox="0 0 4.2333331 4.2333334"
   version="1.1"
   id="svg5"
   inkscape:version="1.1.2 (0a00cf5339, 2022-02-04)"
   sodipodi:docname="uvm.svg"
   fill="currentColor"
   xmlns:inkscape="http://www.inkscape.org/namespaces/inkscape"
   xmlns:sodipodi="http://sodipodi.sourceforge.net/DTD/sodipodi-0.dtd"
   xmlns="http://www.w3.org/2000/svg"
   xmlns:svg="http://www.w3.org/2000/svg">
  <sodipodi:namedview
     id="namedview7"
     pagecolor="#ffffff"
     bordercolor="#666666"
     borderopacity="1.0"
     inkscape:pageshadow="2"
     inkscape:pageopacity="0.0"
     inkscape:pagecheckerboard="true"
     inkscape:document-units="mm"
     showgrid="false"
     units="px"
     width="512px"
     showguides="true"
     inkscape:guide-bbox="true"
     inkscape:snap-bbox="true"
     inkscape:snap-bbox-midpoints="true"
     inkscape:zoom="41.198121"
     inkscape:cx="5.6313248"
     inkscape:cy="7.5367515"
     inkscape:window-width="1920"
     inkscape:window-height="1009"
     inkscape:window-x="0"
     inkscape:window-y="0"
     inkscape:window-maximized="1"
     inkscape:current-layer="svg5"
     inkscape:snap-global="true">
    <sodipodi:guide
       position="2.1166666,2.1166666"
       orientation="-1,0"
       id="guide1225"
       inkscape:label=""
       inkscape:locked="false"
       inkscape:color="rgb(0,0,255)" />
    <sodipodi:guide
       position="2.1166666,2.1166666"
       orientation="0,1"
       id="guide1227"
       inkscape:label=""
       inkscape:locked="false"
       inkscape:color="rgb(0,0,255)" />
  </sodipodi:namedview>
  <defs
     id="defs2" />
  <path
     d="M 1.5944251,3.2996309 C 0.95913276,3.2522209 0.44859329,3.0431038 0.19511338,2.7264732 0.13172645,2.6472945 0.0385447,2.469209 0.0385447,2.4272449 c 0,-0.022911 0.0028199,-0.023221 0.21122922,-0.023221 h 0.21122904 l 0.0382853,0.068002 C 0.68244643,2.7973526 1.1314324,3.0259164 1.7233552,3.0951575 1.8995119,3.1157635 2.2248964,3.1157805 2.400894,3.09519 2.8689584,3.040438 3.2834188,2.8780188 3.5066354,2.6618721 c 0.025431,-0.024626 0.04624,-0.039047 0.04624,-0.032043 0,0.02508 -0.1967955,0.2179764 -0.2906087,0.2848488 C 3.0424679,3.0713568 2.7111099,3.1980302 2.3617243,3.2589426 2.1402047,3.2975626 1.8049541,3.3153388 1.5944251,3.2996285 Z M 1.4149898,2.7840476 c -0.053308,-0.00617 -0.098694,-0.020411 -0.1516667,-0.04759 l -0.075594,-0.038785 -0.03065,0.029364 c -0.052048,0.049865 -0.057596,0.028624 -0.042324,-0.1620457 0.00732,-0.091524 0.014983,-0.1717464 0.017005,-0.1782714 0.00205,-0.00662 0.018211,-0.00973 0.036558,-0.00704 0.028939,0.00424 0.033792,0.010237 0.04047,0.049945 0.010146,0.060335 0.048893,0.1457464 0.086084,0.1897596 0.082919,0.098132 0.2371012,0.1155335 0.3403647,0.038415 0.056301,-0.042047 0.070734,-0.080903 0.066301,-0.1785054 -0.00349,-0.076737 -0.00697,-0.088103 -0.036443,-0.1191463 C 1.6293235,2.3224855 1.5784405,2.2943099 1.4498218,2.2409508 1.3431257,2.1966859 1.2138311,2.1128592 1.1787097,2.0651765 1.1327405,2.0027666 1.1211306,1.9591826 1.1211633,1.8491337 c 3.26e-5,-0.1224803 0.018599,-0.1672969 0.098391,-0.2375325 0.087187,-0.076746 0.1347632,-0.093806 0.2731343,-0.097945 0.085321,-0.00256 0.1411645,0.00144 0.1882382,0.013516 0.065288,0.016727 0.067717,0.016563 0.099091,-0.00664 0.02012,-0.014875 0.035984,-0.019937 0.04237,-0.013517 0.00562,0.00565 0.017473,0.078808 0.02635,0.1625854 0.014774,0.1394095 0.014648,0.1534771 -0.00147,0.1659243 -0.030581,0.023598 -0.044937,0.0152 -0.074394,-0.043521 C 1.6954828,1.6377322 1.6211367,1.5823832 1.5015299,1.5899991 c -0.083764,0.00533 -0.119317,0.027443 -0.1552836,0.096565 -0.020375,0.039159 -0.023871,0.05845 -0.018439,0.1017074 0.00368,0.029361 0.013439,0.066404 0.021666,0.082318 0.026313,0.050883 0.1236287,0.1047923 0.2675295,0.1482008 0.066685,0.020115 0.1683781,0.087496 0.2244128,0.1486937 0.06009,0.065626 0.083768,0.1446058 0.077228,0.2575935 -0.010869,0.187772 -0.1294298,0.326269 -0.3071641,0.358816 -0.071037,0.013008 -0.085353,0.01302 -0.1964776,1.563e-4 z M 2.5539516,2.7222713 C 2.5141739,2.635843 2.2623896,1.9931663 2.1884317,1.7892871 2.1602121,1.7114934 2.130108,1.6383847 2.121534,1.626824 2.112234,1.614286 2.087257,1.603312 2.05963,1.599623 2.017454,1.593983 2.013315,1.590683 2.013315,1.562544 V 1.531645 l 0.2910497,-0.00173 0.29105,-0.00173 -2.4e-6,0.035361 -2.3e-6,0.035362 H 2.535568 c -0.078453,0 -0.1074517,0.025253 -0.097301,0.084737 0.00679,0.039823 0.2417262,0.7536587 0.2513114,0.7636093 0.00859,0.00892 0.023366,-0.022542 0.091855,-0.1955297 0.1306843,-0.3300856 0.197761,-0.5175154 0.2029192,-0.5670085 0.00453,-0.043475 0.00183,-0.052579 -0.020192,-0.068002 -0.013982,-0.00979 -0.044228,-0.017805 -0.067213,-0.017805 -0.040258,0 -0.041664,-0.00124 -0.03838,-0.033914 l 0.00341,-0.033914 h 0.2230419 0.2230457 l 0.00341,0.033914 c 0.00328,0.032628 0.00183,0.033916 -0.038081,0.033955 -0.089489,8.71e-5 -0.1343432,0.052718 -0.2271478,0.2665262 -0.4372034,1.0072585 -0.4013063,0.9302604 -0.43369,0.9302604 -0.020029,0 -0.031309,-0.014136 -0.058603,-0.073442 z M 3.7342624,1.7593665 C 3.5168915,1.3713178 2.9050144,1.1203222 2.1765203,1.1203712 1.5646887,1.1204165 1.0323789,1.2869981 0.71995093,1.5762019 0.6531147,1.6380698 0.69093786,1.5786362 0.77533751,1.4891648 0.86529064,1.3938092 0.95258103,1.3245855 1.0760003,1.2507299 1.5404231,0.97281368 2.274831,0.86102112 2.9326999,0.96810015 3.5474657,1.0681639 3.9860328,1.3305439 4.1569861,1.7005497 4.2193501,1.8355284 4.2305079,1.8273682 3.9835839,1.8273682 H 3.7723547 Z"
     id="path931"
     sodipodi:nodetypes="cssscsscsssscccscssscssssssccscccsccsscsccsssccsscsscccccsssssssscccsccssscsscssscs" />
</svg>
