<?xml version="1.0" encoding="UTF-8" standalone="no"?>
<!-- Created with Inkscape (http://www.inkscape.org/) -->

<svg
   width="16"
   height="16"
   viewBox="0 0 4.2333331 4.2333334"
   version="1.1"
   id="svg5"
   inkscape:version="1.1.2 (0a00cf5339, 2022-02-04)"
   sodipodi:docname="uvm.svg"
   fill="currentColor"
   xmlns:inkscape="http://www.inkscape.org/namespaces/inkscape"
   xmlns:sodipodi="http://sodipodi.sourceforge.net/DTD/sodipodi-0.dtd"
   xmlns="http://www.w3.org/2000/svg"
   xmlns:svg="http://www.w3.org/2000/svg">
  <sodipodi:namedview
     id="namedview7"
     pagecolor="#ffffff"
     bordercolor="#666666"
     borderopacity="1.0"
     inkscape:pageshadow="2"
     inkscape:pageopacity="0.0"
     inkscape:pagecheckerboard="true"
     inkscape:document-units="mm"
     showgrid="false"
     units="px"
     width="512px"
     showguides="true"
     inkscape:guide-bbox="true"
     inkscape:snap-bbox="true"
     inkscape:snap-bbox-midpoints="true"
     inkscape:zoom="41.198121"
     inkscape:cx="5.6313248"
     inkscape:cy="7.5367515"
     inkscape:window-width="1920"
     inkscape:window-height="1009"
     inkscape:window-x="0"
     inkscape:window-y="0"
     inkscape:window-maximized="1"
     inkscape:current-layer="svg5"
     inkscape:snap-global="true" />
  <defs
     id="defs2" />
  <path
     d="M 1.9730203,3.4300981 C 1.7388849,3.4056141 1.4480423,3.3262878 1.2692013,3.2381337 l -0.095936,-0.047289 -0.042198,0.070311 c -0.023209,0.038671 -0.047028,0.070311 -0.052932,0.070311 -0.013074,0 -0.37069249,-0.5814429 -0.37073301,-0.6027659 -1.786e-5,-0.0093 0.13912625,-0.00332 0.36045261,0.015472 0.2238109,0.019005 0.3604815,0.036902 0.3604815,0.047208 0,0.00913 -0.018369,0.042997 -0.04082,0.07526 -0.022452,0.032264 -0.035843,0.066523 -0.029761,0.076133 0.00608,0.00961 0.076718,0.047385 0.1569665,0.083943 0.4991976,0.2274124 1.000871,0.2556123 1.5103868,0.084901 0.097598,-0.032701 0.3438473,-0.1403809 0.3576824,-0.1564091 0.0044,-0.00511 0.018823,-0.013946 0.032039,-0.019648 0.013216,-0.0057 0.042053,-0.022135 0.06408,-0.036513 0.034114,-0.022265 0.032925,-0.019091 -0.00801,0.021424 -0.026435,0.026161 -0.059462,0.060703 -0.073395,0.076761 C 3.3112697,3.0966104 3.107388,3.2304729 2.9390226,3.2982574 2.6629591,3.4094013 2.277789,3.4619706 1.9730176,3.4300998 Z M 0.37100873,2.5706664 C 0.21951369,2.5424697 0.08824384,2.4671183 0.0377323,2.3793599 0.00425311,2.3211939 0.00254608,2.3002732 0.00254608,1.9481491 V 1.5780703 l 0.11614579,0.0046 0.11614588,0.0046 0.004324,0.3432626 c 0.004867,0.3864846 0.004242,0.3843908 0.12390544,0.413813 0.0903803,0.022224 0.44533488,0.022204 0.5285933,-3.15e-5 C 1.0145701,2.3114884 1.0118109,2.3210246 1.0118109,1.9289815 V 1.5794499 H 1.1247344 1.2376585 L 1.2328673,1.967276 C 1.228086,2.3545982 1.228026,2.3551647 1.1880289,2.4029829 1.1390265,2.4615661 1.0618291,2.5127538 0.9739012,2.5449677 0.90816083,2.5690525 0.46403213,2.58799 0.37100288,2.5706738 Z M 1.7452585,2.3190703 C 1.6772614,2.1746869 1.5712887,1.9509643 1.5097639,1.8219088 L 1.3979002,1.5872623 1.5197348,1.5826522 c 0.067009,-0.00253 0.1275064,9.864e-4 0.1344396,0.00782 0.00694,0.00683 0.089426,0.1778597 0.1833165,0.380047 0.093892,0.2021865 0.175965,0.3730806 0.1823866,0.3797643 0.00955,0.00994 0.2697126,-0.5207022 0.3518149,-0.7176031 l 0.0222,-0.053239 h 0.1324707 0.1324711 l -0.235827,0.4966684 -0.2358267,0.4966683 -0.1591449,0.00441 -0.1591455,0.0044 z M 2.8220869,2.0794328 V 1.578267 l 0.1478948,0.00449 0.1478942,0.00449 0.2030644,0.3496366 0.2030631,0.3496403 0.073137,-0.1228155 C 3.6373651,2.0961803 3.7299485,1.937253 3.8028811,1.8105573 l 0.1326036,-0.2303559 0.1376754,-3.762e-4 0.1376741,-3.764e-4 0.010513,0.2371333 c 0.00579,0.1304239 0.010513,0.3559925 0.010513,0.5012643 v 0.2641307 l -0.116147,-0.00459 -0.116146,-0.00459 V 2.2643712 c 0,-0.223746 -0.00478,-0.3031916 -0.01746,-0.2893974 C 3.9664522,1.9920248 3.853621,2.1770841 3.6774173,2.4747136 L 3.615084,2.5800048 3.5247981,2.5803065 3.4345122,2.5806086 3.2444458,2.2611424 3.0543793,1.9416765 3.0500482,2.2611424 3.0457171,2.5806086 H 2.9339024 2.8220869 Z M 3.3988108,1.4364921 C 3.2571157,1.4227959 2.8385311,1.3874965 2.8109369,1.3869143 2.7893049,1.3864696 2.8037769,1.3531563 2.8590909,1.276114 2.8910209,1.231637 2.8910489,1.23053 2.8608409,1.208366 2.7369098,1.1174895 2.3895191,0.99601988 2.1547256,0.96146283 1.8161378,0.91162911 1.4581321,0.95127271 1.1418082,1.0736296 1.0321302,1.1160538 0.82552221,1.216142 0.75550936,1.2607659 0.73348193,1.2748043 0.77673609,1.2272232 0.85163005,1.1550232 1.0621458,0.95208513 1.2718338,0.84368415 1.6045757,0.76577858 1.7311246,0.73614891 1.802653,0.730026 2.029109,0.7294345 2.44334,0.7283395 2.7098688,0.7900562 3.0491722,0.96558876 c 0.00594,0.003079 0.030053,-0.0264998 0.053588,-0.0657157 0.023537,-0.0392153 0.047514,-0.0711433 0.053286,-0.0709514 0.00988,3.3113e-4 0.1122018,0.16064246 0.3016543,0.47263384 0.045639,0.075161 0.0781,0.1388824 0.072131,0.1416025 -0.00597,0.00273 -0.064919,-2.768e-4 -0.1310023,-0.00667 z"
     id="path998"
     style="stroke-width:0.988413;stroke-miterlimit:4;stroke-dasharray:none" />
</svg>
