<?xml version="1.0" encoding="UTF-8" standalone="no"?>
<!-- Created with Inkscape (http://www.inkscape.org/) -->

<svg
   width="16"
   height="16"
   viewBox="0 0 4.2333331 4.2333334"
   version="1.1"
   id="svg5"
   inkscape:version="1.1.2 (0a00cf5339, 2022-02-04)"
   sodipodi:docname="verilator.svg"
   fill="currentColor"
   xmlns:inkscape="http://www.inkscape.org/namespaces/inkscape"
   xmlns:sodipodi="http://sodipodi.sourceforge.net/DTD/sodipodi-0.dtd"
   xmlns="http://www.w3.org/2000/svg"
   xmlns:svg="http://www.w3.org/2000/svg">
  <sodipodi:namedview
     id="namedview7"
     pagecolor="#ffffff"
     bordercolor="#666666"
     borderopacity="1.0"
     inkscape:pageshadow="2"
     inkscape:pageopacity="0.0"
     inkscape:pagecheckerboard="true"
     inkscape:document-units="mm"
     showgrid="false"
     units="px"
     width="512px"
     showguides="true"
     inkscape:guide-bbox="true"
     inkscape:snap-bbox="true"
     inkscape:snap-bbox-midpoints="true"
     inkscape:zoom="22.627417"
     inkscape:cx="0.044194174"
     inkscape:cy="8.5957668"
     inkscape:window-width="1920"
     inkscape:window-height="1009"
     inkscape:window-x="0"
     inkscape:window-y="0"
     inkscape:window-maximized="1"
     inkscape:current-layer="svg5"
     inkscape:snap-global="true">
    <sodipodi:guide
       position="2.1166666,2.1166666"
       orientation="0,1"
       id="guide1560"
       inkscape:label=""
       inkscape:locked="false"
       inkscape:color="rgb(0,0,255)" />
    <sodipodi:guide
       position="2.1166665,2.1166667"
       orientation="1,0"
       id="guide1562" />
  </sodipodi:namedview>
  <defs
     id="defs2" />
  <path
     d="m 3.7617188,0.26171875 c -0.1269128,-0.001951 -0.2265111,-6.3701e-4 -0.2988282,0.001953 -0.036158,0.001295 -0.066558,0.003236 -0.089844,0.005859 -0.023286,0.002623 -0.03735,0.001255 -0.060547,0.0136719 -0.014473,0.007745 -0.016815,0.0127668 -0.023437,0.0195313 -0.00662,0.006764 -0.01368,0.0141643 -0.021484,0.0234375 -0.015608,0.0185463 -0.035141,0.0435165 -0.056641,0.0722656 -0.042999,0.0574987 -0.096639,0.1322808 -0.1503907,0.21289107 -0.053032,0.0795304 -0.1057506,0.15908804 -0.1503906,0.22265626 -0.04464,0.0635682 -0.083844,0.11552353 -0.09375,0.12695312 C 2.7772167,1.0061555 2.7475449,1.0669636 2.7382813,1.125 L 2.734375,1.15625 H 2.1152344 1.4824219 L 1.2539062,0.77539062 C 1.1863985,0.66348234 1.1200583,0.55645014 1.0683594,0.47460938 1.0425099,0.43368899 1.0193896,0.39936648 1.0019531,0.37304688 0.98451663,0.34672727 0.97561434,0.3325255 0.96289063,0.31835938 0.95290226,0.30724387 0.93936274,0.2916947 0.91796875,0.28125 0.89657475,0.2708053 0.87331045,0.2663454 0.84179685,0.2636719 c -0.0630271,-0.005347 -0.16575271,-0.002538 -0.36914063,0 l -0.44335937,0.003906 -0.03906251,0.0820313 c -0.01189726,0.0248127 -0.02135574,0.0508553 -0.01953125,0.0800781 0.0018245,0.0292229 0.01276888,0.0538472 0.02734375,0.0820313 0.00604809,0.0116957 0.01896733,0.0366273 0.04492188,0.0820313 0.02595455,0.0454039 0.06225232,0.10714658 0.10742187,0.18554687 0.0903391,0.1568006 0.21754009,0.37433813 0.3671875,0.63281253 0.29929483,0.5169487 0.69271931,1.1974627 1.08789061,1.8769531 0.091892,0.1580073 0.181933,0.3056928 0.2519532,0.4179688 0.03501,0.056138 0.06432,0.1036014 0.087891,0.1386718 0.011785,0.017535 0.022673,0.033372 0.03125,0.044922 0.00858,0.01155 0.012635,0.01659 0.025391,0.027344 l 0.066406,0.056641 v 0 c 0.015866,0.00603 0.035938,-0.00297 0.052735,-0.00195 0.042702,0.00258 0.086552,-0.017509 0.1152343,-0.050781 6.586e-4,-7.639e-4 0.00387,-0.00681 0.00586,-0.00977 0.00199,-0.00296 0.00519,-0.00565 0.00781,-0.00977 0.00524,-0.00823 0.011102,-0.01945 0.019531,-0.033203 C 2.2863892,3.841627 2.3109522,3.804089 2.3398422,3.7558518 2.3976252,3.6593845 2.4772564,3.5240324 2.5722656,3.3632813 2.7622841,3.0417789 3.0112722,2.617569 3.2597656,2.1933594 3.5082591,1.7691497 3.7552947,1.3440371 3.9414063,1.0234375 4.034462,0.86313772 4.1131171,0.72861718 4.1679687,0.6328125 4.1953947,0.5849102 4.2172707,0.546672 4.2324217,0.51953125 c 0.00758,-0.0135703 0.013253,-0.0231415 0.017578,-0.03125 0.00216,-0.004054 0.00433,-0.008631 0.00586,-0.0117188 7.633e-4,-0.001544 0.00115,-0.002093 0.00195,-0.003906 8.026e-4,-0.001813 0.00382,-0.00944 0.00391,-0.009766 0.00738,-0.0282103 0.00137,-0.0495465 -0.00586,-0.0703125 -0.00723,-0.020766 -0.018386,-0.040278 -0.033203,-0.0585938 -0.00958,-0.0118402 -0.022418,-0.0272199 -0.042969,-0.0390625 -0.020551,-0.0118426 -0.044329,-0.0177495 -0.074219,-0.0214844 -0.05978,-0.00747 -0.1538291,-0.008811 -0.3437499,-0.0117185 z M 0.18554687,0.4453125 c 0.0452143,-0.002736 0.12641871,-0.002352 0.29687501,0 l 0.34960937,0.003906 0.23828125,0.390625 c 0.1263604,0.207663 0.189938,0.3146145 0.2148437,0.3671877 0.012453,0.026287 0.013679,0.036798 0.013672,0.037109 -7.3e-6,3.115e-4 -1.952e-4,-0.00155 -0.00781,0.011719 -0.00782,0.013634 -0.017621,0.029894 -0.021484,0.052734 -0.00386,0.02284 0.00138,0.046176 0.00977,0.070312 0.016774,0.048273 0.051335,0.1110948 0.1191406,0.2363282 0.037666,0.069568 0.070098,0.1332795 0.09375,0.1796875 0.0071,0.013922 0.010523,0.022815 0.015625,0.033203 -0.00948,0.00529 -0.016951,0.00881 -0.029297,0.015625 -0.04289,0.023688 -0.1022837,0.055231 -0.1660156,0.089844 l -0.027344,0.015625 c -0.051443,0.027651 -0.1017758,0.053639 -0.1386718,0.072266 -0.015645,0.0079 -0.025884,0.014155 -0.037109,0.019531 -0.00634,-0.0099 -0.012598,-0.018831 -0.021484,-0.033203 C 1.0606224,1.963713 1.0240235,1.9007053 0.97851563,1.8242187 0.88749983,1.6712457 0.76628063,1.4662487 0.64648437,1.2597656 0.52668812,1.0532825 0.40697399,0.845555 0.31640625,0.68554687 0.27112238,0.60554281 0.23401974,0.53770627 0.20703125,0.48828125 0.19751764,0.47085863 0.19210888,0.45774696 0.18554687,0.4453125 Z M 3.390625,0.45898438 h 0.3535156 c 0.1117383,0 0.171525,0.001901 0.2285157,0.003906 C 3.9232117,0.49327699 3.8642908,0.52847908 3.796875,0.56640625 3.5208603,0.72169389 3.383465,0.800083 3.3125,0.83203125 c -0.035483,0.0159741 -0.051291,0.0193033 -0.058594,0.0195313 -0.0073,2.2792e-4 -0.01162,-0.002551 -0.03125,-0.009766 -0.025196,-0.009259 -0.048498,-0.0122424 -0.072266,-0.0175781 0.00287,-0.004543 0.00463,-0.006725 0.00781,-0.0117188 0.026225,-0.0411131 0.06152,-0.0961243 0.1015625,-0.15625 z m 0.5,0.27343749 c -0.031737,0.05218 -0.05168,0.0838699 -0.083984,0.11328126 -0.035527,0.0323458 -0.09216,0.0699125 -0.1972656,0.13671875 -0.060802,0.0386443 -0.1155761,0.0712925 -0.1542969,0.0917968 -0.00358,0.0019 -0.00451,0.00222 -0.00781,0.00391 -0.00664,-0.016289 -0.012701,-0.033551 -0.021484,-0.050781 L 3.4121094,1 3.4472656,0.98046875 c 0.145034,-0.0832062 0.2936963,-0.16695443 0.40625,-0.22851563 0.015169,-0.008297 0.023341,-0.0120714 0.037109,-0.0195313 z M 3.1015588,1.0136719 c 0.033687,0 0.050429,0.0027 0.0625,0.00781 0.012071,0.00511 0.025852,0.016087 0.050781,0.041016 0.070068,0.070071 0.081663,0.1315565 0.044922,0.2089844 -0.01406,0.02962 -0.052099,0.075149 -0.056641,0.078125 -0.049248,0.032269 -0.1314149,0.03626 -0.1796875,0.011719 C 2.9335813,1.3156463 2.9080806,1.2313728 2.9257773,1.154295 2.9434733,1.077217 3.0015423,1.01367 3.1015585,1.01367 Z M 3.6113281,1.207032 C 3.5734147,1.2730374 3.5327839,1.3449954 3.4746094,1.4453125 3.3297374,1.6951321 3.1294979,2.0383089 2.9082031,2.4160156 2.6868931,2.7937477 2.4841369,3.1390568 2.3359375,3.390625 c -0.0741,0.1257841 -0.135366,0.2274156 -0.1777344,0.2988281 -0.0168,0.028317 -0.028263,0.048354 -0.039063,0.066406 C 2.1064274,3.7400009 2.095892,3.7254999 2.0722656,3.6894531 2.0048081,3.5865331 1.8914607,3.397397 1.7050781,3.078125 L 1.3515625,2.4707031 1.5371094,2.3613281 c 0.063573,-0.037293 0.1235841,-0.070663 0.1679687,-0.095703 0.0164,-0.00925 0.027434,-0.015114 0.039063,-0.021484 0.007,0.00981 0.013953,0.018942 0.023437,0.033203 0.028829,0.043345 0.067075,0.1042089 0.1074219,0.171875 0.066752,0.1119545 0.1038213,0.174242 0.1367188,0.2148437 0.032897,0.040602 0.07554,0.061111 0.109375,0.064453 0.049605,0.0049 0.1007698,-0.00921 0.1328125,-0.046875 0.00856,-0.010063 0.00908,-0.01494 0.015625,-0.025391 0.00655,-0.01045 0.015367,-0.024222 0.025391,-0.041016 C 2.3149687,2.581647 2.3431377,2.5356479 2.375,2.4804688 2.4387245,2.3701104 2.5208665,2.2241576 2.609375,2.0664063 2.6977734,1.9088498 2.7785975,1.7652873 2.8378906,1.6601562 c 0.029647,-0.052566 0.055297,-0.097063 0.072266,-0.1269531 0.0031,-0.00546 0.00521,-0.00715 0.00781,-0.011719 0.00882,0.00358 0.016918,0.00677 0.027344,0.011719 0.056219,0.026678 0.1227231,0.034081 0.1875,0.029297 0.064777,-0.00478 0.127118,-0.020309 0.1757813,-0.056641 0.041111,-0.030693 0.083126,-0.083989 0.1132812,-0.1347657 0.027565,-0.046413 0.078187,-0.093337 0.1894531,-0.1640625 z M 2.761719,1.337895 2.769529,1.35352 C 2.770709,1.3561 2.770559,1.35065 2.767579,1.36329 2.764589,1.375927 2.755653,1.401964 2.734376,1.445321 2.691821,1.532036 2.6048953,1.685623 2.4472666,1.9648522 2.3523716,2.1329544 2.2658142,2.2859166 2.2011729,2.3964929 c -0.02749,0.047025 -0.048555,0.08182 -0.066406,0.1113281 -0.00342,-0.00538 -0.00603,-0.0077 -0.00977,-0.013672 C 2.0941025,2.4447676 2.0537125,2.3763762 2.0097656,2.3007813 l -0.1875,-0.3222657 -0.1523437,0.087891 C 1.6110201,2.1000832 1.485254,2.1712531 1.390625,2.2265625 c -0.046891,0.027407 -0.081538,0.048532 -0.1054688,0.060547 -0.02393,0.012015 -0.034668,0.013593 -0.033203,0.013672 0.00147,7.87e-5 0.00608,0.00406 -0.00195,-0.00586 -0.00803,-0.00992 -0.022508,-0.031384 -0.041016,-0.0625 L 1.1972656,2.2128906 1.4257812,2.0898438 c 0.076579,-0.041438 0.1460715,-0.08193 0.1972657,-0.1132813 0.025597,-0.015675 0.046739,-0.029843 0.0625,-0.041016 0.00788,-0.00559 0.013239,-0.010043 0.019531,-0.015625 0.00315,-0.00279 0.00576,-0.00481 0.00977,-0.00977 0.002,-0.00248 0.00757,-0.011255 0.00781,-0.011719 1.198e-4,-2.318e-4 0.00385,-0.00957 0.00391,-0.00977 6.03e-5,-2.007e-4 0.00195,-0.015456 0.00195,-0.015625 0,-3.381e-4 -0.00139,-0.00907 -0.00195,-0.011719 -5.617e-4,-0.00265 5.365e-4,-0.00409 0,-0.00586 -0.00107,-0.00355 -0.0027,-0.00665 -0.00391,-0.00977 -0.0024,-0.00624 -0.00609,-0.013281 -0.00977,-0.021484 -0.00735,-0.016406 -0.016819,-0.03903 -0.029297,-0.064453 -0.024956,-0.050846 -0.060081,-0.1163836 -0.097656,-0.1875 -0.051325,-0.097139 -0.083544,-0.1636468 -0.099609,-0.203125 -0.00216,-0.00532 -0.00234,-0.0054 -0.00391,-0.00977 0.026311,-0.00274 0.064621,-0.00565 0.1191406,-0.00781 0.1108197,-0.00441 0.2817029,-0.00782 0.5214844,-0.00977 z"
     id="path1672"
     sodipodi:nodetypes="cssccscssscccccsscsscccscsssssscccccsscscsssscccccscsscccccsscccsccccccccssssccsccssccccccsccccccsccsccssccccsssscscccccccsssccscsscccsccccccscscccccsscscccscccsssccccscccccc" />
</svg>
