<?xml version="1.0" encoding="UTF-8" standalone="no"?>
<!-- Created with Inkscape (http://www.inkscape.org/) -->

<svg
   width="16"
   height="16"
   viewBox="0 0 4.2333331 4.2333334"
   version="1.1"
   id="svg5"
   inkscape:version="1.1.2 (0a00cf5339, 2022-02-04)"
   sodipodi:docname="verilator.svg"
   fill="currentColor"
   xmlns:inkscape="http://www.inkscape.org/namespaces/inkscape"
   xmlns:sodipodi="http://sodipodi.sourceforge.net/DTD/sodipodi-0.dtd"
   xmlns="http://www.w3.org/2000/svg"
   xmlns:svg="http://www.w3.org/2000/svg">
  <sodipodi:namedview
     id="namedview7"
     pagecolor="#ffffff"
     bordercolor="#666666"
     borderopacity="1.0"
     inkscape:pageshadow="2"
     inkscape:pageopacity="0.0"
     inkscape:pagecheckerboard="true"
     inkscape:document-units="mm"
     showgrid="false"
     units="px"
     width="512px"
     showguides="true"
     inkscape:guide-bbox="true"
     inkscape:snap-bbox="true"
     inkscape:snap-bbox-midpoints="true"
     inkscape:zoom="15.673606"
     inkscape:cx="32.059753"
     inkscape:cy="15.074465"
     inkscape:window-width="1920"
     inkscape:window-height="1009"
     inkscape:window-x="0"
     inkscape:window-y="0"
     inkscape:window-maximized="1"
     inkscape:current-layer="svg5"
     inkscape:snap-global="false"
     inkscape:rotation="1">
    <sodipodi:guide
       position="2.1166666,2.1166666"
       orientation="0,1"
       id="guide1560"
       inkscape:label=""
       inkscape:locked="false"
       inkscape:color="rgb(0,0,255)" />
    <sodipodi:guide
       position="2.1166665,2.1166667"
       orientation="1,0"
       id="guide1562" />
    <sodipodi:guide
       position="3.6542692,3.1012237"
       orientation="0,-1"
       id="guide18577" />
    <sodipodi:guide
       position="4.2293806,1.135294"
       orientation="0,-1"
       id="guide18579" />
  </sodipodi:namedview>
  <defs
     id="defs2" />
  <path
     id="path29633"
     d="m 3.8840101,1.4515647 q -0.094832,0 -0.159491,0.048849 -0.064659,0.048849 -0.1077642,0.1373874 -0.04095,0.085486 -0.060348,0.2076077 -0.017243,0.1190691 -0.017243,0.2656157 0,0.3388891 0.075435,0.5007009 0.075435,0.1587588 0.2219942,0.1587588 0.023708,0 0.051727,-0.00306 0.028019,-0.00306 0.051727,-0.00916 V 2.0682816 H 4.205147 v 0.9433938 q -0.047417,0.024424 -0.1487146,0.054955 -0.099143,0.030531 -0.2413916,0.030531 -0.1250066,0 -0.226305,-0.061061 Q 3.4895918,2.9719864 3.4184677,2.8498639 3.3473433,2.7246887 3.308548,2.5415054 3.269753,2.3552691 3.269753,2.1110248 q 0,-0.2411913 0.045261,-0.4243745 0.045261,-0.1862363 0.1228511,-0.3114115 0.07759,-0.1251752 0.1831992,-0.1862363 0.1056088,-0.064114 0.2263047,-0.064114 0.07759,0 0.1379382,0.018319 0.062503,0.015266 0.1077642,0.036637 0.045261,0.021371 0.07328,0.045796 0.030174,0.024424 0.045261,0.036637 l -0.06897,0.2991987 Q 4.0952266,1.5187334 4.0262574,1.4851496 3.9572882,1.4515658 3.8840087,1.4515658 Z M 2.461527,2.1110244 q 0,0.1373875 0.00647,0.2595097 0.00862,0.119069 0.030174,0.2076076 0.023708,0.088539 0.064659,0.1404405 0.04095,0.051902 0.1099194,0.051902 0.066814,0 0.1077642,-0.051902 0.043105,-0.051902 0.064658,-0.1404405 0.023708,-0.091592 0.030174,-0.2106607 0.00862,-0.1190691 0.00862,-0.2564566 0,-0.1373874 -0.00862,-0.2564565 -0.00647,-0.1221222 -0.030174,-0.2106607 -0.021553,-0.088539 -0.062503,-0.1404405 -0.04095,-0.051902 -0.1099194,-0.051902 -0.068969,0 -0.1099194,0.051902 -0.04095,0.051902 -0.064659,0.1434935 -0.021553,0.088538 -0.030174,0.2076077 -0.00647,0.1190691 -0.00647,0.2564565 z m -0.2694106,0 q 0,-0.4884887 0.1271619,-0.735786 0.1271616,-0.2503504 0.3534664,-0.2503504 0.2349261,0 0.3577772,0.2503504 0.1228511,0.2472973 0.1228511,0.735786 0,0.4884887 -0.1250066,0.7388391 Q 2.9033601,3.0971609 2.6749,3.0971609 q -0.2349258,0 -0.3599324,-0.2472974 Q 2.1921164,2.5995131 2.1921164,2.1110244 Z M 2.0477165,3.0574713 H 1.2093112 V 1.1676307 h 0.2672552 v 1.578429 h 0.5711501 z m -1.66818542,0 Q 0.32780425,2.8468105 0.26961163,2.5811948 0.21141894,2.3155791 0.15969212,2.0530164 0.10796534,1.7874007 0.06701492,1.5523155 0.02606455,1.3172303 0.00666699,1.1676307 h 0.28018689 q 0.0129315,0.1465465 0.038795,0.341942 0.0258635,0.1923425 0.0560373,0.3999501 0.0323293,0.2045547 0.0668138,0.4060563 0.0366398,0.1984484 0.0711244,0.3572073 0.0344845,-0.1557058 0.0689691,-0.3541543 0.0344845,-0.2015015 0.0646585,-0.4060562 0.030174,-0.2076077 0.0560374,-0.4030032 0.0258635,-0.1953955 0.0431055,-0.341942 H 1.0304264 Q 1.0045628,1.3508139 0.96576789,1.5767399 0.92912813,1.802666 0.87955655,2.0530164 0.83214055,2.3003138 0.77394765,2.5598234 0.71575497,2.81628 0.65325173,3.0574713 Z" />
</svg>
