<?xml version="1.0" encoding="utf-8" ?>
<svg baseProfile="full" height="165" id="svgcontent" version="1.1" viewBox="0 0 649 165" width="649" xmlns="http://www.w3.org/2000/svg" xmlns:ev="http://www.w3.org/2001/xml-events" xmlns:xlink="http://www.w3.org/1999/xlink"><defs /><g font-family="sans-serif" font-size="14" font-weight="normal" text-anchor="middle" transform="translate(4.5,80.5)"><g stroke="black" stroke-linecap="round" stroke-width="1" transform="translate(0,20.0)"><line x1="0" x2="640" y1="0" y2="0" /><line x1="0" x2="0" y1="0" y2="40.0" /><line x1="0" x2="640" y1="40.0" y2="40.0" /><line x1="640.0" x2="640.0" y1="0" y2="40.0" /><line x1="600.0" x2="600.0" y1="0" y2="5.0" /><line x1="600.0" x2="600.0" y1="35.0" y2="40.0" /><line x1="560.0" x2="560.0" y1="0" y2="40.0" /><line x1="520.0" x2="520.0" y1="0" y2="5.0" /><line x1="520.0" x2="520.0" y1="35.0" y2="40.0" /><line x1="480.0" x2="480.0" y1="0" y2="40.0" /><line x1="440.0" x2="440.0" y1="0" y2="40.0" /><line x1="400.0" x2="400.0" y1="0" y2="40.0" /><line x1="360.0" x2="360.0" y1="0" y2="40.0" /><line x1="320.0" x2="320.0" y1="0" y2="5.0" /><line x1="320.0" x2="320.0" y1="35.0" y2="40.0" /><line x1="280.0" x2="280.0" y1="0" y2="5.0" /><line x1="280.0" x2="280.0" y1="35.0" y2="40.0" /><line x1="240.0" x2="240.0" y1="0" y2="5.0" /><line x1="240.0" x2="240.0" y1="35.0" y2="40.0" /><line x1="200.0" x2="200.0" y1="0" y2="5.0" /><line x1="200.0" x2="200.0" y1="35.0" y2="40.0" /><line x1="160.0" x2="160.0" y1="0" y2="5.0" /><line x1="160.0" x2="160.0" y1="35.0" y2="40.0" /><line x1="120.0" x2="120.0" y1="0" y2="5.0" /><line x1="120.0" x2="120.0" y1="35.0" y2="40.0" /><line x1="80.0" x2="80.0" y1="0" y2="5.0" /><line x1="80.0" x2="80.0" y1="35.0" y2="40.0" /><line x1="40.0" x2="40.0" y1="0" y2="5.0" /><line x1="40.0" x2="40.0" y1="35.0" y2="40.0" /></g><g text-anchor="middle"><g><g transform="translate(0,20.0)"><rect height="40.0" style="fill-opacity:0.1" width="80.0" x="480.0" y="0" /><rect height="40.0" style="fill-opacity:0.1" width="360.0" x="0.0" y="0" /></g><g transform="translate(20.0,16.0)"><text x="600.0"><tspan>0</tspan></text><text x="560.0"><tspan>1</tspan></text><text x="520.0"><tspan>2</tspan></text><text x="480.0"><tspan>3</tspan></text><text x="440.0"><tspan>4</tspan></text><text x="400.0"><tspan>5</tspan></text><text x="360.0"><tspan>6</tspan></text><text x="320.0"><tspan>7</tspan></text><text x="0.0"><tspan>15</tspan></text></g><g transform="translate(20.0,44.0)"><text x="580.0"><tspan>BAUD</tspan></text><text x="440.0"><tspan>TXEN</tspan></text><text x="400.0"><tspan>RXEN</tspan></text><text x="360.0"><tspan>TXST</tspan></text></g><g transform="translate(20.0,80)"><text x="580.0"><tspan>rw</tspan></text><text x="440.0"><tspan>rw</tspan></text><text x="400.0"><tspan>rw</tspan></text><text x="360.0"><tspan>wosc</tspan></text></g></g></g></g><g font-family="sans-serif" font-size="14" font-weight="normal" text-anchor="middle" transform="translate(4.5,0.5)"><g stroke="black" stroke-linecap="round" stroke-width="1" transform="translate(0,20.0)"><line x1="0" x2="640" y1="0" y2="0" /><line x1="0" x2="0" y1="0" y2="40.0" /><line x1="0" x2="640" y1="40.0" y2="40.0" /><line x1="640.0" x2="640.0" y1="0" y2="40.0" /><line x1="600.0" x2="600.0" y1="0" y2="5.0" /><line x1="600.0" x2="600.0" y1="35.0" y2="40.0" /><line x1="560.0" x2="560.0" y1="0" y2="5.0" /><line x1="560.0" x2="560.0" y1="35.0" y2="40.0" /><line x1="520.0" x2="520.0" y1="0" y2="5.0" /><line x1="520.0" x2="520.0" y1="35.0" y2="40.0" /><line x1="480.0" x2="480.0" y1="0" y2="5.0" /><line x1="480.0" x2="480.0" y1="35.0" y2="40.0" /><line x1="440.0" x2="440.0" y1="0" y2="5.0" /><line x1="440.0" x2="440.0" y1="35.0" y2="40.0" /><line x1="400.0" x2="400.0" y1="0" y2="5.0" /><line x1="400.0" x2="400.0" y1="35.0" y2="40.0" /><line x1="360.0" x2="360.0" y1="0" y2="5.0" /><line x1="360.0" x2="360.0" y1="35.0" y2="40.0" /><line x1="320.0" x2="320.0" y1="0" y2="5.0" /><line x1="320.0" x2="320.0" y1="35.0" y2="40.0" /><line x1="280.0" x2="280.0" y1="0" y2="5.0" /><line x1="280.0" x2="280.0" y1="35.0" y2="40.0" /><line x1="240.0" x2="240.0" y1="0" y2="5.0" /><line x1="240.0" x2="240.0" y1="35.0" y2="40.0" /><line x1="200.0" x2="200.0" y1="0" y2="5.0" /><line x1="200.0" x2="200.0" y1="35.0" y2="40.0" /><line x1="160.0" x2="160.0" y1="0" y2="5.0" /><line x1="160.0" x2="160.0" y1="35.0" y2="40.0" /><line x1="120.0" x2="120.0" y1="0" y2="5.0" /><line x1="120.0" x2="120.0" y1="35.0" y2="40.0" /><line x1="80.0" x2="80.0" y1="0" y2="5.0" /><line x1="80.0" x2="80.0" y1="35.0" y2="40.0" /><line x1="40.0" x2="40.0" y1="0" y2="5.0" /><line x1="40.0" x2="40.0" y1="35.0" y2="40.0" /></g><g text-anchor="middle"><g><g transform="translate(0,20.0)"><rect height="40.0" style="fill-opacity:0.1" width="640.0" x="0.0" y="0" /></g><g transform="translate(20.0,16.0)"><text x="600.0"><tspan>16</tspan></text><text x="0.0"><tspan>31</tspan></text></g><g transform="translate(20.0,44.0)" /><g transform="translate(20.0,80)" /></g></g></g></svg>