<?xml version="1.0" encoding="UTF-8" standalone="no"?>
<!-- Created with Inkscape (http://www.inkscape.org/) -->

<svg
   version="1.1"
   id="svg854"
   width="1024"
   height="1024"
   viewBox="0 0 1024 1024"
   xmlns="http://www.w3.org/2000/svg"
   xmlns:svg="http://www.w3.org/2000/svg">
  <defs
     id="defs858" />
  <g
     id="g891"
     transform="matrix(1.2632049,0,0,1.256513,94.297994,-438.35404)"
     style="display:inline">
    <path
       id="path840-3"
       style="color:#000000;display:inline;fill:#000000;-inkscape-stroke:none"
       d="m 378.22715,348.8655 -0.89063,44.87305 c -0.17044,-0.0289 -0.33536,-0.0686 -0.50976,-0.0977 -3.01848,-0.50294 -6.55147,-0.99594 -10.47461,-1.49023 -7.84628,-0.98859 -17.00165,-1.94643 -24.57422,-2.45118 -21.05428,-1.40337 -44.90152,-0.30625 -65.84766,3.01954 -2.25813,0.35853 -4.08247,0.66163 -5.90234,0.96289 l 0.0293,-43.96875 -33.41016,7.24218 c -10.75032,2.33054 -25.77016,7.50622 -37.46094,11.82618 -18.66081,6.89551 -54.55788,24.97217 -73.26562,36.27734 -13.28475,8.02803 -26.48315,17.06873 -65.0293,44.40039 -34.24957,24.28511 -49.25261,33.33536 -66.72265,40.89453 -5.53663,2.39566 -16.22125,6.4077 -25.71485,9.67774 -9.4936,3.27003 -21.52892,6.26156 -18,5.69726 -1.88246,0.30103 -3.52863,0.62096 -5.58789,1.19141 -1.02963,0.28522 -2.04739,0.53415 -4.17969,1.46289 -1.06614,0.46437 -2.36945,0.94328 -4.9707,2.83789 -2.60125,1.89461 -10.36523,5.72843 -10.36523,20.3164 0,10.62665 1.801,9.58156 2.42773,10.99415 0.62674,1.41258 1.12184,2.34477 1.64844,3.32031 1.05319,1.95107 2.19809,3.88975 3.55078,6.11523 2.70538,4.45096 6.17484,9.87536 9.9375,15.59571 7.52531,11.44068 15.59896,23.30721 21.625,30.84375 25.81135,32.28122 60.40743,59.92531 102.52344,83.08789 l -16.22071,-0.45313 -0.66211,50.15234 c -0.18174,13.76631 -0.1894,31.79346 -0.01,41.61329 0.002,0.11292 -0.002,0.36782 0,0.47851 l 0.78515,41.0918 34.78125,-0.0977 6.1211,-0.0176 0.0351,20.53711 19.41016,0.004 c -0.75303,1.0061 -1.28897,1.92886 -1.78711,2.42773 -1.61,1.6124 -2.15866,2.4256 -2.66406,3.11329 -1.0108,1.37536 -1.43683,2.11055 -1.9043,2.88671 -0.93494,1.55234 -1.72652,3.002 -2.65039,4.73243 -1.84774,3.46086 -4.06243,7.8285 -6.45508,12.67773 -4.78528,9.69846 -10.13432,21.00959 -13.69531,29.34375 -9.59723,22.46143 -15.25311,39.7133 -20.54492,62.71875 -1.37742,5.98816 -2.99173,12.80994 -3.04102,13.00586 -0.28018,1.11374 -1.15867,1.30155 -0.95507,8.03516 0.10179,3.3668 -0.15973,12.58489 11.05273,20.17578 5.60623,3.79544 12.59947,4.6494 16.92969,4.1582 4.33022,-0.4912 6.7777,-1.66492 8.52148,-2.53906 6.97511,-3.49657 6.51293,-4.55585 7.55078,-5.60156 1.03785,-1.04572 1.78807,-1.87746 2.66992,-2.85157 6.79635,-7.50732 8.2495,-9.00249 17.03125,-17.54883 6.75736,-6.5762 11.81018,-12.86531 18.48438,-23.15625 -0.0448,1.9926 -0.094,3.69454 -0.13281,6.09766 -0.13843,8.57333 -0.23622,19.55186 -0.26367,30.99414 l -0.13672,56.51369 16.8457,8.6699 c 1.09769,0.565 14.66106,9.4625 25.23828,17.7793 6.75249,5.3095 19.85576,15.0791 30.30274,22.6348 10.14166,7.3348 23.00132,16.6731 28.38867,20.6152 35.7199,26.1375 46.96308,34.2935 54.61328,39.5449 4.13431,2.838 9.78793,6.9412 9.7832,6.9375 1.15352,0.8988 2.21429,1.6888 3.36914,2.4883 0.57743,0.3998 1.12931,0.7827 2.09961,1.3672 0.48515,0.2922 1.02972,0.6272 2.19531,1.1953 1.1656,0.5681 0.59095,2.2958 10.39844,2.5684 10.80945,0.3039 9.77166,-1.654 10.91797,-2.1602 1.14677,-0.5063 1.65713,-0.796 2.11328,-1.0449 0.91231,-0.4978 1.41387,-0.8095 1.95313,-1.1426 1.0785,-0.6661 2.12057,-1.345 3.35742,-2.164 2.47371,-1.6381 5.59248,-3.7624 9.07617,-6.17 6.96737,-4.8151 15.27151,-10.682 21.67188,-15.3769 6.61307,-4.8509 20.72652,-15.2127 31.38476,-23.043 10.55598,-7.7551 24.15769,-17.6243 29.66992,-21.5371 6.29496,-4.4684 18.27207,-13.2652 27.37696,-20.0898 8.14476,-6.105 16.06806,-11.8151 22.11523,-15.9922 3.02358,-2.0886 5.59858,-3.8038 7.31641,-4.8926 1.71783,-1.0888 4.67952,-2.0196 -0.25586,-0.2012 3.25158,-1.1984 8.8464,-4.7796 11.91406,-8.8789 3.06804,-4.0998 4.06043,-7.5413 4.6543,-9.9141 1.18772,-4.7455 1.11027,-7.0231 1.25195,-10.4257 0.28335,-6.8052 0.28516,-16.9904 0.28516,-36.26762 0,-11.27493 0.0731,-22.23096 0.1875,-30.69726 0.005,-0.33918 0.008,-0.23085 0.0137,-0.57031 2.0021,2.2664 3.91647,4.54273 6.0625,6.80273 11.28799,11.88748 16.63037,18.00034 27.79297,31.8125 3.31893,4.10672 3.17679,5.35561 9.66797,10.62496 1.62279,1.3174 3.72211,3.4526 9.92187,5.1036 6.19976,1.6509 18.94868,-0.9534 24.60352,-6.6856 11.30966,-11.46443 7.23475,-14.60115 7.40234,-16.15819 0.57836,-5.37332 0.0396,-6.40482 -0.20313,-8.32422 -0.24271,-1.91941 -0.55139,-3.74928 -0.92382,-5.75 -0.74486,-4.00144 -1.74991,-8.60266 -2.93164,-13.60352 -2.36347,-10.00172 -5.38797,-21.38061 -8.36329,-30.7793 -5.89501,-18.62173 -15.59464,-43.07721 -24.6582,-63.83203 -4.53178,-10.3774 -8.85059,-19.70044 -12.63476,-27.05273 -0.30111,-0.58503 -0.59187,-1.01143 -0.88477,-1.57031 h 11.74023 l 0.0352,-21.0293 6.62109,-0.19336 33.88282,-0.99414 0.4414,-63.71875 0.43946,-63.36524 -21.3125,-1.23632 c 6.4667,-3.38129 13.61463,-7.56841 22.76367,-12.94336 11.11091,-6.52753 17.8166,-11.14795 37.83203,-26.08985 13.58116,-10.13859 32.40747,-28.18524 43.10547,-41.33007 10.18817,-12.51843 20.21633,-27.05693 30.40234,-43.86915 l 27.63281,-45.61132 -37.44335,-7.6543 c 1.09713,0.22428 -8.75934,-2.49696 -17.4629,-5.38867 -8.70355,-2.89171 -18.43905,-6.34029 -24.0625,-8.55664 -27.6511,-10.89807 -34.3177,-15.03745 -83.98437,-51.04492 -43.16114,-31.29109 -76.28085,-50.94664 -113.75,-67.19336 -17.23753,-7.47426 -24.05631,-9.88974 -37.76563,-13.45704 z" />
    <path
       style="display:inline;fill:#ffffff;fill-opacity:1;stroke:none;stroke-width:3;stroke-miterlimit:4;stroke-dasharray:none;stroke-opacity:1"
       d="m 319.85064,1136.4481 c -1.65,-1.2856 -6.6,-4.8087 -11,-7.8291 -7.0926,-4.8687 -18.30071,-12.9859 -54,-39.1084 -5.5,-4.0245 -18.325,-13.3383 -28.5,-20.6972 -10.175,-7.359 -23.45,-17.2721 -29.5,-22.0292 -11.36398,-8.9355 -23.57977,-17.4364 -29.25,-20.355 l -3.25,-1.6728 0.0989,-41.22436 c 0.0544,-22.67338 0.39189,-43.57607 0.75,-46.45044 l 0.6511,-5.22611 4.70304,4.74274 c 2.58668,2.60851 7.12846,6.31026 10.09285,8.22612 l 5.38979,3.48337 0.65311,12.5 c 0.3592,6.875 0.65492,21.33872 0.65715,32.14159 0.004,19.53099 0.0167,19.64479 2.25406,20.21479 1.2375,0.3152 9.07303,5.7039 17.41229,11.9748 8.33925,6.2708 20.71425,15.2166 27.5,19.8794 12.10197,8.3159 29.02833,20.7844 55.77804,41.0879 7.39219,5.6109 15.94219,11.9694 19,14.1301 3.05782,2.1607 7.68551,5.6804 10.28375,7.8214 l 4.72409,3.8929 8.27591,-6.8925 c 8.43602,-7.0259 30.6907,-23.4733 38.65718,-28.5698 2.42389,-1.5507 12.3297,-8.7768 22.01291,-16.058 9.68321,-7.2812 21.43083,-15.8759 26.10583,-19.0993 4.675,-3.2234 14.92721,-10.7546 22.7827,-16.7359 7.85548,-5.9814 14.94298,-11.1286 15.75,-11.4383 1.24856,-0.4791 1.4673,-5.4636 1.4673,-33.43574 v -32.87269 l 3.82964,-1.95374 c 2.10631,-1.07456 7.09711,-4.6837 11.09067,-8.02032 3.99355,-3.33663 7.73432,-6.06659 8.31281,-6.06659 0.69133,0 0.83161,2.10656 0.40934,6.14669 -0.35335,3.38068 -0.64246,24.7698 -0.64246,47.53139 0,38.5017 -0.12191,41.4296 -1.75,42.0295 -3.05772,1.1266 -18.76608,11.9772 -35.52622,24.5399 -8.92308,6.6884 -21.00749,15.5564 -26.85424,19.7066 -5.84675,4.1503 -19.34675,13.9495 -30,21.7761 -10.65325,7.8266 -24.76954,18.1913 -31.36954,23.0326 -12.16943,8.9267 -32.88965,23.2464 -33.60755,23.2261 -0.21585,-0.01 -1.74245,-1.0629 -3.39245,-2.3485 z m -2,-51.6734 -6,-3.6845 -0.0473,-27.5897 -0.0473,-27.5897 13.29896,-0.3015 13.29896,-0.3016 -0.002,26.1299 -0.002,26.1298 -5.71509,4.3702 c -3.1433,2.4036 -6.4058,4.8542 -7.25,5.4459 -1.18943,0.8336 -2.88539,0.2465 -7.53491,-2.6088 z m -51.75,-37.465 -12.75,-9.4595 v -14.1062 -14.1063 l 4.47863,3.9423 c 2.46324,2.1682 8.53118,6.594 13.48431,9.835 l 9.00568,5.8927 0.0228,7 c 0.0125,3.85 0.30967,10.0375 0.66029,13.75 0.5115,5.4159 0.36186,6.7462 -0.75711,6.7308 -0.76703,-0.011 -7.1321,-4.276 -14.1446,-9.4788 z m 100.25,-5.5267 v -15.0248 l 2.58886,-0.9843 c 3.37397,-1.2827 15.76609,-9.267 21.07944,-13.5815 2.29256,-1.8616 4.43006,-3.3847 4.75,-3.3847 0.85513,0 0.67986,26.3131 -0.18361,27.566 -0.40408,0.5863 -2.98469,2.5774 -5.73469,4.4246 -2.75,1.8472 -8.44095,6.205 -12.64655,9.684 -4.2056,3.479 -8.1431,6.3254 -8.75,6.3254 -0.75564,0 -1.10345,-4.7358 -1.10345,-15.0247 z m -148.25556,-28.1534 -9.74444,-7.0225 v -20.89969 c 0,-11.49483 0.35867,-20.89969 0.79705,-20.89969 0.43838,0 2.57588,1.82381 4.75,4.05292 2.17412,2.2291 6.02721,5.38543 8.56241,7.01406 l 4.60947,2.96115 0.7243,20.56884 c 0.39836,11.31281 0.5716,20.72151 0.38498,20.90811 -0.18663,0.1867 -4.72432,-2.8208 -10.08377,-6.6832 z m 200.60053,-6.48 c 0.36027,-7.51195 0.65503,-17.37893 0.65503,-21.9266 v -8.2685 l 5.25,-3.07161 c 2.8875,-1.68938 7.3875,-4.69052 10,-6.6692 l 4.75,-3.59759 -0.0153,20.84581 c -0.008,11.4652 -0.34592,21.29649 -0.75,21.84739 -0.40408,0.5509 -1.99529,1.6518 -3.53602,2.4465 -1.54074,0.7946 -5.55722,3.8314 -8.92552,6.7484 -3.3683,2.9169 -6.56496,5.3035 -7.1037,5.3035 -0.62351,0 -0.74144,-4.964 -0.32448,-13.6581 z m -106.5799,-19.09188 c -0.27646,-8.6625 -0.4492,-15.76862 -0.38386,-15.79139 1.2757,-0.44446 24.04446,1.26437 23.86879,1.79139 -0.1375,0.4125 -0.25,7.275 -0.25,15.25 v 14.49998 H 323.9845 312.61837 Z m -32.85501,13.41058 c -1.42447,-0.7568 -8.73697,-6.24601 -16.25,-12.19837 l -13.66006,-10.82247 v -5.68744 c 0,-3.1281 -0.91731,-14.85954 -2.03846,-26.06988 -1.12116,-11.21033 -2.91945,-29.83242 -3.99621,-41.38242 -1.07676,-11.55 -2.63942,-26.625 -3.47258,-33.5 -2.78161,-22.95301 -2.20606,-20.85337 -6.17029,-22.50974 -1.95311,-0.81605 -8.78716,-4.57774 -15.18678,-8.35929 -6.39962,-3.78156 -15.46068,-8.78383 -20.13568,-11.11615 -8.00789,-3.99509 -27.22958,-15.19452 -31.40143,-18.29591 -1.75942,-1.30796 -0.9005,-2.01545 11.5,-9.47252 7.37079,-4.43244 15.94358,-9.18133 19.05064,-10.55309 5.47675,-2.41795 5.73662,-2.44094 8.51207,-0.7531 7.94323,4.83057 22.46141,6.78296 37.48854,5.04143 14.07085,-1.63071 19.50731,-4.65575 34.383,-19.13196 6.69717,-6.51732 12.47503,-11.84967 12.83969,-11.84967 0.36465,0 0.54252,23.1751 0.39525,51.50022 l -0.26776,51.50023 32.25,-2.3e-4 32.25,-2.2e-4 0.0879,-10.25 c 0.0483,-5.6375 1.17461,-37.53587 0.51292,-58.75 -0.66169,-21.21413 -1.48066,-56.86599 -2.05301,-72.96032 -1.56601,-1.29967 -15.78942,-7.54625 -17.00699,-7.54719 -0.60593,25.06655 -2.01459,55.4638 -2.39737,80.69182 l -0.64345,47.22262 -10,-0.29031 c -5.5,-0.15967 -10.225,-0.51342 -10.5,-0.78611 -0.275,-0.2727 -0.77275,-23.52112 -1.10611,-51.66316 -0.88528,-28.45558 -0.88409,-60.4272 -2.29446,-86.92498 l -9.77126,-4.77836 c -5.37418,-2.6281 -10.34655,-4.97547 -11.04971,-5.21638 -0.8792,-0.30122 -0.12459,-2.12593 2.4163,-5.84282 2.03212,-2.97264 7.25467,-11.47981 11.60566,-18.90481 8.60252,-14.68025 8.834,-14.85401 15.89124,-11.9286 2.96151,1.22763 5.02768,0.79863 28.65429,-5.94949 39.92012,-11.40179 46.46994,-12.58969 69.15405,-12.54204 16.39108,0.0344 20.16715,0.34719 27.5,2.27777 15.55358,4.09491 40.1007,12.24006 40.53279,13.44948 0.23441,0.65608 0.54792,34.75909 0.6967,75.78447 l 0.27051,74.59158 -4.15735,1.71915 c -4.02101,1.66277 -21.92216,12.32425 -37.34265,22.24035 -12.06675,7.75949 -28.95436,17.18839 -31.9725,17.85129 -3.34148,0.73391 -3.17455,-0.0722 -6.00661,29.00604 -1.1249,11.55 -2.7111,26.4 -3.52487,33 -2.55201,20.69764 -5.5344,55.9749 -5.25953,62.2124 0.18273,4.14651 -0.19292,6.52971 -1.22537,7.77392 -2.08739,2.51555 -24.64824,17.51096 -27.86155,18.51861 -1.45726,0.45695 -5.30764,1.06755 -8.5564,1.35685 l -5.90683,0.5261 0.66364,-21.35302 c 0.36501,-11.74416 0.91906,-22.63143 1.23122,-24.19394 l 0.56757,-2.84092 h -32.63238 -32.63239 l 0.19407,24.5 0.19407,24.49998 -4.88607,0.2682 c -2.74509,0.1507 -6.02093,-0.3347 -7.47601,-1.1076 z m 96.87351,-90.03874 c -0.15596,-5.56701 -0.62107,-10.00934 -1.03357,-9.87184 -0.4125,0.1375 -23.925,0.25 -52.25,0.25 h -51.5 v 10.05123 10.05123 l 52.53357,-0.17939 52.53357,-0.1794 z m 58.31842,-143.66973 c 5.7857,-1.6824 14.52524,-6.06941 20.2454,-10.16265 1.70753,-1.22187 1.88084,-3.57312 2.28913,-31.05571 0.24295,-16.35356 0.14739,-29.73375 -0.21235,-29.73375 -0.35975,0 -4.76486,1.10704 -9.78913,2.46009 -5.02427,1.35305 -13.63504,3.16954 -19.13504,4.03666 -5.5,0.86712 -16.075,3.17179 -23.5,5.12149 -23.62178,6.20276 -30.86427,10.4898 -32.80234,13.62023 -1.93808,3.13042 -1.88962,3.0262 -2.38182,5.19228 -0.6914,3.16128 -0.33928,5.51036 1.79876,12 1.46214,4.43809 3.32933,9.41925 4.14931,11.06925 2.53483,5.10072 11.74205,16.05793 15.00757,17.37888 3.26552,1.32095 23.13407,3.00296 31.22852,2.44281 3.575,-0.2474 9.47089,-1.31371 13.10199,-2.36958 z m -26.27458,-10.94304 c -8.30665,-5.5021 -10.23568,-15.85181 -4.38438,-23.52326 8.20373,-10.75565 18.74448,-9.60953 24.90438,2.70791 3.51833,7.03534 3.05029,12.1448 -1.59742,17.43824 -6.18855,7.04838 -11.85359,8.05942 -18.92258,3.37711 z m 16.67259,-86.57835 v -8.43247 l -8.03086,8.7e-4 -8.03086,8.8e-4 -0.20336,8.75 -0.20335,8.75 8.23422,-0.31841 8.23421,-0.3184 z m -35.70552,7.71746 c 0.75486,-0.47887 1.54482,-3.80732 1.89503,-7.98468 l 0.60056,-7.1635 h -8.14503 -8.14504 v 8 8 l 6.25,-0.0153 c 3.4375,-0.008 6.83251,-0.38485 7.54448,-0.83651 z m 63.84509,-0.14818 h 3.36043 v -8 -8 h -8 -8 v 8.63592 8.63593 l 4.63957,-0.63593 c 2.55177,-0.34975 6.15177,-0.63592 8,-0.63592 z M 560.85064,976.1209 c -11.37154,-14.07069 -17.5531,-21.14549 -29.10717,-33.31318 -6.27406,-6.60727 -13.00404,-14.90364 -15.81831,-19.5 -2.69404,-4.4 -6.82618,-10.38476 -9.18253,-13.29946 -5.21456,-6.45019 -5.93788,-9.92446 -5.76707,-27.70054 0.12964,-13.49106 3.25235,-37.94177 5.4663,-42.80085 1.26486,-2.77608 4.22648,-4.15837 7.57969,-3.53771 4.44789,0.82329 31.95217,63.80582 42.72579,97.83856 5.35732,16.9232 11.82326,44.28584 11.39819,48.23501 -0.27362,2.54212 -0.79968,2.11508 -7.29489,-5.92183 z m -478.0449,-4.31318 c 0.34591,-1.375 1.76755,-7.45 3.15919,-13.5 5.056,-21.98029 9.95627,-36.93318 19.17126,-58.5 6.38551,-14.94469 21.21501,-45 22.20332,-45 0.49215,0 4.77755,1.85371 9.52311,4.11937 9.88882,4.72117 10.48802,5.62438 10.48802,15.80908 0,6.29518 -0.45016,7.71487 -6.08323,19.1849 -3.34577,6.81266 -11.10827,20.6281 -17.25,30.70098 -9.61431,15.76818 -12.40756,19.52186 -20.0917,27 -8.87458,8.63667 -11.20608,11.03994 -18.12772,18.68567 -3.16931,3.50086 -3.5427,3.68803 -2.99225,1.5 z m 337.98911,-23.25 c 0.26528,-1.2375 0.98211,-8.775 1.59297,-16.75 0.93262,-12.17572 3.55324,-37.0723 6.54648,-62.19329 0.37487,-3.14611 1.25093,-5.913 1.95813,-6.18437 0.70386,-0.2701 4.5824,-2.57833 8.61898,-5.1294 4.03658,-2.55107 14.08923,-8.84455 22.33923,-13.98552 l 15,-9.3472 0.29834,5.3676 c 0.16409,2.95218 -0.63814,14.23024 -1.78274,25.06235 -1.1446,10.83211 -2.11274,25.81814 -2.15144,33.30229 l -0.0703,13.60754 -7.29118,4.78358 c -4.01014,2.63097 -15.39799,11.29347 -25.30631,19.25 -9.90838,7.95653 -18.51453,14.46642 -19.12483,14.46642 -0.62698,0 -0.89985,-0.97868 -0.62733,-2.25 z m -210.44421,-9.99228 c -7.425,-6.02071 -18.5625,-14.78436 -24.75,-19.47479 -11.13033,-8.43734 -11.2501,-8.57197 -11.25967,-12.6555 -0.005,-2.27008 -0.42466,-11.55243 -0.93185,-20.62743 -0.5072,-9.075 -1.21777,-23.60903 -1.57906,-32.29785 l -0.65689,-15.79786 12.33874,8.09429 c 6.7863,4.45186 17.40123,10.65184 23.58873,13.77773 l 11.25,5.68345 v 4.81331 c 0,2.64733 0.65309,10.98138 1.45132,18.52012 1.59681,15.08084 4.84148,60.2854 4.35472,60.66967 -0.16832,0.13288 -6.38104,-4.68443 -13.80604,-10.70514 z m -93.60399,-190.25979 -0.10399,-61.49793 h 10.85399 10.85399 l 0.18041,17.75 c 0.18694,18.39245 0.17064,44.70643 -0.0514,83 l -0.12901,22.25 -10.75,-0.002 -10.75,-0.002 -0.10399,-61.49792 z m 391.56585,60.25207 c -0.021,-0.1375 -0.27324,-27.55893 -0.56059,-60.93651 l -0.52244,-60.68651 11.08198,-0.31349 11.08197,-0.31349 -0.10376,61.25 -0.10376,61.25 h -10.41763 c -5.7297,0 -10.43479,-0.1125 -10.45577,-0.25 z m -433.14633,-35.75 c -0.17354,-9.075 -0.16826,-27.65286 0.0117,-41.28413 l 0.32727,-24.78413 10.17273,0.28413 10.17277,0.28413 v 40.97149 40.97149 l -10.18447,0.0285 -10.18448,0.0285 -0.31552,-16.5 z m 475.40149,-24.88098 c 0.15564,-21.97481 0.50798,-40.1704 0.78298,-40.43465 0.275,-0.26426 4.67337,-0.2383 9.77415,0.0577 l 9.27416,0.53813 -0.27416,39.60991 -0.27415,39.60989 -9.78298,0.28661 -9.78297,0.28661 z M 160.11883,720.65773 c -0.14751,-27.69251 -0.0432,-51.91598 0.23181,-53.82994 0.408,-2.83962 -0.49087,-3.12272 5.94893,-8.13672 6.43979,-5.014 10.28408,-7.2996 19.05107,-9.34847 28.74607,-6.59943 30.39541,-6.81924 52,-6.92989 19.82424,-0.10153 34,1.33884 34,3.45466 0,0.45826 -1.52356,3.44481 -3.38569,6.63677 -1.86213,3.19197 -5.25194,10.30358 -7.53292,15.80358 -2.28098,5.5 -4.78076,11.42187 -5.55507,13.1597 l -1.40784,3.15971 -7.30924,-2.28556 c -4.02008,-1.25706 -9.33424,-3.12893 -11.80924,-4.15971 -6.55908,-2.7317 -38.59184,-2.53321 -47.5,0.29432 l -6,1.90447 -0.62579,6.96353 c -0.34418,3.82995 -0.68168,19.82952 -0.75,35.55461 -0.0947,21.78698 0.20573,29.68738 1.26221,33.1978 1.72496,5.73161 1.26584,6.22854 -9.88642,10.70061 -4.4,1.76441 -8.55432,3.43358 -9.23181,3.70928 -0.964,0.39228 -1.29012,-10.44566 -1.5,-49.84875 z M 84.26394,662.47493 C 42.02222,639.99108 8.45571,613.29794 -15.93468,582.79385 c -9.08491,-11.36215 -33.71468,-48.80664 -33.71468,-51.25624 0,-0.26085 1.82245,-0.76569 4.04988,-1.12188 6.48424,-1.03687 36.13623,-11.25038 49.69582,-17.11752 19.47178,-8.42531 36.5619,-18.84532 71.2543,-43.44442 38.47041,-27.27796 51.05095,-35.87614 63.5,-43.39915 15.89613,-9.6061 55.38393,-29.19128 69,-34.22267 10.44877,-3.86101 28.78401,-9.69275 34.0929,-10.84365 l 3.09291,-0.6705 -0.0154,23.79495 c -0.0166,25.73022 1.32795,39.04823 5.86709,58.11278 4.6585,19.56584 13.93093,39.24913 25.32928,53.76841 9.52862,12.1376 25.51545,22.19282 40.06902,25.20218 6.83199,1.4127 8.80353,1.46046 14.24674,0.34513 28.37644,-5.81442 55.11463,-37.91115 65.31228,-78.40139 4.94738,-19.64379 5.61877,-25.63056 6.20919,-55.36666 l 0.53876,-27.13451 12.62861,3.28608 c 13.28742,3.45751 17.09867,4.82033 34.11708,12.19957 35.702,15.48048 66.72483,33.83388 109.02077,64.49771 49.89964,36.17637 60.77257,42.74499 89.49077,54.06363 12.94534,5.10212 39.41824,13.89759 45.68583,15.17886 l 2.68583,0.54905 -9.25058,15.26828 c -9.72367,16.04911 -19.14197,29.65552 -28.41025,41.04365 -7.14019,8.77329 -29.59018,30.29778 -38.67101,37.07679 -19.89491,14.85192 -24.95987,18.35337 -35.53982,24.56896 -18.30741,10.75538 -30.05481,16.75523 -36.32415,18.55214 -3.20329,0.91813 -6.08872,1.40475 -6.41208,1.08139 -0.32336,-0.32336 -0.91777,-4.30249 -1.32091,-8.84251 -0.40313,-4.54003 -1.03714,-9.60459 -1.4089,-11.25459 -0.66622,-2.95687 -0.52756,-3.0778 9.64505,-8.41206 5.67655,-2.97664 13.47099,-7.43518 17.32099,-9.90786 3.85,-2.47269 9.25,-5.82692 12,-7.45384 12.99822,-7.68984 35.02004,-26.05139 45.92423,-38.29112 7.82439,-8.78271 30.11646,-37.39481 29.42002,-37.76091 -0.18934,-0.0995 -4.16925,-1.45282 -8.84425,-3.00731 -13.07896,-4.3489 -39.65708,-17.81648 -53.25359,-26.9845 -15.59675,-10.51676 -37.67337,-26.03204 -49.24641,-34.61002 -34.23434,-25.37461 -59.67485,-40.34872 -94,-55.32775 -21.33095,-9.30854 -19.08289,-9.47671 -19.85447,1.48528 -1.43525,20.39095 -7.67353,49.97935 -14.18441,67.27715 -6.05245,16.07988 -15.65774,31.59621 -26.82786,43.33757 -4.95048,5.20364 -21.08164,16.89322 -28.32579,20.52651 -14.49053,7.26771 -35,10.26093 -49.80747,7.26909 -16.86399,-3.40737 -39.95775,-17.77814 -52.57957,-32.71917 -20.62611,-24.41609 -33.67525,-59.6323 -37.02511,-99.92106 -0.61736,-7.425 -1.27761,-14.05043 -1.46722,-14.72318 -0.45546,-1.61599 -9.18575,2.08215 -35.9281,15.2191 -24.06862,11.8235 -37.19361,19.42335 -53.5,30.97844 -6.325,4.48204 -21.625,15.33211 -34,24.11126 -40.31458,28.60021 -65.484,43.65269 -85.9198,51.38404 -7.31302,2.76669 -13.8962,5.03034 -14.62928,5.03034 -2.62047,0 -2.30681,1.74098 1.2757,7.0809 4.96441,7.39971 24.03435,29.53679 34.87041,40.47886 15.30498,15.45471 41.24181,33.32605 67.38875,46.43311 6.6546,3.33585 12.30142,6.61462 12.5485,7.28615 0.24708,0.67154 0.11545,4.7791 -0.29252,9.12792 -0.56405,6.01256 -1.11463,7.96112 -2.29809,8.13309 -0.85599,0.12439 -3.52801,1.17876 -5.93783,2.34306 -2.40983,1.1643 -4.63448,2.07965 -4.94367,2.03412 -0.30919,-0.0455 -5.77618,-2.85804 -12.14887,-6.25 z m 420.5867,-17.41234 c -12.35854,-8.66747 -21.79185,-12.81543 -41.29136,-18.15642 -27.44696,-7.51783 -34.27989,-8.48417 -55.07989,-7.78965 -20.39026,0.68085 -24.27963,1.42785 -49.75907,9.55693 -10.37832,3.31114 -22.27743,6.9921 -26.44245,8.17991 l -7.57278,2.15964 -18.55095,-6.05319 c -45.2968,-14.7804 -61.94793,-16.62293 -94.78231,-10.48812 -34.28875,6.40655 -62.95336,15.70776 -73.72246,23.92175 l -3.29873,2.51606 v -18.00409 -18.0041 l 4.75,-2.14282 c 11.87403,-5.3566 29.73252,-12.12856 38.33332,-14.53602 7.70368,-2.15635 12.23631,-2.72426 24.91668,-3.12188 14.03207,-0.44002 16.73117,-0.2326 28.5,2.19016 7.15,1.47191 25.88544,6.90093 41.63431,12.06449 15.74888,5.16355 33.61541,10.36267 39.70341,11.55358 l 11.06909,2.1653 11.91084,-2.64445 c 6.55096,-1.45444 22.64509,-6.03513 35.76472,-10.1793 31.8873,-10.07241 38.81898,-11.96082 52.79716,-14.38361 19.34813,-3.35355 28.32707,-2.59501 53.27555,4.50073 11.67009,3.31915 18.29576,5.86763 26.00271,10.00159 l 10.34221,5.5475 v 18.44557 c 0,10.14506 -0.1125,18.41532 -0.25,18.37834 -0.1375,-0.037 -3.85,-2.59202 -8.25,-5.6779 z M 112.08512,542.97089 c -6.72862,-4.43684 -7.53855,-9.559 -2.33438,-14.76317 2.73989,-2.73989 4.18112,-3.4 7.42327,-3.4 4.49566,0 9.67496,3.55004 11.25944,7.71754 1.21201,3.18784 -1.16839,7.75421 -5.38126,10.32294 -3.99613,2.43659 -7.40022,2.47467 -10.96707,0.12269 z m 411.02819,-0.72856 c -1.50559,-0.81692 -3.42964,-2.8239 -4.27568,-4.45996 -1.37507,-2.6591 -1.37801,-3.28452 -0.0277,-5.89581 3.8594,-7.46326 13.01754,-9.44823 18.46385,-4.00192 2.20984,2.20985 3.07692,4.01987 3.07692,6.42308 0,5.07014 -4.8495,9.51251 -10.32692,9.45996 -2.2952,-0.022 -5.40492,-0.70843 -6.91051,-1.52535 z M 479.60064,520.8235 c -3.4375,-1.59084 -6.25,-3.42702 -6.25,-4.0804 0,-1.87877 5.96744,-13.20298 8.26561,-15.68538 3.19614,-3.45236 9.61555,-2.56999 14.48439,1.99093 2.65617,2.48818 2.85736,5.65122 0.63982,10.05873 -1.88521,3.74695 -8.32781,10.72085 -9.84277,10.65445 -0.57588,-0.0252 -3.85955,-1.34749 -7.29705,-2.93833 z m -325.6252,-3.55612 c -1.99897,-2.61797 -4.17127,-6.55159 -4.82735,-8.74137 -1.13175,-3.77746 -1.05395,-4.10091 1.5188,-6.3139 3.58749,-3.08582 10.32236,-5.11068 12.52683,-3.76622 1.65404,1.00877 7.36156,10.98273 8.56369,14.96516 0.508,1.68291 -0.18826,2.64806 -3.4834,4.82868 -2.26506,1.49895 -5.5911,2.96437 -7.39119,3.25648 -2.97609,0.48295 -3.60247,0.0995 -6.90738,-4.22883 z m 161.7847,-27.94382 c -28.14875,-6.12455 -41.35585,-22.80671 -45.86846,-57.93735 -0.84224,-6.55683 -1.42103,-11.99073 -1.28619,-12.07533 0.13483,-0.0846 5.19515,-0.93977 11.24515,-1.90037 18.75143,-2.97731 41.46035,-4.01976 60.26406,-2.7664 13.5308,0.90189 35.76455,3.70322 37.00668,4.66264 0.14891,0.11501 -0.14873,2.41228 -0.66142,5.10504 -0.51268,2.69276 -1.46094,8.27093 -2.10724,12.39593 -1.73002,11.0419 -2.79194,14.35695 -8.51499,26.58154 -7.74447,16.54243 -14.3942,22.77 -27.6505,25.89509 -7.63883,1.8008 -14.27737,1.81241 -22.42709,0.0392 z"
       id="path9343-6" />
  </g>
</svg>
