<?xml version="1.0" encoding="UTF-8" standalone="no"?>
<!-- Created with Inkscape (http://www.inkscape.org/) -->

<svg
   version="1.1"
   id="svg854"
   width="1024"
   height="1024"
   viewBox="0 0 1024 1024"
   xmlns="http://www.w3.org/2000/svg"
   xmlns:svg="http://www.w3.org/2000/svg">
  <defs
     id="defs858" />
  <path
     style="display:inline;fill:#ffffff;fill-opacity:1;stroke:none;stroke-width:4.05073;stroke-miterlimit:4;stroke-dasharray:none;stroke-opacity:1"
     d="m 507.36079,1020.6245 c -2.22791,-1.7359 -8.91161,-6.493 -14.85268,-10.5712 -9.57674,-6.574 -24.71042,-17.5341 -72.91316,-52.80584 -7.42634,-5.43406 -24.74322,-18.00996 -38.48195,-27.94627 -13.73873,-9.93644 -31.66322,-23.32154 -39.83219,-29.74478 -15.34414,-12.06511 -31.83844,-23.54339 -39.49462,-27.48422 l -4.3883,-2.25868 0.13355,-55.66294 c 0.0734,-30.61458 0.52914,-58.83831 1.01268,-62.71941 l 0.87914,-7.05652 6.35025,6.40385 c 3.49264,3.52212 9.62516,8.52039 13.62781,11.10727 l 7.27752,4.7034 0.88186,16.87804 c 0.48501,9.28293 0.88431,28.81248 0.88732,43.39899 0.006,26.37159 0.0226,26.52525 3.04352,27.29488 1.67093,0.4256 12.2508,7.70166 23.51084,16.16891 11.26002,8.4671 27.96929,20.54612 37.1317,26.84203 16.34061,11.22849 39.19532,28.064 75.31395,55.47867 9.98126,7.57609 21.52585,16.16161 25.65463,19.07908 4.1288,2.91747 10.37732,7.66993 13.88557,10.5608 l 6.37867,5.25634 11.1745,-9.30653 c 11.39068,-9.48668 41.43992,-31.69468 52.19661,-38.57619 3.27284,-2.09382 16.6481,-11.85082 29.7228,-21.68222 13.07469,-9.83139 28.93684,-21.43633 35.24923,-25.78871 6.31239,-4.35237 20.15537,-14.52133 30.76219,-22.59754 10.60682,-8.07635 20.17667,-15.02632 21.26635,-15.44449 1.68586,-0.64691 1.98121,-7.37719 1.98121,-45.1464 v -44.38614 l 5.17094,-2.63802 c 2.84404,-1.45093 9.58283,-6.32415 14.97511,-10.82939 5.39226,-4.50526 10.44321,-8.19137 11.22431,-8.19137 0.93347,0 1.12289,2.84436 0.55271,8.29952 -0.4771,4.56474 -0.86747,33.44527 -0.86747,64.17896 0,51.98668 -0.1646,55.94006 -2.36293,56.75007 -4.12867,1.52118 -25.33877,16.17214 -47.96905,33.13484 -12.04833,9.03097 -28.36523,21.00493 -36.25977,26.60872 -7.89454,5.60391 -26.12282,18.83522 -40.50731,29.40304 -14.38448,10.56782 -33.44492,24.56275 -42.35653,31.09965 -16.43169,12.0531 -44.40904,31.3882 -45.37838,31.3608 -0.29144,-0.014 -2.35273,-1.4351 -4.58063,-3.171 z m -2.70048,-69.77166 -8.10147,-4.97497 -0.0639,-37.25283 -0.0639,-37.25281 17.95683,-0.4071 17.95684,-0.40724 -0.003,35.28174 -0.003,35.2816 -7.71677,5.90083 c -4.24422,3.24545 -8.64939,6.55435 -9.78927,7.35329 -1.60602,1.12556 -3.89598,0.33284 -10.17396,-3.52251 z m -69.87512,-50.58689 -17.21561,-12.77262 v -19.04681 -19.04694 l 6.04724,5.32306 c 3.32598,2.9276 11.51918,8.9035 18.20711,13.27965 l 12.15986,7.95658 0.0308,9.4517 c 0.0169,5.19844 0.41813,13.55308 0.89156,18.56585 0.69065,7.31279 0.4886,9.10902 -1.02229,9.08822 -1.03567,-0.0148 -9.63006,-5.77363 -19.09865,-12.79869 z m 135.36193,-7.46238 v -20.28715 l 3.49559,-1.32905 c 4.55568,-1.73195 21.28807,-12.5127 28.46238,-18.33832 3.09552,-2.51362 5.98167,-4.57018 6.41366,-4.57018 1.15464,0 0.91798,35.5291 -0.24792,37.22082 -0.5456,0.79165 -4.03005,3.48012 -7.74323,5.97428 -3.71316,2.49418 -11.39734,8.37827 -17.07592,13.07577 -5.67858,4.6975 -10.99517,8.54083 -11.81463,8.54083 -1.0203,0 -1.48993,-6.39448 -1.48993,-20.287 z m -200.18113,-38.01395 -13.15738,-9.48209 v -28.21968 c 0,-15.52082 0.4843,-28.21967 1.07622,-28.21967 0.59192,0 3.47807,2.46259 6.41365,5.47243 2.9356,3.00982 8.1382,7.27164 11.56134,9.47069 l 6.22391,3.99828 0.97799,27.77293 c 0.53788,15.27506 0.7718,27.9791 0.51981,28.23105 -0.25199,0.2521 -6.37898,-3.80877 -13.61554,-9.02394 z m 270.8596,-8.74958 c 0.48645,-10.14296 0.88445,-23.4658 0.88445,-29.60626 v -11.16449 l 7.08877,-4.14742 c 3.89883,-2.28107 9.97493,-6.33335 13.50244,-9.00505 l 6.41366,-4.85762 -0.0207,28.14692 c -0.0108,15.48082 -0.46707,28.75546 -1.01268,29.4993 -0.54561,0.74385 -2.69413,2.23034 -4.77449,3.30338 -2.08038,1.0729 -7.5036,5.17332 -12.05163,9.11198 -4.54803,3.93853 -8.86429,7.16102 -9.59172,7.16102 -0.8419,0 -1.00113,-6.70261 -0.43813,-18.44176 z m -143.90885,-25.7787 c -0.37328,-11.69648 -0.60652,-21.29147 -0.5183,-21.32222 1.72251,-0.60013 32.46589,1.7072 32.22869,2.41881 -0.18567,0.55698 -0.33757,9.82303 -0.33757,20.59121 v 19.57852 H 512.9425 497.59546 Z m -44.36226,18.10756 c -1.92338,-1.02187 -11.79705,-8.43365 -21.94146,-16.47078 l -18.44441,-14.61297 v -7.67943 c 0,-4.2237 -1.23859,-20.064 -2.75242,-35.20069 -1.51384,-15.13668 -3.94197,-40.28104 -5.39586,-55.87636 -1.45389,-15.59531 -3.56386,-35.95023 -4.68883,-45.23316 -3.75584,-30.99215 -2.97872,-28.15713 -8.33139,-30.39363 -2.63717,-1.10187 -11.86481,-6.18107 -20.50586,-11.28708 -8.64104,-5.10603 -20.87568,-11.86031 -27.18807,-15.00951 -10.8126,-5.39434 -36.76658,-20.51631 -42.39959,-24.70394 -2.37564,-1.76607 -1.21589,-2.72135 15.52781,-12.79021 9.95236,-5.98488 21.52771,-12.39703 25.723,-14.24924 7.39495,-3.26483 7.74584,-3.29587 11.49337,-1.01687 10.7253,6.52244 30.32838,9.15865 50.61867,6.80715 18.99907,-2.20185 26.33962,-6.28639 46.42543,-25.8328 9.04281,-8.79998 16.84433,-15.99994 17.33671,-15.99994 0.49236,0 0.73254,31.29203 0.53368,69.53784 l -0.36154,69.53786 43.54536,-3.1e-4 43.54536,-2.9e-4 0.11868,-13.84 c 0.0653,-7.612 1.58602,-50.68258 0.69258,-79.32682 -0.89345,-28.64424 -1.99925,-76.78294 -2.77207,-98.51421 -2.1145,-1.75487 -21.31956,-10.18928 -22.96358,-10.19055 -0.81815,33.84595 -2.72019,74.88965 -3.23704,108.95362 l -0.86881,63.76205 -13.50244,-0.39199 c -7.42634,-0.21559 -13.80624,-0.69324 -14.17756,-1.06144 -0.37131,-0.36821 -1.04339,-31.75925 -1.49351,-69.75785 -1.19535,-38.42197 -1.19375,-81.59145 -3.09809,-117.36992 l -13.19357,-6.45194 c -7.25646,-3.54858 -13.97037,-6.7181 -14.91981,-7.04338 -1.18713,-0.40673 -0.16822,-2.87053 3.2626,-7.88924 2.74386,-4.01379 9.79557,-15.50054 15.67047,-25.5261 11.6155,-19.82192 11.92805,-20.05653 21.45704,-16.10651 3.99877,1.65759 6.78859,1.07834 38.69027,-8.03327 53.90189,-15.39519 62.74575,-16.99915 93.37482,-16.9348 22.13196,0.0464 27.23057,0.46878 37.13171,3.07553 21.00112,5.52913 54.14572,16.52708 54.72915,18.16009 0.3165,0.88586 0.73982,46.93324 0.94071,102.3275 l 0.36526,100.71681 -5.61344,2.32127 c -5.42935,2.24515 -29.60026,16.64074 -50.42168,30.0299 -16.29306,10.47719 -39.09544,23.20851 -43.17067,24.10358 -4.51181,0.99096 -4.28641,-0.0975 -8.11038,39.16523 -1.51889,15.59531 -3.66065,35.64643 -4.75944,44.55804 -3.44583,27.94685 -7.47279,75.57976 -7.10164,84.0019 0.24672,5.5988 -0.26049,8.8167 -1.65455,10.49669 -2.81849,3.3966 -33.28113,23.64406 -37.61988,25.00463 -1.96766,0.61699 -7.16661,1.44146 -11.55324,1.83208 l -7.97565,0.71037 0.89607,-28.83178 c 0.49286,-15.85748 1.24096,-30.55795 1.66245,-32.66772 l 0.76636,-3.83593 h -44.06167 -44.06168 l 0.26205,33.08096 0.26204,33.08095 -6.59739,0.36214 c -3.70654,0.20348 -8.12972,-0.45194 -10.09443,-1.49553 z M 583.35732,716.79465 c -0.21058,-7.51682 -0.83859,-13.51504 -1.39557,-13.32939 -0.55697,0.18566 -32.30458,0.33757 -70.55023,0.33757 h -69.53755 v 13.5716 13.57161 l 70.93312,-0.24222 70.93312,-0.24223 z m 78.74409,-193.98914 c 7.8121,-2.27165 19.61261,-8.19519 27.33622,-13.72206 2.30558,-1.64982 2.53959,-4.82458 3.09088,-41.93278 0.32804,-22.08129 0.19901,-40.14781 -0.28673,-40.14781 -0.48575,0 -6.43372,1.49478 -13.2177,3.32172 -6.78399,1.82695 -18.41063,4.27966 -25.83697,5.45048 -7.42634,1.17082 -21.70517,4.28269 -31.73073,6.91526 -31.89516,8.37523 -41.67429,14.16378 -44.29115,18.39063 -2.61688,4.22683 -2.55145,4.08611 -3.21604,7.01084 -0.93355,4.2685 -0.45811,7.44033 2.42876,16.20292 1.97425,5.99251 4.49541,12.71829 5.60259,14.9462 3.42263,6.88721 15.85463,21.68211 20.26388,23.46571 4.40924,1.78361 31.23663,4.05474 42.16611,3.29839 4.82712,-0.33404 12.788,-1.77382 17.69088,-3.1995 z m -35.47709,-14.77578 c -11.216,-7.42917 -13.82067,-21.40381 -5.91998,-31.76213 11.07703,-14.52275 25.30961,-12.97521 33.62697,3.65634 4.75061,9.49942 4.11864,16.39844 -2.1569,23.54588 -8.35605,9.51702 -16.00523,10.88217 -25.55009,4.55991 z m 22.51206,-116.90187 v -11.38588 l -10.84362,9.7e-4 -10.84362,9.7e-4 -0.27459,11.81463 -0.27457,11.81463 11.1182,-0.42993 11.1182,-0.42992 z m -48.21116,10.42045 c 1.01925,-0.64659 2.08589,-5.1408 2.55876,-10.78126 l 0.8109,-9.67247 h -10.99777 -10.99779 v 10.80195 10.80194 l 8.43902,-0.0206 c 4.64146,-0.0108 9.22556,-0.51964 10.18688,-1.12949 z m 86.20644,-0.20007 h 4.5374 v -10.80196 -10.80195 h -10.80195 -10.80196 v 11.6606 11.66062 l 6.26456,-0.85867 c 3.44551,-0.47224 8.30638,-0.85864 10.80195,-0.85864 z m 145.63786,402.79548 c -15.35435,-18.99885 -23.70096,-28.55155 -39.30177,-44.98091 -8.47151,-8.92142 -17.55863,-20.12354 -21.35858,-26.32975 -3.63761,-5.94107 -9.217,-14.02195 -12.39865,-17.95751 -7.04092,-8.70933 -8.01758,-13.40044 -7.78695,-37.40248 0.17505,-18.21622 4.39147,-51.23063 7.38084,-57.79157 1.70787,-3.74839 5.70677,-5.61482 10.23443,-4.77678 6.00573,1.11164 43.14321,86.15341 57.69023,132.10591 7.23368,22.85043 15.96428,59.79667 15.39033,65.12901 -0.36945,3.43248 -1.07976,2.85587 -9.84988,-7.99592 z m -645.47711,-5.82384 c 0.46706,-1.85658 2.38662,-10.05932 4.26567,-18.22829 6.82683,-29.67874 13.4434,-49.86879 25.88587,-78.98926 8.622,-20.17897 28.64544,-60.76096 29.9799,-60.76096 0.66452,0 6.45086,2.50296 12.85851,5.56215 13.35232,6.37474 14.16139,7.59428 14.16139,21.34611 0,8.50003 -0.60783,10.41696 -8.21384,25.9043 -4.51761,9.19875 -14.99888,27.85296 -23.29171,41.4538 -12.98166,21.29089 -16.75323,26.35926 -27.12869,36.45658 -11.98285,11.66161 -15.13094,14.90661 -24.47684,25.23021 -4.27934,4.72701 -4.78351,4.97973 -4.04026,2.02536 z m 456.36766,-31.39316 c 0.35819,-1.67093 1.32609,-11.84839 2.1509,-22.61659 1.25926,-16.44018 4.79774,-50.05663 8.83935,-83.9761 0.50616,-4.24801 1.68905,-7.98398 2.64395,-8.3504 0.95038,-0.3647 6.18736,-3.48138 11.63772,-6.92594 5.45037,-3.44457 19.02389,-11.9423 30.1634,-18.88386 l 20.25366,-12.621 0.40283,7.24757 c 0.22156,3.98616 -0.86164,19.21429 -2.40713,33.84028 -1.54549,14.62599 -2.85272,34.86079 -2.90498,44.96621 l -0.0949,18.37349 -9.84488,6.459 c -5.41466,3.55246 -20.79103,15.24894 -34.16968,25.99219 -13.37873,10.74326 -24.99913,19.5332 -25.82318,19.5332 -0.84657,0 -1.21501,-1.32146 -0.84705,-3.03805 z M 359.50911,753.4347 c -10.02557,-8.12942 -25.06391,-19.96249 -33.41853,-26.29571 -15.02866,-11.39247 -15.19039,-11.57424 -15.2033,-17.08801 -0.007,-3.06516 -0.57341,-15.59859 -1.25823,-27.85206 -0.68485,-12.25346 -1.64429,-31.87794 -2.13212,-43.60997 l -0.88696,-21.33095 16.66031,10.92926 c 9.16315,6.01109 23.49589,14.38258 31.85053,18.60329 l 15.19024,7.67405 v 6.49914 c 0,3.57454 0.88183,14.82753 1.95963,25.00668 2.15609,20.3628 6.53719,81.39997 5.87994,81.91883 -0.22728,0.17942 -8.61596,-6.32512 -18.64151,-14.45455 z m -126.3882,-256.89708 -0.14042,-83.03719 h 14.65554 14.65552 l 0.2436,23.96682 c 0.25242,24.83429 0.23041,60.36458 -0.0694,112.07023 l -0.17421,30.04292 -14.51511,-0.003 -14.51512,-0.003 -0.14041,-83.03717 z m 528.70932,81.35498 c -0.0283,-0.18566 -0.36894,-37.21127 -0.75694,-82.27914 l -0.70542,-81.94158 14.96338,-0.42328 14.96335,-0.42329 -0.14009,82.70242 -0.1401,82.70243 h -14.06635 c -7.73649,0 -14.08951,-0.1519 -14.11783,-0.33756 z M 176.97712,529.62139 c -0.23432,-12.25347 -0.22719,-37.3381 0.0158,-55.74364 l 0.4419,-33.46462 13.73566,0.38365 13.73572,0.38365 v 55.32149 55.3215 l -13.75152,0.0385 -13.75152,0.0385 -0.42604,-22.27902 z M 818.88499,496.026 c 0.21015,-29.67135 0.6859,-54.23983 1.05721,-54.59663 0.37132,-0.35682 6.31019,-0.32176 13.19749,0.0779 l 12.52238,0.72662 -0.37019,53.48303 -0.37016,53.483 -13.20941,0.38699 -13.2094,0.38699 z M 291.68392,459.20619 c -0.19918,-37.39163 -0.0584,-70.09922 0.313,-72.68354 0.55089,-3.83418 -0.6628,-4.21643 8.0325,-10.98655 8.69528,-6.77012 13.88601,-9.85624 25.72359,-12.62272 38.8142,-8.91083 41.04121,-9.20763 70.21267,-9.35704 26.76756,-0.13709 45.90829,1.80776 45.90829,4.66463 0,0.61877 -2.05718,4.65134 -4.57151,8.96127 -2.51432,4.30994 -7.0914,13.91234 -10.17128,21.33868 -3.07988,7.42634 -6.45519,15.4223 -7.5007,17.7688 l -1.90093,4.26638 -9.86925,-3.08607 c -5.42808,-1.69733 -12.60349,-4.22481 -15.94535,-5.61661 -8.85636,-3.68847 -52.10838,-3.42045 -64.13657,0.3974 l -8.10146,2.57149 -0.84498,9.40247 c -0.46473,5.17137 -0.92043,26.77468 -1.01268,48.00738 -0.12786,29.41774 0.27779,40.08521 1.70429,44.82512 2.32912,7.73907 1.7092,8.41005 -13.34907,14.44844 -5.94108,2.38239 -11.55042,4.63617 -12.4652,5.00843 -1.30163,0.52968 -1.74197,-14.10418 -2.02536,-67.30796 z M 189.26133,380.64523 C 132.22471,350.28655 86.901745,314.24431 53.968774,273.05636 41.701932,257.71468 8.4457394,207.1555 8.4457394,203.84794 c 0,-0.35221 2.4607516,-1.03387 5.4683246,-1.51481 C 22.669368,200.9331 62.706782,187.14237 81.015533,179.2203 107.30718,167.84409 130.38301,153.77453 177.2262,120.55975 229.17063,83.72786 246.15743,72.118222 262.96668,61.960325 284.43032,48.989749 337.74848,22.544983 356.13349,15.75138 370.24188,10.538076 394.99893,2.663806 402.16722,1.10981 L 406.3434,0.20447196 406.3226,32.333452 c -0.0224,34.742068 1.79306,52.724627 7.922,78.466418 6.29012,26.41864 18.81016,52.99588 34.20071,72.60045 12.86595,16.38872 34.45207,29.96572 54.10293,34.02908 9.22486,1.9075 11.88692,1.97198 19.23658,0.46602 38.31511,-7.85088 74.41818,-51.1893 88.18749,-105.86098 6.68017,-26.523911 7.58671,-34.607506 8.38393,-74.758487 L 619.08369,0.63775096 636.13539,5.07476 c 17.94126,4.668481 23.08737,6.50862 46.06638,16.472393 48.20639,20.90242 90.09477,45.683983 147.20461,87.087627 67.37666,48.84691 82.05777,57.71615 120.83434,72.99907 17.47937,6.88911 53.22428,18.76513 61.68708,20.49516 l 3.6265,0.74135 -12.4906,20.61591 c -13.1293,21.6702 -25.84634,40.04217 -38.36074,55.41893 -9.641,11.84607 -39.95396,40.90938 -52.21529,50.06269 -26.86298,20.05371 -33.70191,24.78153 -47.98742,33.17409 -24.71947,14.52238 -40.58132,22.62364 -49.04646,25.04991 -4.32522,1.2397 -8.22126,1.89675 -8.65787,1.46014 -0.43661,-0.43662 -1.23921,-5.80941 -1.78355,-11.93955 -0.54432,-6.13015 -1.4004,-12.96853 -1.90236,-15.19643 -0.89956,-3.9925 -0.71233,-4.15578 13.02317,-11.35834 7.66473,-4.01918 18.18912,-10.0393 23.38756,-13.37802 5.19844,-3.33874 12.48975,-7.86776 16.20292,-10.06451 17.55077,-10.38315 47.28559,-35.17572 62.0089,-51.70234 10.56484,-11.85879 40.66456,-50.4921 39.7242,-50.98642 -0.25566,-0.13436 -5.6295,-1.96167 -11.94189,-4.0606 -17.65983,-5.87209 -53.54676,-24.0566 -71.90537,-36.43565 -21.05941,-14.2002 -50.86822,-35.1496 -66.49465,-46.73197 C 760.89019,102.5363 726.5393,82.317598 680.19198,62.092257 651.39,49.52346 654.42543,49.296389 653.38361,64.097747 c -1.93794,27.532752 -10.36114,67.484303 -19.15241,90.840543 -8.17229,21.71176 -21.14177,42.66258 -36.22415,58.51628 -6.68436,7.02618 -28.46536,22.80996 -38.24672,27.7158 -19.56575,9.81317 -47.25853,13.85474 -67.25222,9.81504 -22.7705,-4.60078 -53.95271,-24.00483 -70.99524,-44.17886 -27.85027,-32.96767 -45.46979,-80.51813 -49.99291,-134.917776 -0.8336,-10.025558 -1.72509,-18.971504 -1.98111,-19.87988 -0.61499,-2.181981 -12.403,2.81141 -48.5117,20.549494 -32.49849,15.964601 -50.22043,26.226251 -72.23803,41.828442 -8.5403,6.05185 -29.19902,20.70208 -45.90829,32.55608 -54.4345,38.61725 -88.41935,58.94176 -116.012666,69.38097 -9.874359,3.73571 -18.763256,6.79218 -19.753093,6.79218 -3.538273,0 -3.114755,2.35075 1.722506,9.56095 6.703163,9.99141 32.452233,39.88187 47.083553,54.65632 20.66545,20.86762 55.6865,44.99829 90.99123,62.69602 8.98534,4.5042 16.60992,8.93135 16.94354,9.83807 0.33361,0.90674 0.15588,6.45296 -0.39498,12.32492 -0.7616,8.11842 -1.50502,10.74945 -3.10298,10.98166 -1.15579,0.16795 -4.76367,1.59161 -8.01752,3.1637 -3.25386,1.57208 -6.25767,2.80803 -6.67515,2.74656 -0.41748,-0.0615 -7.79925,-3.85906 -16.40394,-8.43903 z m 567.89454,-23.5109 c -16.68704,-11.70319 -29.4243,-17.30395 -55.7534,-24.5156 -37.06008,-10.1509 -46.28621,-11.45569 -74.37127,-10.51791 -27.53182,0.9193 -32.78342,1.92794 -67.18687,12.90417 -14.01327,4.47085 -30.07996,9.44104 -35.70375,11.04487 l -10.2251,2.91605 -25.0483,-8.17329 c -61.16172,-19.95713 -83.64481,-22.445 -127.97922,-14.16151 -46.29818,8.6504 -85.00238,21.2093 -99.54329,32.30019 l -4.45409,3.3973 v -24.30992 -24.30991 l 6.41366,-2.89334 c 16.03283,-7.23271 40.14614,-16.37651 51.75933,-19.62717 10.40184,-2.91159 16.522,-3.67841 33.64358,-4.21529 18.94671,-0.59414 22.59116,-0.31407 38.48194,2.95725 9.65425,1.98743 34.95166,9.31794 56.21647,16.29 21.26483,6.97205 45.389,13.99213 53.60928,15.60015 l 14.94597,2.92368 16.08254,-3.57066 c 8.84539,-1.96384 30.57639,-8.14889 48.29109,-13.74453 43.05562,-13.60021 52.41508,-16.15002 71.28903,-19.42138 26.12469,-4.52811 38.24845,-3.50389 71.93497,6.07708 15.75747,4.48166 24.70374,7.92274 35.11,13.50459 l 13.9645,7.49048 v 24.90601 c 0,13.6983 -0.1519,24.86517 -0.33755,24.81523 -0.18567,-0.0499 -5.19844,-3.49985 -11.13952,-7.66654 z M 226.8267,219.28565 c -9.08527,-5.99081 -10.17888,-12.90698 -3.15198,-19.93387 3.69952,-3.69953 5.64553,-4.59084 10.02323,-4.59084 6.07024,0 13.06355,4.79342 15.20299,10.42057 1.6365,4.30436 -1.57762,10.47007 -7.26602,13.93849 -5.39575,3.28998 -9.9921,3.3414 -14.80822,0.16565 z m 554.98823,-0.98373 c -2.03292,-1.10304 -4.63085,-3.81295 -5.77321,-6.02203 -1.85668,-3.59044 -1.86065,-4.4349 -0.0374,-7.96078 5.21113,-10.07723 17.57685,-12.75741 24.9307,-5.40357 2.98382,2.98384 4.15459,5.4278 4.15459,8.67272 0,6.84593 -6.54801,12.84421 -13.94386,12.77326 -3.09908,-0.0297 -7.29796,-0.95656 -9.33088,-2.0596 z m -58.75271,-28.92064 c -4.64146,-2.14802 -8.43902,-4.62731 -8.43902,-5.50954 0,-2.53679 8.05749,-17.82724 11.16059,-21.17908 4.31556,-4.66153 12.98333,-3.47011 19.55745,2.68825 3.58648,3.35964 3.85814,7.63051 0.86391,13.58173 -2.54549,5.0593 -11.24457,14.47576 -13.29013,14.3861 -0.77758,-0.034 -5.21133,-1.81944 -9.8528,-3.96746 z m -439.67338,-4.80163 c -2.6991,-3.5349 -5.63223,-8.84624 -6.5181,-11.80298 -1.52813,-5.10049 -1.42308,-5.53722 2.05075,-8.5253 4.84399,-4.16661 13.9377,-6.90067 16.91428,-5.08532 2.23335,1.36209 9.9399,14.82936 11.56307,20.20662 0.68592,2.27233 -0.2542,3.57552 -4.70344,6.51989 -3.05838,2.02395 -7.54935,4.00262 -9.97991,4.39704 -4.01845,0.6521 -4.86421,0.13435 -9.32665,-5.70995 z m 218.44878,-37.73096 c -38.00768,-8.26964 -55.84048,-30.79462 -61.9336,-78.229544 -1.13723,-8.853318 -1.91874,-16.190407 -1.73667,-16.304638 0.18205,-0.11423 7.01471,-1.268919 15.18369,-2.565963 25.319,-4.020094 55.98157,-5.427655 81.37117,-3.735314 18.26988,1.217771 48.29086,5.00025 49.96803,6.2957 0.20107,0.155292 -0.20082,3.257166 -0.89307,6.893048 -0.69225,3.635883 -1.97262,11.167772 -2.84529,16.737527 -2.33595,14.909253 -3.7698,19.385383 -11.49732,35.891554 -10.45692,22.33631 -19.43567,30.74505 -37.33491,34.96468 -10.31428,2.43152 -19.27792,2.4472 -30.28203,0.0529 z"
     id="path9343-6" />
</svg>
