<?xml version="1.0" encoding="UTF-8" standalone="no"?>
<!-- Created with Inkscape (http://www.inkscape.org/) -->

<svg
   version="1.1"
   id="svg854"
   width="1024"
   height="1024"
   viewBox="0 0 1024 1024"
   sodipodi:docname="logo.inkscape.svg"
   inkscape:version="1.1.2 (0a00cf5339, 2022-02-04)"
   inkscape:export-filename="/space/projects/corsair/docs/assets/logo.png"
   inkscape:export-xdpi="96"
   inkscape:export-ydpi="96"
   xmlns:inkscape="http://www.inkscape.org/namespaces/inkscape"
   xmlns:sodipodi="http://sodipodi.sourceforge.net/DTD/sodipodi-0.dtd"
   xmlns="http://www.w3.org/2000/svg"
   xmlns:svg="http://www.w3.org/2000/svg">
  <defs
     id="defs858" />
  <sodipodi:namedview
     id="namedview856"
     pagecolor="#ffffff"
     bordercolor="#666666"
     borderopacity="1.0"
     inkscape:pageshadow="2"
     inkscape:pageopacity="0.0"
     inkscape:pagecheckerboard="true"
     showgrid="false"
     inkscape:snap-bbox="true"
     inkscape:bbox-paths="false"
     inkscape:bbox-nodes="true"
     inkscape:snap-bbox-edge-midpoints="false"
     inkscape:snap-bbox-midpoints="false"
     showguides="true"
     inkscape:guide-bbox="true"
     inkscape:zoom="0.40523976"
     inkscape:cx="330.66844"
     inkscape:cy="756.34237"
     inkscape:window-width="1920"
     inkscape:window-height="1009"
     inkscape:window-x="0"
     inkscape:window-y="0"
     inkscape:window-maximized="1"
     inkscape:current-layer="layer1"
     inkscape:snap-global="true"
     inkscape:snap-nodes="false">
    <sodipodi:guide
       position="0,1024"
       orientation="0,1"
       id="guide5208"
       inkscape:label=""
       inkscape:locked="false"
       inkscape:color="rgb(0,0,255)" />
    <sodipodi:guide
       position="0,1024"
       orientation="1,0"
       id="guide5210" />
    <sodipodi:guide
       position="512,512"
       orientation="-1,0"
       id="guide11598"
       inkscape:label=""
       inkscape:locked="false"
       inkscape:color="rgb(0,0,255)" />
    <sodipodi:guide
       position="512,512"
       orientation="0,-1"
       id="guide11600" />
    <sodipodi:guide
       position="1024,0"
       orientation="0,1"
       id="guide5120"
       inkscape:label=""
       inkscape:locked="false"
       inkscape:color="rgb(0,0,255)" />
    <sodipodi:guide
       position="1024,0"
       orientation="1,0"
       id="guide5122" />
  </sodipodi:namedview>
  <g
     inkscape:groupmode="layer"
     id="layer3"
     inkscape:label="background"
     style="display:inline">
    <rect
       style="display:none;fill:#ff6e42;fill-opacity:1;stroke:none;stroke-width:3;stroke-linecap:round;stroke-linejoin:round"
       id="rect5126"
       width="1024"
       height="1024"
       x="1.5"
       y="1.5"
       inkscape:label="deep-orange"
       sodipodi:insensitive="true" />
    <rect
       style="display:inline;fill:#000000;fill-opacity:1;stroke:none;stroke-width:3;stroke-linecap:round;stroke-linejoin:round"
       id="rect5126-7"
       width="1024"
       height="1024"
       x="0"
       y="0"
       inkscape:label="black"
       sodipodi:insensitive="true" />
    <rect
       style="display:none;fill:#ffffff;fill-opacity:1;stroke:none;stroke-width:3;stroke-linecap:round;stroke-linejoin:round"
       id="rect5126-7-5"
       width="1024"
       height="1024"
       x="0"
       y="0"
       inkscape:label="white"
       sodipodi:insensitive="true" />
  </g>
  <g
     inkscape:groupmode="layer"
     inkscape:label="vectorized-inv"
     id="g9345"
     style="display:none">
    <path
       id="path840"
       style="color:#000000;display:inline;fill:#000000;-inkscape-stroke:none"
       d="m 566.94068,101.10826 -0.89063,44.87305 c -0.17044,-0.0289 -0.33536,-0.0686 -0.50976,-0.0977 -3.01848,-0.50294 -6.55147,-0.99594 -10.47461,-1.49023 -7.84628,-0.98859 -17.00165,-1.94643 -24.57422,-2.45118 -21.05428,-1.40337 -44.90152,-0.30625 -65.84766,3.01954 -2.25813,0.35853 -4.08247,0.66163 -5.90234,0.96289 l 0.0293,-43.96875 -33.41016,7.24218 c -10.75032,2.33054 -25.77016,7.50622 -37.46094,11.82618 -18.66081,6.89551 -54.55788,24.97217 -73.26562,36.27734 -13.28475,8.02803 -26.48315,17.06873 -65.0293,44.40039 -34.24957,24.28511 -49.25261,33.33536 -66.72265,40.89453 -5.53663,2.39566 -16.22125,6.4077 -25.71485,9.67774 -9.4936,3.27003 -21.52892,6.26156 -18,5.69726 -1.88246,0.30103 -3.52863,0.62096 -5.58789,1.19141 -1.02963,0.28522 -2.04739,0.53415 -4.17969,1.46289 -1.06614,0.46437 -2.36945,0.94328 -4.9707,2.83789 -2.60125,1.89461 -10.36523,5.72843 -10.36523,20.3164 0,10.62665 1.801,9.58156 2.42773,10.99415 0.62674,1.41258 1.12184,2.34477 1.64844,3.32031 1.05319,1.95107 2.19809,3.88975 3.55078,6.11523 2.70538,4.45096 6.17484,9.87536 9.9375,15.59571 7.52531,11.44068 15.59896,23.30721 21.625,30.84375 25.81135,32.28122 60.40743,59.92531 102.52344,83.08789 l -16.22071,-0.45313 -0.66211,50.15234 c -0.18174,13.76631 -0.1894,31.79346 -0.01,41.61329 0.002,0.11292 -0.002,0.36782 0,0.47851 l 0.78515,41.0918 34.78125,-0.0977 6.1211,-0.0176 0.0351,20.53711 19.41016,0.004 c -0.75303,1.0061 -1.28897,1.92886 -1.78711,2.42773 -1.61,1.6124 -2.15866,2.4256 -2.66406,3.11329 -1.0108,1.37536 -1.43683,2.11055 -1.9043,2.88671 -0.93494,1.55234 -1.72652,3.002 -2.65039,4.73243 -1.84774,3.46086 -4.06243,7.8285 -6.45508,12.67773 -4.78528,9.69846 -10.13432,21.00959 -13.69531,29.34375 -9.59723,22.46143 -15.25311,39.7133 -20.54492,62.71875 -1.37742,5.98816 -2.99173,12.80994 -3.04102,13.00586 -0.28018,1.11374 -1.15867,1.30155 -0.95507,8.03516 0.10179,3.3668 -0.15973,12.58489 11.05273,20.17578 5.60623,3.79544 12.59947,4.6494 16.92969,4.1582 4.33022,-0.4912 6.7777,-1.66492 8.52148,-2.53906 6.97511,-3.49657 6.51293,-4.55585 7.55078,-5.60156 1.03785,-1.04572 1.78807,-1.87746 2.66992,-2.85157 6.79635,-7.50732 8.2495,-9.00249 17.03125,-17.54883 6.75736,-6.5762 11.81018,-12.86531 18.48438,-23.15625 -0.0448,1.9926 -0.094,3.69454 -0.13281,6.09766 -0.13843,8.57333 -0.23622,19.55186 -0.26367,30.99414 l -0.13672,56.51367 16.8457,8.66993 c 1.09769,0.565 14.66106,9.46246 25.23828,17.77929 6.75249,5.30946 19.85576,15.0791 30.30274,22.63477 10.14166,7.33484 23.00132,16.67312 28.38867,20.61523 35.7199,26.13754 46.96308,34.29346 54.61328,39.54492 4.13431,2.83799 9.78793,6.94119 9.7832,6.9375 1.15352,0.89878 2.21429,1.68877 3.36914,2.48829 0.57743,0.39976 1.12931,0.78272 2.09961,1.36718 0.48515,0.29223 1.02972,0.62718 2.19531,1.19532 1.1656,0.56813 0.59095,2.29574 10.39844,2.56835 10.80945,0.30397 9.77166,-1.65399 10.91797,-2.16015 1.14677,-0.50636 1.65713,-0.79603 2.11328,-1.04492 0.91231,-0.4978 1.41387,-0.80952 1.95313,-1.14258 1.0785,-0.66612 2.12057,-1.34502 3.35742,-2.16406 2.47371,-1.63809 5.59248,-3.76235 9.07617,-6.16993 6.96737,-4.81514 15.27151,-10.68206 21.67188,-15.37695 6.61307,-4.85092 20.72652,-15.2127 31.38476,-23.04297 10.55598,-7.75514 24.15769,-17.62431 29.66992,-21.53711 6.29496,-4.4684 18.27207,-13.26521 27.37696,-20.08984 8.14476,-6.10498 16.06806,-11.81507 22.11523,-15.99219 3.02358,-2.08856 5.59858,-3.80374 7.31641,-4.89258 1.71783,-1.08883 4.67952,-2.01961 -0.25586,-0.20117 3.25158,-1.1984 8.8464,-4.7796 11.91406,-8.8789 3.06804,-4.09981 4.06043,-7.54128 4.6543,-9.91407 1.18772,-4.74557 1.11027,-7.02318 1.25195,-10.42578 0.28335,-6.8052 0.28516,-16.99036 0.28516,-36.26758 0,-11.27493 0.0731,-22.23096 0.1875,-30.69726 0.005,-0.33918 0.008,-0.23085 0.0137,-0.57031 2.0021,2.2664 3.91647,4.54273 6.0625,6.80273 11.28799,11.88748 16.63037,18.00034 27.79297,31.8125 3.31893,4.10672 3.17679,5.35561 9.66797,10.625 1.62279,1.31735 3.72211,3.4526 9.92187,5.10352 6.19976,1.65092 18.94868,-0.95333 24.60352,-6.68555 11.30966,-11.46444 7.23475,-14.60116 7.40234,-16.1582 0.57836,-5.37332 0.0396,-6.40482 -0.20313,-8.32422 -0.24271,-1.91941 -0.55139,-3.74928 -0.92382,-5.75 -0.74486,-4.00144 -1.74991,-8.60266 -2.93164,-13.60352 -2.36347,-10.00172 -5.38797,-21.38061 -8.36329,-30.7793 -5.89501,-18.62173 -15.59464,-43.07721 -24.6582,-63.83203 -4.53178,-10.3774 -8.85059,-19.70044 -12.63476,-27.05273 -0.30111,-0.58503 -0.59187,-1.01143 -0.88477,-1.57031 h 11.74023 l 0.0352,-21.0293 6.62109,-0.19336 33.88282,-0.99414 0.4414,-63.71875 0.43946,-63.36524 -21.3125,-1.23632 c 6.4667,-3.38129 13.61463,-7.56841 22.76367,-12.94336 11.11091,-6.52753 17.8166,-11.14795 37.83203,-26.08985 13.58116,-10.13859 32.40747,-28.18524 43.10547,-41.33007 10.18817,-12.51843 20.21633,-27.05693 30.40234,-43.86915 l 27.63281,-45.61132 -37.44335,-7.6543 c 1.09713,0.22428 -8.75934,-2.49696 -17.4629,-5.38867 -8.70355,-2.89171 -18.43905,-6.34029 -24.0625,-8.55664 -27.6511,-10.89807 -34.3177,-15.03745 -83.98437,-51.04492 -43.16114,-31.29109 -76.28085,-50.94664 -113.75,-67.19336 -17.23753,-7.47426 -24.05631,-9.88974 -37.76563,-13.45704 z"
       sodipodi:nodetypes="cccssscccssssscsssssssssccssccccccssssssssssssssscscccsssscssscssssssssssscssssccssssssssssssccccccccssscccsssscc"
       inkscape:label="external-under"
       sodipodi:insensitive="true" />
    <path
       style="fill:#ffffff;fill-opacity:1;stroke:none;stroke-width:3;stroke-miterlimit:4;stroke-dasharray:none;stroke-opacity:1"
       d="m 508.56417,888.69082 c -1.65,-1.28561 -6.6,-4.80869 -11,-7.82906 -7.0926,-4.8687 -18.30071,-12.98593 -54,-39.10838 -5.5,-4.02454 -18.325,-13.33831 -28.5,-20.69726 -10.175,-7.35896 -23.45,-17.27208 -29.5,-22.02917 -11.36398,-8.93546 -23.57977,-17.43638 -29.25,-20.35498 l -3.25,-1.67285 0.0989,-41.22432 c 0.0544,-22.67338 0.39189,-43.57607 0.75,-46.45044 l 0.6511,-5.22611 4.70304,4.74274 c 2.58668,2.60851 7.12846,6.31026 10.09285,8.22612 l 5.38979,3.48337 0.65311,12.5 c 0.3592,6.875 0.65492,21.33872 0.65715,32.14159 0.004,19.53101 0.0167,19.64482 2.25406,20.21478 1.2375,0.31525 9.07303,5.7039 17.41229,11.97478 8.33925,6.27087 20.71425,15.21662 27.5,19.87944 12.10197,8.31586 29.02833,20.78437 55.77804,41.08793 7.39219,5.61081 15.94219,11.96934 19,14.13006 3.05782,2.16071 7.68551,5.68035 10.28375,7.82142 l 4.72409,3.89284 8.27591,-6.89249 c 8.43602,-7.02583 30.6907,-23.47324 38.65718,-28.56976 2.42389,-1.55067 12.3297,-8.77677 22.01291,-16.05801 9.68321,-7.28123 21.43083,-15.87593 26.10583,-19.09933 4.675,-3.22341 14.92721,-10.75457 22.7827,-16.73592 7.85548,-5.98136 14.94298,-11.12857 15.75,-11.43825 1.24856,-0.47912 1.4673,-5.46362 1.4673,-33.43574 v -32.87269 l 3.82964,-1.95374 c 2.10631,-1.07456 7.09711,-4.6837 11.09067,-8.02032 3.99355,-3.33663 7.73432,-6.06659 8.31281,-6.06659 0.69133,0 0.83161,2.10656 0.40934,6.14669 -0.35335,3.38068 -0.64246,24.7698 -0.64246,47.53139 0,38.50169 -0.12191,41.42961 -1.75,42.02947 -3.05772,1.12662 -18.76608,11.97726 -35.52622,24.53997 -8.92308,6.68836 -21.00749,15.55632 -26.85424,19.70657 -5.84675,4.15025 -19.34675,13.94949 -30,21.77609 -10.65325,7.8266 -24.76954,18.19127 -31.36954,23.0326 -12.16943,8.9267 -32.88965,23.24642 -33.60755,23.22613 -0.21585,-0.006 -1.74245,-1.06295 -3.39245,-2.34857 z m -2,-51.67332 -6,-3.68454 -0.0473,-27.5897 -0.0473,-27.58971 13.29896,-0.30153 13.29896,-0.30154 -0.002,26.12985 -0.002,26.12986 -5.71509,4.37014 c -3.1433,2.40358 -6.4058,4.85425 -7.25,5.44593 -1.18943,0.83364 -2.88539,0.24646 -7.53491,-2.60876 z m -51.75,-37.465 -12.75,-9.45955 v -14.10622 -14.10622 l 4.47863,3.94224 c 2.46324,2.16824 8.53118,6.59398 13.48431,9.83499 l 9.00568,5.89274 0.0228,7 c 0.0125,3.85 0.30967,10.0375 0.66029,13.75 0.5115,5.41588 0.36186,6.7462 -0.75711,6.73078 -0.76703,-0.0106 -7.1321,-4.27602 -14.1446,-9.47876 z m 100.25,-5.52677 v -15.02475 l 2.58886,-0.98428 c 3.37397,-1.28278 15.76609,-9.26706 21.07944,-13.58153 2.29256,-1.86158 4.43006,-3.38469 4.75,-3.38469 0.85513,0 0.67986,26.31313 -0.18361,27.566 -0.40408,0.5863 -2.98469,2.57735 -5.73469,4.42457 -2.75,1.84721 -8.44095,6.20501 -12.64655,9.684 -4.2056,3.47899 -8.1431,6.32543 -8.75,6.32543 -0.75564,0 -1.10345,-4.73582 -1.10345,-15.02475 z m -148.25556,-28.15334 -9.74444,-7.02254 v -20.89968 c 0,-11.49483 0.35867,-20.89969 0.79705,-20.89969 0.43838,0 2.57588,1.82381 4.75,4.05292 2.17412,2.2291 6.02721,5.38543 8.56241,7.01406 l 4.60947,2.96115 0.7243,20.56884 c 0.39836,11.31286 0.5716,20.72153 0.38498,20.90816 -0.18663,0.18662 -4.72432,-2.82083 -10.08377,-6.68322 z m 200.60053,-6.48002 c 0.36027,-7.51196 0.65503,-17.37894 0.65503,-21.92661 v -8.2685 l 5.25,-3.07161 c 2.8875,-1.68938 7.3875,-4.69052 10,-6.6692 l 4.75,-3.59759 -0.0153,20.84581 c -0.008,11.4652 -0.34592,21.29653 -0.75,21.8474 -0.40408,0.55088 -1.99529,1.65178 -3.53602,2.44646 -1.54074,0.79467 -5.55722,3.83145 -8.92552,6.7484 -3.3683,2.91695 -6.56496,5.30355 -7.1037,5.30355 -0.62351,0 -0.74144,-4.96398 -0.32448,-13.65811 z m -106.5799,-19.09189 c -0.27646,-8.6625 -0.4492,-15.76862 -0.38386,-15.79139 1.2757,-0.44446 24.04446,1.26437 23.86879,1.79139 -0.1375,0.4125 -0.25,7.275 -0.25,15.25 v 14.5 H 512.69803 501.3319 Z m -32.85501,13.41054 c -1.42447,-0.75672 -8.73697,-6.24597 -16.25,-12.19833 l -13.66006,-10.82247 v -5.68744 c 0,-3.1281 -0.91731,-14.85954 -2.03846,-26.06988 -1.12116,-11.21033 -2.91945,-29.83242 -3.99621,-41.38242 -1.07676,-11.55 -2.63942,-26.625 -3.47258,-33.5 -2.78161,-22.95301 -2.20606,-20.85337 -6.17029,-22.50974 -1.95311,-0.81605 -8.78716,-4.57774 -15.18678,-8.35929 -6.39962,-3.78156 -15.46068,-8.78383 -20.13568,-11.11615 -8.00789,-3.99509 -27.22958,-15.19452 -31.40143,-18.29591 -1.75942,-1.30796 -0.9005,-2.01545 11.5,-9.47252 7.37079,-4.43244 15.94358,-9.18133 19.05064,-10.55309 5.47675,-2.41795 5.73662,-2.44094 8.51207,-0.7531 7.94323,4.83057 22.46141,6.78296 37.48854,5.04143 14.07085,-1.63071 19.50731,-4.65575 34.383,-19.13196 6.69717,-6.51732 12.47503,-11.84967 12.83969,-11.84967 0.36465,0 0.54252,23.1751 0.39525,51.50022 l -0.26776,51.50023 32.25,-2.3e-4 32.25,-2.2e-4 0.0879,-10.25 c 0.0483,-5.6375 1.17461,-37.53587 0.51292,-58.75 -0.66169,-21.21413 -1.48066,-56.86599 -2.05301,-72.96032 -1.56601,-1.29967 -15.78942,-7.54625 -17.00699,-7.54719 -0.60593,25.06655 -2.01459,55.4638 -2.39737,80.69182 l -0.64345,47.22262 -10,-0.29031 c -5.5,-0.15967 -10.225,-0.51342 -10.5,-0.78611 -0.275,-0.2727 -0.77275,-23.52112 -1.10611,-51.66316 -0.88528,-28.45558 -0.88409,-60.4272 -2.29446,-86.92498 l -9.77126,-4.77836 c -5.37418,-2.6281 -10.34655,-4.97547 -11.04971,-5.21638 -0.8792,-0.30122 -0.12459,-2.12593 2.4163,-5.84282 2.03212,-2.97264 7.25467,-11.47981 11.60566,-18.90481 8.60252,-14.68025 8.834,-14.85401 15.89124,-11.9286 2.96151,1.22763 5.02768,0.79863 28.65429,-5.94949 39.92012,-11.40179 46.46994,-12.58969 69.15405,-12.54204 16.39108,0.0344 20.16715,0.34719 27.5,2.27777 15.55358,4.09491 40.1007,12.24006 40.53279,13.44948 0.23441,0.65608 0.54792,34.75909 0.6967,75.78447 l 0.27051,74.59158 -4.15735,1.71915 c -4.02101,1.66277 -21.92216,12.32425 -37.34265,22.24035 -12.06675,7.75949 -28.95436,17.18839 -31.9725,17.85129 -3.34148,0.73391 -3.17455,-0.0722 -6.00661,29.00604 -1.1249,11.55 -2.7111,26.4 -3.52487,33 -2.55201,20.69764 -5.5344,55.9749 -5.25953,62.2124 0.18273,4.14651 -0.19292,6.52971 -1.22537,7.77392 -2.08739,2.51555 -24.64824,17.51096 -27.86155,18.51861 -1.45726,0.45698 -5.30764,1.06758 -8.5564,1.3569 l -5.90683,0.52604 0.66364,-21.35301 c 0.36501,-11.74416 0.91906,-22.63143 1.23122,-24.19394 l 0.56757,-2.84092 h -32.63238 -32.63239 l 0.19407,24.5 0.19407,24.5 -4.88607,0.2682 c -2.74509,0.15068 -6.02093,-0.33467 -7.47601,-1.10766 z m 96.87351,-90.0387 c -0.15596,-5.56701 -0.62107,-10.00934 -1.03357,-9.87184 -0.4125,0.1375 -23.925,0.25 -52.25,0.25 h -51.5 v 10.05123 10.05123 l 52.53357,-0.17939 52.53357,-0.1794 z m 58.31842,-143.66973 c 5.7857,-1.6824 14.52524,-6.06941 20.2454,-10.16265 1.70753,-1.22187 1.88084,-3.57312 2.28913,-31.05571 0.24295,-16.35356 0.14739,-29.73375 -0.21235,-29.73375 -0.35975,0 -4.76486,1.10704 -9.78913,2.46009 -5.02427,1.35305 -13.63504,3.16954 -19.13504,4.03666 -5.5,0.86712 -16.075,3.17179 -23.5,5.12149 -23.62178,6.20276 -30.86427,10.4898 -32.80234,13.62023 -1.93808,3.13042 -1.88962,3.0262 -2.38182,5.19228 -0.6914,3.16128 -0.33928,5.51036 1.79876,12 1.46214,4.43809 3.32933,9.41925 4.14931,11.06925 2.53483,5.10072 11.74205,16.05793 15.00757,17.37888 3.26552,1.32095 23.13407,3.00296 31.22852,2.44281 3.575,-0.2474 9.47089,-1.31371 13.10199,-2.36958 z m -26.27458,-10.94304 c -8.30665,-5.5021 -10.23568,-15.85181 -4.38438,-23.52326 8.20373,-10.75565 18.74448,-9.60953 24.90438,2.70791 3.51833,7.03534 3.05029,12.1448 -1.59742,17.43824 -6.18855,7.04838 -11.85359,8.05942 -18.92258,3.37711 z m 16.67259,-86.57835 v -8.43247 l -8.03086,8.7e-4 -8.03086,8.8e-4 -0.20336,8.75 -0.20335,8.75 8.23422,-0.31841 8.23421,-0.3184 z m -35.70552,7.71746 c 0.75486,-0.47887 1.54482,-3.80732 1.89503,-7.98468 l 0.60056,-7.1635 h -8.14503 -8.14504 v 8 8 l 6.25,-0.0153 c 3.4375,-0.008 6.83251,-0.38485 7.54448,-0.83651 z m 63.84509,-0.14818 h 3.36043 v -8 -8 h -8 -8 v 8.63592 8.63593 l 4.63957,-0.63593 c 2.55177,-0.34975 6.15177,-0.63592 8,-0.63592 z m 107.86043,298.31318 c -11.37154,-14.07069 -17.5531,-21.14549 -29.10717,-33.31318 -6.27406,-6.60727 -13.00404,-14.90364 -15.81831,-19.5 -2.69404,-4.4 -6.82618,-10.38476 -9.18253,-13.29946 -5.21456,-6.45019 -5.93788,-9.92446 -5.76707,-27.70054 0.12964,-13.49106 3.25235,-37.94177 5.4663,-42.80085 1.26486,-2.77608 4.22648,-4.15837 7.57969,-3.53771 4.44789,0.82329 31.95217,63.80582 42.72579,97.83856 5.35732,16.9232 11.82326,44.28584 11.39819,48.23501 -0.27362,2.54212 -0.79968,2.11508 -7.29489,-5.92183 z m -478.0449,-4.31318 c 0.34591,-1.375 1.76755,-7.45 3.15919,-13.5 5.056,-21.98029 9.95627,-36.93318 19.17126,-58.5 6.38551,-14.94469 21.21501,-45 22.20332,-45 0.49215,0 4.77755,1.85371 9.52311,4.11937 9.88882,4.72117 10.48802,5.62438 10.48802,15.80908 0,6.29518 -0.45016,7.71487 -6.08323,19.1849 -3.34577,6.81266 -11.10827,20.6281 -17.25,30.70098 -9.61431,15.76818 -12.40756,19.52186 -20.0917,27 -8.87458,8.63667 -11.20608,11.03994 -18.12772,18.68567 -3.16931,3.50086 -3.5427,3.68803 -2.99225,1.5 z m 337.98911,-23.25 c 0.26528,-1.2375 0.98211,-8.775 1.59297,-16.75 0.93262,-12.17572 3.55324,-37.0723 6.54648,-62.19329 0.37487,-3.14611 1.25093,-5.913 1.95813,-6.18437 0.70386,-0.2701 4.5824,-2.57833 8.61898,-5.1294 4.03658,-2.55107 14.08923,-8.84455 22.33923,-13.98552 l 15,-9.3472 0.29834,5.3676 c 0.16409,2.95218 -0.63814,14.23024 -1.78274,25.06235 -1.1446,10.83211 -2.11274,25.81814 -2.15144,33.30229 l -0.0703,13.60754 -7.29118,4.78358 c -4.01014,2.63097 -15.39799,11.29347 -25.30631,19.25 -9.90838,7.95653 -18.51453,14.46642 -19.12483,14.46642 -0.62698,0 -0.89985,-0.97868 -0.62733,-2.25 z M 399.06417,690.8082 c -7.425,-6.02071 -18.5625,-14.78436 -24.75,-19.47479 -11.13033,-8.43734 -11.2501,-8.57197 -11.25967,-12.6555 -0.005,-2.27008 -0.42466,-11.55243 -0.93185,-20.62743 -0.5072,-9.075 -1.21777,-23.60903 -1.57906,-32.29785 l -0.65689,-15.79786 12.33874,8.09429 c 6.7863,4.45186 17.40123,10.65184 23.58873,13.77773 l 11.25,5.68345 v 4.81331 c 0,2.64733 0.65309,10.98138 1.45132,18.52012 1.59681,15.08084 4.84148,60.2854 4.35472,60.66967 -0.16832,0.13288 -6.38104,-4.68443 -13.80604,-10.70514 z m -93.60399,-190.25979 -0.10399,-61.49793 h 10.85399 10.85399 l 0.18041,17.75 c 0.18694,18.39245 0.17064,44.70643 -0.0514,83 l -0.12901,22.25 -10.75,-0.002 -10.75,-0.002 -0.10399,-61.49792 z m 391.56585,60.25207 c -0.021,-0.1375 -0.27324,-27.55893 -0.56059,-60.93651 l -0.52244,-60.68651 11.08198,-0.31349 11.08197,-0.31349 -0.10376,61.25 -0.10376,61.25 H 707.4818 c -5.7297,0 -10.43479,-0.1125 -10.45577,-0.25 z m -433.14633,-35.75 c -0.17354,-9.075 -0.16826,-27.65286 0.0117,-41.28413 l 0.32727,-24.78413 10.17273,0.28413 10.17277,0.28413 v 40.97149 40.97149 l -10.18447,0.0285 -10.18448,0.0285 -0.31552,-16.5 z M 739.28119,500.1695 c 0.15564,-21.97481 0.50798,-40.1704 0.78298,-40.43465 0.275,-0.26426 4.67337,-0.2383 9.77415,0.0577 l 9.27416,0.53813 -0.27416,39.60991 -0.27415,39.60989 -9.78298,0.28661 -9.78297,0.28661 z M 348.83236,472.90049 c -0.14751,-27.69251 -0.0432,-51.91598 0.23181,-53.82994 0.408,-2.83962 -0.49087,-3.12272 5.94893,-8.13672 6.43979,-5.014 10.28408,-7.2996 19.05107,-9.34847 28.74607,-6.59943 30.39541,-6.81924 52,-6.92989 19.82424,-0.10153 34,1.33884 34,3.45466 0,0.45826 -1.52356,3.44481 -3.38569,6.63677 -1.86213,3.19197 -5.25194,10.30358 -7.53292,15.80358 -2.28098,5.5 -4.78076,11.42187 -5.55507,13.1597 l -1.40784,3.15971 -7.30924,-2.28556 c -4.02008,-1.25706 -9.33424,-3.12893 -11.80924,-4.15971 -6.55908,-2.7317 -38.59184,-2.53321 -47.5,0.29432 l -6,1.90447 -0.62579,6.96353 c -0.34418,3.82995 -0.68168,19.82952 -0.75,35.55461 -0.0947,21.78698 0.20573,29.68738 1.26221,33.1978 1.72496,5.73161 1.26584,6.22854 -9.88642,10.70061 -4.4,1.76441 -8.55432,3.43358 -9.23181,3.70928 -0.964,0.39228 -1.29012,-10.44566 -1.5,-49.84875 z m -75.85489,-58.1828 c -42.24172,-22.48385 -75.80823,-49.17699 -100.19862,-79.68108 -9.08491,-11.36215 -33.71468,-48.80664 -33.71468,-51.25624 0,-0.26085 1.82245,-0.76569 4.04988,-1.12188 6.48424,-1.03687 36.13623,-11.25038 49.69582,-17.11752 19.47178,-8.42531 36.5619,-18.84532 71.2543,-43.44442 38.47041,-27.27796 51.05095,-35.87614 63.5,-43.39915 15.89613,-9.6061 55.38393,-29.19128 69,-34.22267 10.44877,-3.86101 28.78401,-9.69275 34.0929,-10.84365 l 3.09291,-0.6705 -0.0154,23.79495 c -0.0166,25.73022 1.32795,39.04823 5.86709,58.11278 4.6585,19.56584 13.93093,39.24913 25.32928,53.76841 9.52862,12.1376 25.51545,22.19282 40.06902,25.20218 6.83199,1.4127 8.80353,1.46046 14.24674,0.34513 28.37644,-5.81442 55.11463,-37.91115 65.31228,-78.40139 4.94738,-19.64379 5.61877,-25.63056 6.20919,-55.36666 l 0.53876,-27.13451 12.62861,3.28608 c 13.28742,3.45751 17.09867,4.82033 34.11708,12.19957 35.702,15.48048 66.72483,33.83388 109.02077,64.49771 49.89964,36.17637 60.77257,42.74499 89.49077,54.06363 12.94534,5.10212 39.41824,13.89759 45.68583,15.17886 l 2.68583,0.54905 -9.25058,15.26828 c -9.72367,16.04911 -19.14197,29.65552 -28.41025,41.04365 -7.14019,8.77329 -29.59018,30.29778 -38.67101,37.07679 -19.89491,14.85192 -24.95987,18.35337 -35.53982,24.56896 -18.30741,10.75538 -30.05481,16.75523 -36.32415,18.55214 -3.20329,0.91813 -6.08872,1.40475 -6.41208,1.08139 -0.32336,-0.32336 -0.91777,-4.30249 -1.32091,-8.84251 -0.40313,-4.54003 -1.03714,-9.60459 -1.4089,-11.25459 -0.66622,-2.95687 -0.52756,-3.0778 9.64505,-8.41206 5.67655,-2.97664 13.47099,-7.43518 17.32099,-9.90786 3.85,-2.47269 9.25,-5.82692 12,-7.45384 12.99822,-7.68984 35.02004,-26.05139 45.92423,-38.29112 7.82439,-8.78271 30.11646,-37.39481 29.42002,-37.76091 -0.18934,-0.0995 -4.16925,-1.45282 -8.84425,-3.00731 -13.07896,-4.3489 -39.65708,-17.81648 -53.25359,-26.9845 -15.59675,-10.51676 -37.67337,-26.03204 -49.24641,-34.61002 -34.23434,-25.37461 -59.67485,-40.34872 -94,-55.32775 -21.33095,-9.30854 -19.08289,-9.47671 -19.85447,1.48528 -1.43525,20.39095 -7.67353,49.97935 -14.18441,67.27715 -6.05245,16.07988 -15.65774,31.59621 -26.82786,43.33757 -4.95048,5.20364 -21.08164,16.89322 -28.32579,20.52651 -14.49053,7.26771 -35,10.26093 -49.80747,7.26909 -16.86399,-3.40737 -39.95775,-17.77814 -52.57957,-32.71917 -20.62611,-24.41609 -33.67525,-59.6323 -37.02511,-99.92106 -0.61736,-7.425 -1.27761,-14.05043 -1.46722,-14.72318 -0.45546,-1.61599 -9.18575,2.08215 -35.9281,15.2191 -24.06862,11.8235 -37.19361,19.42335 -53.5,30.97844 -6.325,4.48204 -21.625,15.33211 -34,24.11126 -40.31458,28.60021 -65.484,43.65269 -85.9198,51.38404 -7.31302,2.76669 -13.8962,5.03034 -14.62928,5.03034 -2.62047,0 -2.30681,1.74098 1.2757,7.0809 4.96441,7.39971 24.03435,29.53679 34.87041,40.47886 15.30498,15.45471 41.24181,33.32605 67.38875,46.43311 6.6546,3.33585 12.30142,6.61462 12.5485,7.28615 0.24708,0.67154 0.11545,4.7791 -0.29252,9.12792 -0.56405,6.01256 -1.11463,7.96112 -2.29809,8.13309 -0.85599,0.12439 -3.52801,1.17876 -5.93783,2.34306 -2.40983,1.1643 -4.63448,2.07965 -4.94367,2.03412 -0.30919,-0.0455 -5.77618,-2.85804 -12.14887,-6.25 z m 420.5867,-17.41234 c -12.35854,-8.66747 -21.79185,-12.81543 -41.29136,-18.15642 -27.44696,-7.51783 -34.27989,-8.48417 -55.07989,-7.78965 -20.39026,0.68085 -24.27963,1.42785 -49.75907,9.55693 -10.37832,3.31114 -22.27743,6.9921 -26.44245,8.17991 l -7.57278,2.15964 -18.55095,-6.05319 c -45.2968,-14.7804 -61.94793,-16.62293 -94.78231,-10.48812 -34.28875,6.40655 -62.95336,15.70776 -73.72246,23.92175 l -3.29873,2.51606 v -18.00409 -18.0041 l 4.75,-2.14282 c 11.87403,-5.3566 29.73252,-12.12856 38.33332,-14.53602 7.70368,-2.15635 12.23631,-2.72426 24.91668,-3.12188 14.03207,-0.44002 16.73117,-0.2326 28.5,2.19016 7.15,1.47191 25.88544,6.90093 41.63431,12.06449 15.74888,5.16355 33.61541,10.36267 39.70341,11.55358 l 11.06909,2.1653 11.91084,-2.64445 c 6.55096,-1.45444 22.64509,-6.03513 35.76472,-10.1793 31.8873,-10.07241 38.81898,-11.96082 52.79716,-14.38361 19.34813,-3.35355 28.32707,-2.59501 53.27555,4.50073 11.67009,3.31915 18.29576,5.86763 26.00271,10.00159 l 10.34221,5.5475 v 18.44557 c 0,10.14506 -0.1125,18.41532 -0.25,18.37834 -0.1375,-0.037 -3.85,-2.59202 -8.25,-5.6779 z M 300.79865,295.21365 c -6.72862,-4.43684 -7.53855,-9.559 -2.33438,-14.76317 2.73989,-2.73989 4.18112,-3.4 7.42327,-3.4 4.49566,0 9.67496,3.55004 11.25944,7.71754 1.21201,3.18784 -1.16839,7.75421 -5.38126,10.32294 -3.99613,2.43659 -7.40022,2.47467 -10.96707,0.12269 z m 411.02819,-0.72856 c -1.50559,-0.81692 -3.42964,-2.8239 -4.27568,-4.45996 -1.37507,-2.6591 -1.37801,-3.28452 -0.0277,-5.89581 3.8594,-7.46326 13.01754,-9.44823 18.46385,-4.00192 2.20984,2.20985 3.07692,4.01987 3.07692,6.42308 0,5.07014 -4.8495,9.51251 -10.32692,9.45996 -2.2952,-0.022 -5.40492,-0.70843 -6.91051,-1.52535 z m -43.51267,-21.41883 c -3.4375,-1.59084 -6.25,-3.42702 -6.25,-4.0804 0,-1.87877 5.96744,-13.20298 8.26561,-15.68538 3.19614,-3.45236 9.61555,-2.56999 14.48439,1.99093 2.65617,2.48818 2.85736,5.65122 0.63982,10.05873 -1.88521,3.74695 -8.32781,10.72085 -9.84277,10.65445 -0.57588,-0.0252 -3.85955,-1.34749 -7.29705,-2.93833 z m -325.6252,-3.55612 c -1.99897,-2.61797 -4.17127,-6.55159 -4.82735,-8.74137 -1.13175,-3.77746 -1.05395,-4.10091 1.5188,-6.3139 3.58749,-3.08582 10.32236,-5.11068 12.52683,-3.76622 1.65404,1.00877 7.36156,10.98273 8.56369,14.96516 0.508,1.68291 -0.18826,2.64806 -3.4834,4.82868 -2.26506,1.49895 -5.5911,2.96437 -7.39119,3.25648 -2.97609,0.48295 -3.60247,0.0995 -6.90738,-4.22883 z m 161.7847,-27.94382 c -28.14875,-6.12455 -41.35585,-22.80671 -45.86846,-57.93735 -0.84224,-6.55683 -1.42103,-11.99073 -1.28619,-12.07533 0.13483,-0.0846 5.19515,-0.93977 11.24515,-1.90037 18.75143,-2.97731 41.46035,-4.01976 60.26406,-2.7664 13.5308,0.90189 35.76455,3.70322 37.00668,4.66264 0.14891,0.11501 -0.14873,2.41228 -0.66142,5.10504 -0.51268,2.69276 -1.46094,8.27093 -2.10724,12.39593 -1.73002,11.0419 -2.79194,14.35695 -8.51499,26.58154 -7.74447,16.54243 -14.3942,22.77 -27.6505,25.89509 -7.63883,1.8008 -14.27737,1.81241 -22.42709,0.0392 z"
       id="path9343"
       sodipodi:nodetypes="sssssscsscsscsssssssscssssssscssssssssssssccccccccssccscccsscssssscssssssssscsssscssssscssccsssssssssscccssscssssssssssssssscccszccccssccsssssssssscssssssssscsscccccssssscccccsssssssszcsszssssssscccccccccssccccccssscccccccssssssssssssssssssssssssssssscssscsssssscsscsscssssccccsscccccsscccccssssccccccccsssscccccssszcssssscssscssssssssssssssscssssssscssssscsssssssssssssssssssssssssssssssssssssssssssscssscccsssssscssssscssssssssssssssssssssssssssssssssssssssssssss"
       inkscape:label="internal-outline"
       sodipodi:insensitive="true" />
  </g>
  <g
     inkscape:groupmode="layer"
     inkscape:label="vectorized"
     id="g2562"
     style="display:inline">
    <path
       id="path840-6"
       style="color:#000000;display:inline;fill:#ffffff;fill-opacity:1;stroke-width:0.961734;-inkscape-stroke:none"
       d="m 567.33585,112.63001 -0.84908,43.53978 c -0.16243,-0.028 -0.31962,-0.0665 -0.48586,-0.0948 -2.87742,-0.488 -10.24528,-0.96636 -13.985,-1.44595 -7.47956,-0.95923 -16.20705,-1.8886 -23.42569,-2.37836 -20.07011,-1.36167 -42.80269,-0.29715 -62.76976,2.92983 -2.15258,0.34787 -5.89164,0.64197 -7.62645,0.93427 l 0.028,-42.66235 -29.84851,7.027 c -10.24781,2.2613 -24.5656,7.2832 -35.70993,11.47481 -17.78857,6.69063 -52.00773,24.23019 -69.84105,35.19946 -12.66378,7.78951 -25.24527,16.56158 -61.98969,43.08117 -32.64867,23.56356 -46.95043,32.34491 -63.60389,39.67947 -5.27783,2.32448 -15.46303,6.21732 -24.51289,9.3902 -9.04984,3.17288 -20.5226,6.07552 -17.15863,5.52798 -1.79448,0.29209 -3.3637,0.60251 -5.32671,1.15601 -0.98149,0.27675 -1.95168,0.51829 -3.98431,1.41943 -1.01631,0.45057 -2.2587,0.91526 -4.73836,2.75357 -2.47967,1.83832 -9.88074,5.55823 -9.88074,19.71276 0,10.31092 1.71682,9.29687 2.31424,10.66749 0.59746,1.37062 1.06941,2.27511 1.57139,3.22166 1.00396,1.8931 2.09536,3.77418 3.38481,5.93353 2.57893,4.31872 5.88622,9.58195 9.47301,15.13234 7.17356,11.10075 14.86983,22.6147 20.6142,29.92732 24.60488,31.32209 57.58385,58.14482 97.73129,80.61918 l -15.46254,-0.43965 -0.63115,48.66221 c -0.17325,13.35728 -0.18055,30.84881 -0.0101,40.37688 0.002,0.10957 -0.002,0.35689 0,0.4643 l 0.74844,39.87089 33.15551,-0.0948 5.835,-0.0171 0.0336,19.9269 18.50288,0.004 c -0.71782,0.9762 -1.22871,1.87154 -1.70357,2.35559 -1.53475,1.5645 -2.05776,2.35354 -2.53954,3.0208 -0.96356,1.33448 -1.36966,2.04783 -1.81529,2.80093 -0.89123,1.50622 -1.64581,2.91281 -2.5265,4.59182 -1.76136,3.35803 -3.87255,7.5959 -6.15334,12.30105 -4.56161,9.4103 -9.66064,20.38535 -13.05516,28.47189 -9.14865,21.79406 -14.54016,38.53335 -19.58462,60.85526 -1.31303,5.81024 -2.85189,12.42933 -2.89888,12.61943 -0.26709,1.08065 -1.10451,1.26288 -0.91042,7.79642 0.097,3.26677 -0.15228,12.21096 10.53608,19.57633 5.3442,3.68266 12.01055,4.51125 16.13838,4.03464 4.1278,-0.4766 6.46088,-5.61545 8.12317,-6.46362 6.64907,-3.39268 6.20849,-4.42049 7.19784,-5.43513 0.98934,-1.01465 1.70449,-1.82167 2.54512,-2.76684 6.47867,-7.28426 7.8639,-14.73501 16.23518,-23.02742 6.4415,-6.38081 11.25815,-8.48305 17.62038,-18.46823 -0.0428,1.93339 -0.0896,3.58476 -0.1266,5.91649 -0.13197,8.31859 -0.22518,24.97093 -0.25135,36.07324 l -0.13035,54.83454 16.05831,8.41233 c 1.04638,0.5482 13.97577,9.18132 24.05858,17.25102 6.43687,5.15172 18.92766,14.63108 28.88632,21.96225 9.66762,7.11692 21.92621,16.17774 27.06173,20.00272 34.05029,25.36099 44.76793,33.27453 52.06055,38.37001 3.94107,2.75365 9.33042,6.73496 9.32591,6.73136 1.09961,0.87209 2.11079,1.63857 3.21166,2.41433 0.55044,0.38788 1.07652,0.75951 2.00148,1.32657 0.46246,0.28347 0.98158,0.60854 2.09269,1.15975 1.11112,0.5513 0.56333,2.22756 9.9124,2.49209 10.30419,0.29496 9.31491,-1.60485 10.40763,-2.09594 1.09317,-0.49138 1.57968,-0.77246 2.01451,-1.01397 0.86967,-0.483 1.34778,-0.78543 1.86183,-1.1086 1.0281,-0.64633 2.02146,-1.30503 3.20049,-2.09973 2.35809,-1.58941 5.33111,-3.65056 8.65196,-5.98662 6.64169,-4.6721 14.55773,-10.36466 20.65886,-14.9201 6.30399,-4.7068 19.7578,-14.76067 29.91781,-22.35829 10.0626,-7.52472 23.02852,-17.10065 28.28308,-20.8972 6.00076,-4.33563 17.41802,-12.87108 26.09734,-19.49293 7.76399,-5.92359 15.31694,-11.46402 21.08149,-15.51703 2.88227,-2.02651 5.3369,-3.69072 6.97442,-4.74721 1.63759,-1.05648 4.46076,-1.95961 -0.24385,-0.1952 3.09953,-1.16279 8.4329,-4.63758 11.35711,-8.61509 2.9247,-3.978 3.8707,-7.31721 4.43676,-9.61951 1.13218,-4.60457 1.0584,-6.8145 1.19348,-10.11599 0.27005,-6.60302 0.27176,-16.48556 0.27176,-35.19001 0,-10.93993 4.0695,-21.57044 4.17874,-29.78518 0,-0.3291 0.0101,-0.224 0.0133,-0.55336 1.90852,2.19905 3.73343,4.40774 5.77912,6.6006 10.76039,11.53427 15.85308,13.46552 26.49391,26.86729 3.16376,3.9847 3.02831,5.19648 9.2161,10.3093 1.54693,1.27821 -0.4519,3.35003 5.45802,4.95189 5.91003,1.60187 18.063,-0.925 23.45358,-6.4869 10.78098,-11.12382 6.89654,-14.16734 7.05631,-15.67811 0.55136,-5.21367 0.0381,-2.21453 -0.19362,-4.07689 -0.23134,-1.86239 -0.52562,-3.63789 -0.88061,-5.57916 -0.71008,-3.88256 -1.66821,-8.34706 -2.79467,-13.19933 -2.25302,-9.70456 -5.13615,-20.74536 -7.97237,-29.86479 -5.61946,-18.06845 -14.86568,-41.79731 -23.50562,-61.93546 -4.31998,-10.06907 -8.43692,-19.1151 -12.04414,-26.24895 -0.28702,-0.56764 -0.56422,-0.98137 -0.84344,-1.52365 h 11.19144 l 0.0335,-20.40448 6.31161,-0.18762 32.29904,-0.9646 0.42078,-61.82553 0.41894,-61.48254 -20.3163,-1.19958 c 6.16442,-3.28084 12.97824,-7.34355 21.69967,-12.5588 10.59157,-6.33358 16.98382,-10.81672 36.06365,-25.31467 12.94639,-9.83735 30.89272,-27.34781 41.09067,-40.10207 9.71188,-12.14649 19.27134,-26.25302 28.98123,-42.56572 l 26.34114,-44.25612 -35.69308,-7.42687 c 1.04582,0.21762 -8.34996,-2.42277 -16.64664,-5.22857 -8.29677,-2.80578 -17.57722,-6.1519 -22.93777,-8.3024 -26.3588,-10.5742 -32.7138,-14.59058 -80.05898,-49.52821 -41.14365,-30.36137 -72.71536,-49.43291 -108.43309,-65.1969 -16.43177,-7.25219 -22.93185,-9.5959 -36.00035,-13.05722 z"
       sodipodi:nodetypes="cccssscccssssscsssssssssccssccccccssssssssssssssscscccsssscssscssssssssssscssssccssssssssssssccccccccssscccsssscc"
       inkscape:label="internal-under"
       sodipodi:insensitive="true" />
    <path
       id="path2558"
       style="color:#000000;display:inline;fill:#000009;fill-opacity:1;-inkscape-stroke:none"
       inkscape:label="external-outline"
       d="m 566.94141,101.10742 -0.89063,44.87305 c -0.17044,-0.0289 -0.33536,-0.0686 -0.50976,-0.0977 -3.01848,-0.50294 -6.55147,-0.99594 -10.47461,-1.49023 -7.84628,-0.98859 -17.00165,-1.94642 -24.57422,-2.45117 -21.05428,-1.40337 -44.90152,-0.30626 -65.84766,3.01953 -2.25813,0.35853 -4.08247,0.66163 -5.90234,0.96289 l 0.0293,-43.96875 -33.41015,7.24219 c -10.75032,2.33054 -25.77016,7.50621 -37.46094,11.82617 -18.66081,6.89551 -54.55788,24.97217 -73.26562,36.27734 -13.28475,8.02803 -26.48315,17.06873 -65.0293,44.40039 -34.24957,24.28511 -49.25262,33.33536 -66.72266,40.89453 -5.53663,2.39566 -16.22124,6.4077 -25.71484,9.67774 -9.4936,3.27003 -21.52892,6.26156 -18,5.69726 -1.88246,0.30103 -3.52863,0.62096 -5.58789,1.19141 -1.02963,0.28522 -2.04739,0.53415 -4.17969,1.46289 -1.06614,0.46437 -2.36945,0.94328 -4.9707,2.83789 -2.60125,1.89461 -10.36524,5.72844 -10.36524,20.31641 0,10.62665 1.80101,9.58155 2.42774,10.99414 0.62674,1.41258 1.12184,2.34477 1.64843,3.32031 1.0532,1.95107 2.1981,3.88975 3.55079,6.11523 2.70538,4.45096 6.17484,9.87536 9.9375,15.59571 7.52531,11.44068 15.59896,23.30721 21.625,30.84375 25.81135,32.28122 60.40742,59.92531 102.52343,83.08789 l -16.2207,-0.45313 -0.66211,50.15235 c -0.18174,13.76631 -0.18916,31.79345 -0.01,41.61328 0.002,0.11292 -0.002,0.36782 0,0.47851 l 0.78515,41.0918 34.78125,-0.0977 6.1211,-0.0176 0.0332,20.53711 19.41015,0.004 c -0.75303,1.0061 -1.28896,1.92887 -1.7871,2.42774 -1.61,1.6124 -2.15867,2.42559 -2.66407,3.11328 -1.0108,1.37536 -1.43682,2.11056 -1.90429,2.88672 -0.93494,1.55234 -1.72652,3.00199 -2.65039,4.73242 -1.84774,3.46086 -4.06243,7.8285 -6.45508,12.67773 -4.78528,9.69846 -10.13432,21.00959 -13.69531,29.34375 -9.59724,22.46143 -15.25312,39.7133 -20.54493,62.71875 -1.37742,5.98816 -2.99172,12.80994 -3.04101,13.00586 -0.28018,1.11374 -1.15868,1.30155 -0.95508,8.03516 0.10179,3.3668 -0.15973,12.58489 11.05273,20.17578 5.60623,3.79544 12.59947,4.6494 16.92969,4.1582 4.33022,-0.4912 6.77771,-1.66492 8.52149,-2.53906 6.97511,-3.49657 6.51293,-4.55585 7.55078,-5.60156 1.03785,-1.04572 1.78807,-1.87746 2.66992,-2.85157 6.79635,-7.50732 8.2495,-9.00248 17.03125,-17.54882 6.75736,-6.5762 11.81017,-12.86531 18.48437,-23.15625 -0.0448,1.9926 -0.094,3.69453 -0.13281,6.09765 -0.13843,8.57333 -0.23622,19.55186 -0.26367,30.99414 l -0.13672,56.51368 16.8457,8.66992 c 1.09769,0.565 14.66107,9.46246 25.23829,17.77929 6.75249,5.30946 19.85575,15.0791 30.30273,22.63477 10.14166,7.33484 23.00132,16.67312 28.38867,20.61523 35.7199,26.13754 46.96308,34.29347 54.61328,39.54493 4.13431,2.83799 9.78794,6.94119 9.78321,6.9375 1.15352,0.89878 2.21429,1.68876 3.36914,2.48828 0.57743,0.39976 1.12931,0.78272 2.09961,1.36718 0.48515,0.29224 1.02972,0.62718 2.19531,1.19532 1.1656,0.56813 0.59095,2.29575 10.39844,2.56836 10.80945,0.30397 9.77165,-1.654 10.91796,-2.16016 1.14677,-0.50636 1.65714,-0.79603 2.11329,-1.04492 0.91231,-0.4978 1.41386,-0.80952 1.95312,-1.14258 1.0785,-0.66612 2.12057,-1.34502 3.35742,-2.16406 2.47371,-1.63809 5.59248,-3.76234 9.07617,-6.16992 6.96737,-4.81514 15.27151,-10.68207 21.67188,-15.37696 6.61307,-4.85092 20.72652,-15.2127 31.38477,-23.04297 10.55597,-7.75514 24.15769,-17.62431 29.66992,-21.53711 6.29496,-4.46839 18.27206,-13.26521 27.37695,-20.08984 8.14476,-6.10498 16.06806,-11.81507 22.11523,-15.99219 3.02358,-2.08856 5.59858,-3.80373 7.31641,-4.89257 1.71783,-1.08883 4.67952,-2.01962 -0.25586,-0.20118 3.25158,-1.1984 8.8464,-4.7796 11.91406,-8.8789 3.06804,-4.09981 4.06043,-7.54128 4.6543,-9.91406 1.18772,-4.74558 1.11027,-7.02319 1.25195,-10.42579 0.28335,-6.8052 0.28516,-16.99035 0.28516,-36.26757 0,-11.27493 0.0731,-22.23097 0.1875,-30.69727 0.005,-0.33918 0.008,-0.23085 0.0137,-0.57031 2.0021,2.2664 3.91647,4.54273 6.0625,6.80273 11.28799,11.88748 16.63037,18.00034 27.79297,31.8125 3.31893,4.10672 3.17679,5.35561 9.66797,10.625 1.62279,1.31735 3.72211,3.4526 9.92187,5.10352 6.19976,1.65092 18.94868,-0.95333 24.60352,-6.68555 11.30966,-11.46444 7.23475,-14.60116 7.40234,-16.1582 0.57836,-5.37332 0.0396,-6.40482 -0.20312,-8.32422 -0.24271,-1.91941 -0.5514,-3.74928 -0.92383,-5.75 -0.74486,-4.00144 -1.74991,-8.60266 -2.93164,-13.60352 -2.36347,-10.00172 -5.38796,-21.3806 -8.36328,-30.77929 -5.89501,-18.62173 -15.59464,-43.07721 -24.6582,-63.83203 -4.53178,-10.3774 -8.8506,-19.70045 -12.63477,-27.05274 -0.30111,-0.58503 -0.59187,-1.01143 -0.88477,-1.57031 h 11.74024 l 0.0371,-21.0293 6.62109,-0.19336 33.88281,-0.99414 0.44141,-63.71875 0.43945,-63.36523 -21.3125,-1.23633 c 6.4667,-3.38129 13.61464,-7.56841 22.76368,-12.94336 11.11091,-6.52753 17.8166,-11.14794 37.83203,-26.08984 13.58116,-10.13859 32.40747,-28.18525 43.10547,-41.33008 10.18817,-12.51843 20.21633,-27.05692 30.40234,-43.86914 l 27.63281,-45.61133 -37.44336,-7.6543 c 1.09713,0.22428 -8.75933,-2.49696 -17.46289,-5.38867 -8.70355,-2.89171 -18.43905,-6.34029 -24.0625,-8.55664 -27.6511,-10.89807 -34.3177,-15.03745 -83.98437,-51.04492 -43.16114,-31.29109 -76.28085,-50.94664 -113.75,-67.19336 -17.23753,-7.47426 -24.05631,-9.88973 -37.76563,-13.45703 z M 433.75,132.96094 l -0.0156,23.79492 c -0.0166,25.73022 1.32804,39.04873 5.86718,58.11328 4.6585,19.56584 13.93173,39.2483 25.33008,53.76758 9.52862,12.1376 25.51479,22.19376 40.06836,25.20312 6.83199,1.4127 8.80288,1.45908 14.24609,0.34375 28.37644,-5.81442 55.11485,-37.91015 65.3125,-78.40039 4.94738,-19.64379 5.61857,-25.63108 6.20899,-55.36718 l 0.53906,-27.13477 12.62891,3.28711 c 13.28742,3.45751 17.09877,4.81998 34.11718,12.19922 35.702,15.48048 66.72555,33.83422 109.02149,64.49804 49.89964,36.17637 60.77203,42.74386 89.49023,54.0625 12.94534,5.10213 39.41796,13.89842 45.68555,15.17969 l 2.68555,0.54883 -9.25,15.26758 c -9.72367,16.04911 -19.14188,29.65679 -28.41016,41.04492 -7.14019,8.77329 -29.59104,30.29716 -38.67187,37.07617 -19.89491,14.85192 -24.95912,18.35277 -35.53907,24.56836 -18.30741,10.75538 -30.05488,16.75583 -36.32422,18.55274 -3.20329,0.91813 -6.08875,1.40539 -6.41211,1.08203 -0.32335,-0.32336 -0.91717,-4.30373 -1.32031,-8.84375 -0.40313,-4.54003 -1.03839,-9.60391 -1.41015,-11.25391 -0.66622,-2.95687 -0.52613,-3.07785 9.64648,-8.41211 5.67655,-2.97664 13.47031,-7.43552 17.32031,-9.9082 3.85,-2.47269 9.25,-5.82621 12,-7.45313 12.99822,-7.68984 35.01964,-26.05128 45.92383,-38.29101 7.82439,-8.78271 30.11636,-37.39562 29.41992,-37.76172 -0.18934,-0.0995 -4.16875,-1.45332 -8.84375,-3.00781 -13.07896,-4.3489 -39.65739,-17.81636 -53.2539,-26.98438 -15.59675,-10.51676 -37.67306,-26.03139 -49.2461,-34.60937 -34.23434,-25.37461 -59.67485,-40.3491 -94,-55.32813 -21.33095,-9.30854 -19.08389,-9.47566 -19.85547,1.48633 -1.43525,20.39095 -7.67271,49.97759 -14.18359,67.27539 -6.05245,16.07988 -15.658,31.59653 -26.82812,43.33789 -4.95048,5.20364 -21.08203,16.89406 -28.32618,20.52735 -14.49053,7.26771 -34.99917,10.26137 -49.80664,7.26953 -16.86399,-3.40737 -39.95825,-17.77968 -52.58007,-32.72071 -20.62611,-24.41609 -33.67554,-59.63116 -37.0254,-99.91992 -0.61736,-7.425 -1.27718,-14.04991 -1.46679,-14.72266 -0.45546,-1.61599 -9.18539,2.08181 -35.92774,15.21876 -24.06862,11.82349 -37.19361,19.42342 -53.5,30.97851 -6.325,4.48204 -21.625,15.33218 -34,24.11133 -40.31458,28.60021 -65.48412,43.65146 -85.91992,51.38281 -7.31302,2.76669 -13.89582,5.03125 -14.62891,5.03125 -2.62047,0 -2.30711,1.74016 1.2754,7.08008 4.96441,7.39971 24.03503,29.53644 34.87109,40.47852 15.30498,15.4547 41.24173,33.32653 67.38867,46.43359 6.6546,3.33585 12.2998,6.61558 12.54688,7.28711 0.24708,0.67154 0.11695,4.77813 -0.29102,9.12695 -0.56405,6.01256 -1.11537,7.96084 -2.29883,8.13281 -0.85599,0.12439 -3.52768,1.17945 -5.9375,2.34375 -2.40983,1.1643 -4.63417,2.07874 -4.94336,2.03321 -0.30919,-0.0455 -5.7777,-2.85804 -12.15039,-6.25 -42.24172,-22.48385 -75.80687,-49.1756 -100.19726,-79.67969 -9.08491,-11.36215 -33.71485,-48.80626 -33.71485,-51.25586 0,-0.26085 1.8214,-0.76686 4.04883,-1.12305 6.48424,-1.03687 36.13768,-11.25004 49.69727,-17.11718 19.47178,-8.42531 36.5615,-18.84622 71.2539,-43.44532 38.47041,-27.27796 51.05095,-35.87542 63.5,-43.39843 15.89613,-9.6061 55.38393,-29.19127 69,-34.22266 10.44877,-3.86101 28.78291,-9.69285 34.0918,-10.84375 z m 80.36523,33.41015 c 5.06623,0.032 10.01197,0.20229 14.71289,0.51563 13.5308,0.90189 35.76373,3.70269 37.00586,4.66211 0.14891,0.11501 -0.14746,2.41271 -0.66015,5.10547 -0.51268,2.69276 -1.46112,8.27148 -2.10742,12.39648 -1.73002,11.0419 -2.79258,14.35744 -8.51563,26.58203 -7.74447,16.54243 -14.39409,22.76944 -27.65039,25.89453 -7.63883,1.8008 -14.27606,1.81228 -22.42578,0.0391 -28.14875,-6.12455 -41.35653,-22.80686 -45.86914,-57.9375 -0.84224,-6.55683 -1.42195,-11.99158 -1.28711,-12.07618 0.13483,-0.0846 5.19609,-0.93979 11.24609,-1.90039 14.06358,-2.23298 30.35211,-3.37726 45.55078,-3.28125 z m -164.59179,83.9043 c 0.99745,-0.049 1.83365,0.078 2.38476,0.41406 1.65404,1.00877 7.36037,10.98242 8.5625,14.96485 0.508,1.68291 -0.18728,2.6475 -3.48242,4.82812 -2.26506,1.49895 -5.59249,2.96375 -7.39258,3.25586 -2.97609,0.48295 -3.60134,0.0998 -6.90625,-4.22851 -1.99897,-2.61797 -4.17204,-6.55046 -4.82812,-8.74024 -1.13175,-3.77746 -1.05322,-4.10146 1.51953,-6.31445 2.69062,-2.31437 7.15022,-4.03274 10.14258,-4.17969 z m 327.42187,1.01563 c 2.61298,0.35916 5.43472,1.71954 7.86914,4 2.65617,2.48818 2.85621,5.65108 0.63867,10.05859 -1.88521,3.74695 -8.32683,10.7207 -9.84179,10.6543 -0.57588,-0.0252 -3.85938,-1.34666 -7.29688,-2.9375 -3.4375,-1.59084 -6.25,-3.4267 -6.25,-4.08008 0,-1.87877 5.96746,-13.20315 8.26563,-15.68555 1.59807,-1.72618 4.00226,-2.36893 6.61523,-2.00976 z m 41.82422,25.74218 c 2.61115,0.0553 5.17639,1.05139 7.21875,3.09375 2.20984,2.20985 3.07617,4.02062 3.07617,6.42383 0,5.07014 -4.84875,9.51154 -10.32617,9.45899 -2.2952,-0.022 -5.40652,-0.70848 -6.91211,-1.52539 -1.50559,-0.81692 -3.42935,-2.82293 -4.27539,-4.45899 -1.37507,-2.6591 -1.37765,-3.28519 -0.0273,-5.89648 2.41212,-4.66454 6.89417,-7.18789 11.24609,-7.09571 z m -412.88281,0.0176 c 4.49566,0 9.67528,3.5493 11.25976,7.7168 1.21201,3.18784 -1.16799,7.75549 -5.38086,10.32422 -3.99612,2.43659 -7.39994,2.47307 -10.96679,0.12109 -6.72862,-4.43684 -7.53816,-9.55755 -2.33399,-14.76172 2.73989,-2.73989 4.17973,-3.40039 7.42188,-3.40039 z m 319.53516,67.34961 c 11.85727,-0.86883 21.58551,0.88718 40.29687,6.20899 11.67009,3.31914 18.29696,5.86799 26.00391,10.00195 l 10.34179,5.54883 v 18.44531 c 0,10.14506 -0.1125,18.41393 -0.25,18.37695 -0.1375,-0.037 -3.85,-2.59185 -8.25,-5.67773 -12.35854,-8.66747 -21.7915,-12.81526 -41.29101,-18.15625 -27.44696,-7.51783 -34.28008,-8.48358 -55.08008,-7.78906 -20.39026,0.68085 -24.28033,1.42756 -49.75977,9.55664 -10.37832,3.31114 -22.27638,6.99187 -26.4414,8.17968 l -7.57422,2.16016 -18.55078,-6.05274 c -45.2968,-14.78039 -61.94687,-16.62309 -94.78125,-10.48828 -34.28875,6.40655 -62.95356,15.70789 -73.72266,23.92188 l -3.29883,2.51562 v -18.0039 -18.00391 l 4.75,-2.14258 c 11.87403,-5.3566 29.73319,-12.12965 38.33399,-14.53711 7.70368,-2.15635 12.23564,-2.72347 24.91601,-3.12109 14.03207,-0.44002 16.73117,-0.23331 28.5,2.18945 7.15,1.47191 25.8859,6.9009 41.63477,12.06446 15.74888,5.16355 33.61512,10.36377 39.70312,11.55468 l 11.06836,2.16407 11.91016,-2.64453 c 6.55096,-1.45444 22.64599,-6.03552 35.76562,-10.17969 31.8873,-10.07241 38.8187,-11.96003 52.79688,-14.38281 4.83703,-0.83839 9.02609,-1.41938 12.97852,-1.70899 z m -19.85743,49.23047 c 16.39108,0.0344 20.16715,0.34676 27.5,2.27734 15.55358,4.09491 40.10112,12.2398 40.53321,13.44922 0.23441,0.65608 0.54653,34.75978 0.69531,75.78516 l 0.27148,74.5918 -4.1582,1.71874 c -4.02101,1.66278 -21.92131,12.32414 -37.3418,22.24024 -12.06675,7.75949 -28.95451,17.18866 -31.97265,17.85156 -3.34148,0.73391 -3.1738,-0.0724 -6.00586,29.00586 -1.1249,11.55 -2.71162,26.4 -3.52539,33 -2.55201,20.69764 -5.53464,55.97539 -5.25977,62.21289 0.18273,4.14651 -0.19216,6.52923 -1.22461,7.77344 -2.08739,2.51555 -24.64997,17.50993 -27.86328,18.51758 -1.45726,0.45698 -5.30593,1.0681 -8.55469,1.35742 l -5.9082,0.52539 0.66406,-21.35156 c 0.36501,-11.74416 0.91831,-22.6328 1.23047,-24.19532 l 0.56836,-2.83984 h -32.63281 -32.63281 l 0.19531,24.5 0.19336,24.5 -4.88477,0.26758 c -2.74509,0.15068 -6.02148,-0.33443 -7.47656,-1.10742 -1.42447,-0.75672 -8.73697,-6.24686 -16.25,-12.19922 l -13.66016,-10.82227 v -5.6875 c 0,-3.1281 -0.91791,-14.85802 -2.03906,-26.06836 -1.12116,-11.21033 -2.91933,-29.83281 -3.99609,-41.38281 -1.07676,-11.55 -2.6395,-26.625 -3.47266,-33.5 -2.78161,-22.95301 -2.20569,-20.85339 -6.16992,-22.50976 -1.95311,-0.81605 -8.78788,-4.57783 -15.1875,-8.35938 -6.39962,-3.78156 -15.45977,-8.78487 -20.13477,-11.11719 -8.00789,-3.99509 -27.23049,-15.19353 -31.40234,-18.29492 -1.75942,-1.30796 -0.9005,-2.01558 11.5,-9.47265 7.37079,-4.43245 15.94372,-9.18098 19.05078,-10.55274 5.47675,-2.41795 5.73627,-2.44175 8.51172,-0.75391 7.94323,4.83057 22.4631,6.78255 37.49023,5.04102 14.07085,-1.63071 19.50713,-4.65465 34.38282,-19.13086 6.69717,-6.51732 12.47518,-11.84961 12.83984,-11.84961 0.36465,0 0.5418,23.17488 0.39453,51.5 l -0.26758,51.5 h 32.25 32.25 l 0.0879,-10.25 c 0.0483,-5.6375 1.17341,-37.53587 0.51172,-58.75 -0.66169,-21.21413 -1.48038,-56.86661 -2.05273,-72.96094 -1.56601,-1.29967 -15.78829,-7.54593 -17.00586,-7.54687 -0.60593,25.06655 -2.01566,55.46338 -2.39844,80.69141 l -0.64258,47.22265 -10,-0.28906 c -5.5,-0.15967 -10.225,-0.51442 -10.5,-0.78711 -0.275,-0.2727 -0.77211,-23.52007 -1.10547,-51.66211 -0.88528,-28.45558 -0.88455,-60.428 -2.29492,-86.92578 l -9.77148,-4.7793 c -5.37418,-2.6281 -10.34762,-4.97393 -11.05078,-5.21484 -0.8792,-0.30122 -0.12292,-2.12686 2.41797,-5.84375 2.03212,-2.97264 7.25447,-11.4793 11.60546,-18.9043 8.60252,-14.68025 8.83339,-14.8551 15.89063,-11.92969 2.96151,1.22763 5.02769,0.7989 28.6543,-5.94921 39.92012,-11.4018 46.47018,-12.58867 69.15429,-12.54102 z m -179.5,1.02539 c 19.82424,-0.10153 34,1.33731 34,3.45313 0,0.45825 -1.52459,3.44475 -3.38672,6.63671 -1.86213,3.19197 -5.25027,10.30469 -7.53125,15.80469 -2.28098,5.5 -4.78233,11.42233 -5.55664,13.16016 l -1.40625,3.1582 -7.31054,-2.28516 c -4.02008,-1.25706 -9.3336,-3.12937 -11.8086,-4.16015 -6.55908,-2.7317 -38.59184,-2.53261 -47.5,0.29492 l -6,1.9043 -0.62695,6.96484 c -0.34418,3.82995 -0.68168,19.82765 -0.75,35.55273 -0.0947,21.78698 0.20719,29.6888 1.26367,33.19922 1.72496,5.73161 1.26554,6.22715 -9.88672,10.69922 -4.4,1.76441 -8.55493,3.43524 -9.23242,3.71094 -0.964,0.39228 -1.29012,-10.44652 -1.5,-49.84961 -0.14751,-27.69251 -0.0426,-51.91612 0.23242,-53.83008 0.408,-2.83962 -0.49058,-3.12272 5.94922,-8.13672 6.43979,-5.014 10.28379,-7.29878 19.05078,-9.34765 28.74607,-6.59943 30.39541,-6.81904 52,-6.92969 z m 179.46875,19.39258 -8.03125,0.002 -0.20312,8.75 -0.20313,8.75 8.23438,-0.31836 8.23437,-0.31836 v -8.43359 -8.43164 z m 23.53125,0.002 v 8.63477 8.63672 l 4.63867,-0.63672 c 2.55178,-0.34975 6.15177,-0.63477 8,-0.63477 h 3.36133 v -8 -8 h -8 z m -65,1 v 8 8 l 6.25,-0.0156 c 3.4375,-0.008 6.83295,-0.38428 7.54493,-0.83594 0.75486,-0.47887 1.54432,-3.80702 1.89453,-7.98438 l 0.59961,-7.16406 h -8.14454 z m 154.04297,23.5 -0.10351,61.25 -0.10352,61.25 h -10.41797 c -5.7297,0 -10.43605,-0.1125 -10.45703,-0.25 -0.021,-0.1375 -0.2732,-27.55992 -0.56055,-60.9375 l -0.52148,-60.68555 11.08203,-0.31445 z m -412.75195,0.5 h 10.85547 10.85351 l 0.17969,17.75 c 0.18694,18.39245 0.17126,44.70643 -0.0508,83 l -0.12891,22.25 -10.75,-0.002 -10.75,-0.002 -0.10351,-61.49805 z m 340.13281,10 c -0.35975,0 -4.76479,1.10594 -9.78906,2.45899 -5.02427,1.35305 -13.63477,3.16999 -19.13477,4.03711 -5.5,0.86711 -16.075,3.17139 -23.5,5.12109 -23.62178,6.20276 -30.86466,10.49066 -32.80273,13.62109 -1.93808,3.13042 -1.88866,3.02533 -2.38086,5.19141 -0.6914,3.16128 -0.33921,5.51036 1.79883,12 1.46214,4.43809 3.32846,9.42031 4.14843,11.07031 2.53484,5.10072 11.7423,16.05796 15.00782,17.37891 3.26552,1.32095 23.13406,3.00351 31.22851,2.44336 3.575,-0.2474 9.47047,-1.31523 13.10157,-2.3711 5.7857,-1.6824 14.52593,-6.06887 20.24609,-10.16211 1.70753,-1.22187 1.88077,-3.57209 2.28906,-31.05468 0.24295,-16.35356 0.14685,-29.73438 -0.21289,-29.73438 z m -381.26953,9.93164 10.17187,0.2832 10.17383,0.28516 v 40.9707 40.97266 l -10.18554,0.0273 -10.1836,0.0293 -0.3164,-16.5 c -0.17354,-9.075 -0.16824,-27.65388 0.0117,-41.28516 z m 475.8457,0.75196 c 0.275,-0.26426 4.67266,-0.23741 9.77344,0.0586 l 9.27539,0.53711 -0.27539,39.61133 -0.27344,39.60937 -9.7832,0.28711 -9.7832,0.28516 0.2832,-39.95313 c 0.15564,-21.97481 0.5082,-40.1713 0.7832,-40.43554 z m -134.33789,18.5039 c 4.43064,0.48175 8.6056,3.84714 11.68555,10.00586 3.51833,7.03534 3.05005,12.14406 -1.59766,17.4375 -6.18855,7.04838 -11.85484,8.05926 -18.92383,3.37695 -8.30664,-5.5021 -10.23411,-15.85003 -4.38281,-23.52148 4.10187,-5.37783 8.78811,-7.78058 13.21875,-7.29883 z m 59.83789,108.97266 0.29883,5.36718 c 0.16409,2.95218 -0.6386,14.23039 -1.7832,25.0625 -1.1446,10.83212 -2.11365,25.81859 -2.15235,33.30274 l -0.0703,13.60742 -7.29101,4.7832 c -4.01014,2.63097 -15.39832,11.29347 -25.30664,19.25 -9.90838,7.95653 -18.5147,14.4668 -19.125,14.4668 -0.62698,0 -0.89948,-0.97868 -0.62696,-2.25 0.26528,-1.2375 0.98289,-8.775 1.59375,-16.75 0.93262,-12.17572 3.55364,-37.07237 6.54688,-62.19336 0.37487,-3.14611 1.24983,-5.91418 1.95703,-6.18554 0.70386,-0.2701 4.58256,-2.57784 8.61914,-5.12891 4.03658,-2.55107 14.08984,-8.84341 22.33984,-13.98438 z m 34.75,0.90234 c 0.76896,-0.0857 1.58162,-0.0556 2.41993,0.0996 4.44789,0.82329 31.95294,63.80515 42.72656,97.83789 5.35732,16.9232 11.8235,44.28521 11.39844,48.23438 -0.27363,2.54212 -0.79972,2.11503 -7.29493,-5.92188 -11.37154,-14.07069 -17.55335,-21.14481 -29.10742,-33.3125 -6.27406,-6.60727 -13.00409,-14.90364 -15.81836,-19.5 -2.69404,-4.4 -6.82529,-10.38413 -9.18164,-13.29883 -5.21456,-6.45019 -5.93839,-9.92509 -5.76758,-27.70117 0.12964,-13.49106 3.25285,-37.9417 5.4668,-42.80078 0.94864,-2.08206 2.85132,-3.37966 5.1582,-3.63672 z m -340.42773,1.8418 12.33789,8.09375 c 6.7863,4.45186 17.40234,10.65145 23.58984,13.77734 l 11.25,5.6836 v 4.81445 c 0,2.64733 0.65295,10.98079 1.45117,18.51953 1.59682,15.08084 4.84223,60.28565 4.35547,60.66992 -0.16832,0.13288 -6.38164,-4.68437 -13.80664,-10.70508 -7.425,-6.02071 -18.5625,-14.78418 -24.75,-19.47461 -11.13033,-8.43734 -11.25019,-8.57272 -11.25976,-12.65625 -0.005,-2.27008 -0.42445,-11.55195 -0.93164,-20.62695 -0.5072,-9.075 -1.21879,-23.61001 -1.58008,-32.29883 z m -43.83399,17.0957 c 0.49215,0 4.77788,1.85348 9.52344,4.11914 9.88882,4.72117 10.48828,5.6239 10.48828,15.8086 0,6.29518 -0.45091,7.71551 -6.08398,19.18554 -3.34577,6.81266 -11.10827,20.62829 -17.25,30.70117 -9.61431,15.76818 -12.40766,19.52186 -20.0918,27 -8.87458,8.63667 -11.20531,11.03982 -18.12695,18.68555 -3.16931,3.50086 -3.54264,3.68803 -2.99219,1.5 0.34591,-1.375 1.76656,-7.45 3.1582,-13.5 5.056,-21.98029 9.95689,-36.93318 19.17188,-58.5 6.38551,-14.94469 21.21481,-45 22.20312,-45 z m 247.76172,46.75 c -0.4125,0.1375 -23.925,0.25 -52.25,0.25 h -51.5 v 10.05078 10.05078 l 52.53321,-0.17968 52.5332,-0.17774 -0.2832,-10.12304 c -0.15596,-5.56701 -0.62071,-10.0086 -1.03321,-9.8711 z m 107.48243,29.25 c 0.69132,0 0.83242,2.10636 0.41015,6.14649 -0.35335,3.38068 -0.64258,24.76966 -0.64258,47.53125 0,38.50169 -0.12191,41.42943 -1.75,42.02929 -3.05772,1.12662 -18.7672,11.97831 -35.52734,24.54102 -8.92308,6.68836 -21.00677,15.55483 -26.85352,19.70508 -5.84675,4.15025 -19.34675,13.95074 -30,21.77734 -10.65325,7.8266 -24.76914,18.18992 -31.36914,23.03125 -12.16943,8.9267 -32.88952,23.24685 -33.60742,23.22656 -0.21585,-0.006 -1.74258,-1.06203 -3.39258,-2.34765 -1.65,-1.28561 -6.6,-4.80971 -11,-7.83008 -7.0926,-4.8687 -18.30071,-12.98497 -54,-39.10742 -5.5,-4.02454 -18.325,-13.33832 -28.5,-20.69727 -10.175,-7.35896 -23.45,-17.27221 -29.5,-22.0293 -11.36398,-8.93546 -23.57977,-17.43686 -29.25,-20.35546 l -3.25,-1.67188 0.0977,-41.22461 c 0.0544,-22.67338 0.39189,-43.5768 0.75,-46.45117 l 0.65234,-5.22656 4.70313,4.74414 c 2.58668,2.60851 7.1274,6.30875 10.0918,8.22461 l 5.39062,3.48437 0.65234,12.5 c 0.3592,6.875 0.65598,21.33776 0.65821,32.14063 0.004,19.53101 0.0165,19.64488 2.2539,20.21484 1.2375,0.31525 9.07285,5.70373 17.41211,11.97461 8.33925,6.27087 20.71425,15.21804 27.5,19.88086 12.10197,8.31586 29.02764,20.78433 55.77735,41.08789 7.39219,5.61081 15.94219,11.96819 19,14.12891 3.05782,2.16071 7.68691,5.68119 10.28515,7.82226 l 4.72266,3.89258 8.27734,-6.89258 c 8.43602,-7.02583 30.68977,-23.47379 38.65625,-28.57031 2.42389,-1.55067 12.33046,-8.7754 22.01367,-16.05664 9.68321,-7.28123 21.43047,-15.87621 26.10547,-19.09961 4.675,-3.22341 14.92772,-10.75498 22.78321,-16.73633 7.85548,-5.98136 14.94298,-11.12782 15.75,-11.4375 1.24856,-0.47912 1.46679,-5.46538 1.46679,-33.4375 V 699.0918 l 3.83008,-1.95508 c 2.10631,-1.07456 7.09628,-4.68291 11.08985,-8.01953 3.99355,-3.33663 7.73401,-6.06641 8.3125,-6.06641 z m -43.23243,32.8086 -0.0156,20.8457 c -0.008,11.4652 -0.34592,21.29678 -0.75,21.84765 -0.40408,0.55088 -1.99443,1.65064 -3.53516,2.44532 -1.54074,0.79467 -5.55748,3.83109 -8.92578,6.74804 -3.3683,2.91695 -6.56477,5.30469 -7.10351,5.30469 -0.62352,0 -0.74314,-4.96407 -0.32618,-13.6582 0.36027,-7.51196 0.65625,-17.38007 0.65625,-21.92774 v -8.26757 l 5.25,-3.07227 c 2.8875,-1.68938 7.3875,-4.68929 10,-6.66797 z m -230.20312,1.1914 c 0.43838,0 2.57588,1.82363 4.75,4.05274 2.17412,2.2291 6.0273,5.38504 8.5625,7.01367 l 4.60937,2.96093 0.72461,20.56836 c 0.39836,11.31286 0.57139,20.72158 0.38477,20.90821 -0.18663,0.18662 -4.72454,-2.81925 -10.08399,-6.68164 l -9.74414,-7.02344 v -20.90039 c 0,-11.49483 0.3585,-20.89844 0.79688,-20.89844 z m 102.58398,7.45899 c 1.2757,-0.44446 24.04481,1.26399 23.86914,1.79101 -0.1375,0.4125 -0.25,7.275 -0.25,15.25 v 14.5 h -11.36718 -11.36524 l -0.50195,-15.75 c -0.27646,-8.6625 -0.45011,-15.76824 -0.38477,-15.79101 z m 83.03711,36.54101 c 0.85513,0 0.67988,26.31354 -0.18359,27.56641 -0.40408,0.5863 -2.98438,2.57661 -5.73438,4.42383 -2.75,1.84721 -8.44088,6.2046 -12.64648,9.68359 -4.2056,3.47899 -8.1431,6.32617 -8.75,6.32617 -0.75564,0 -1.10352,-4.73646 -1.10352,-15.02539 v -15.02344 l 2.58789,-0.98437 c 3.37397,-1.28278 15.76673,-9.26756 21.08008,-13.58203 2.29256,-1.86158 4.43006,-3.38477 4.75,-3.38477 z m -141.41797,0.83008 4.47852,3.94141 c 2.46324,2.16824 8.53124,6.59492 13.48437,9.83593 l 9.00586,5.89258 0.0215,7 c 0.0125,3.85 0.31149,10.0375 0.66211,13.75 0.5115,5.41588 0.36115,6.74589 -0.75782,6.73047 -0.76703,-0.0106 -7.13203,-4.27578 -14.14453,-9.47852 l -12.75,-9.45898 V 775.9864 Z m 85.00391,15.66992 -0.002,26.12891 -0.002,26.13086 -5.71679,4.36914 c -3.1433,2.40358 -6.4058,4.85558 -7.25,5.44726 -1.18943,0.83364 -2.88369,0.24585 -7.53321,-2.60937 l -6,-3.68555 -0.0469,-27.58789 -0.0488,-27.58984 13.29883,-0.30274 z"
       sodipodi:insensitive="true" />
  </g>
  <g
     inkscape:groupmode="layer"
     id="layer1"
     inkscape:label="experimental"
     style="display:none">
    <path
       style="display:none;fill:#ffffff;fill-opacity:1;stroke:none;stroke-width:4.08538;stroke-miterlimit:4;stroke-dasharray:none;stroke-opacity:1"
       d="m 507.28298,1020.8275 c -2.26527,-1.7365 -9.06107,-6.4955 -15.10179,-10.5754 -9.73736,-6.5765 -25.12487,-17.5411 -74.13608,-52.82683 -7.5509,-5.43636 -25.15822,-18.01715 -39.12738,-27.95756 -13.96915,-9.94041 -32.19427,-23.33086 -40.50026,-29.75667 -15.6015,-12.06978 -32.37244,-23.55279 -40.15704,-27.49518 l -4.4619,-2.25959 0.13578,-55.68509 c 0.0747,-30.62679 0.53802,-58.86179 1.02967,-62.74444 l 0.89389,-7.05934 6.45676,6.40641 c 3.55123,3.52354 9.78659,8.5238 13.85637,11.11171 l 7.39959,4.70528 0.89665,16.88478 c 0.49314,9.28664 0.89914,28.82396 0.9022,43.41633 0.005,26.38214 0.0229,26.53586 3.09457,27.30567 1.69896,0.42591 12.45628,7.70473 23.90517,16.17536 11.44888,8.47063 28.43839,20.55432 37.75448,26.85289 16.61468,11.23284 39.85272,28.07508 76.57714,55.50084 10.14866,7.57897 21.88688,16.16793 26.08491,19.08656 4.19805,2.91877 10.55137,7.67299 14.11846,10.56515 l 6.48566,5.25833 11.36192,-9.31027 c 11.58173,-9.49033 42.13496,-31.7072 53.07207,-38.59147 3.32773,-2.09466 16.92732,-11.85555 30.22131,-21.69101 13.29398,-9.83532 29.42218,-21.44489 35.84044,-25.79901 6.41826,-4.35411 20.49342,-14.52713 31.27815,-22.60657 10.78471,-8.07957 20.51507,-15.03232 21.62302,-15.45066 1.71414,-0.64716 2.01445,-7.38014 2.01445,-45.16437 v -44.40382 l 5.25767,-2.63908 c 2.89173,-1.4515 9.74355,-6.32666 15.22627,-10.83371 5.48271,-4.50706 10.61838,-8.19465 11.41258,-8.19465 0.94912,0 1.14171,2.84551 0.56198,8.30285 -0.48511,4.56656 -0.88203,33.45862 -0.88203,64.20462 0,52.00731 -0.16737,55.9624 -2.40256,56.7726 -4.19791,1.52179 -25.76377,16.17873 -48.7736,33.14821 -12.25041,9.03444 -28.84098,21.01319 -36.86793,26.61934 -8.02694,5.60602 -26.56096,18.84262 -41.18671,29.41465 -14.62574,10.57204 -34.00586,24.5725 -43.06694,31.11208 -16.70729,12.05806 -45.15388,31.40096 -46.13948,31.37356 -0.29633,-0.014 -2.39219,-1.4359 -4.65746,-3.1725 z m -2.74578,-69.7994 -8.23734,-4.97709 -0.0649,-37.2677 -0.0649,-37.2677 18.25802,-0.40726 18.25801,-0.40726 -0.003,35.29569 -0.003,35.29582 -7.84619,5.90306 c -4.31541,3.24674 -8.79446,6.5571 -9.95346,7.35623 -1.63295,1.12615 -3.96132,0.33297 -10.3446,-3.52379 z m -71.04707,-50.60708 -17.50436,-12.77787 v -19.05442 -19.05441 l 6.14867,5.32505 c 3.38176,2.92891 11.71238,8.90707 18.51248,13.28496 l 12.36381,7.95989 0.0313,9.45548 c 0.0172,5.20051 0.42515,13.55848 0.90651,18.57327 0.70223,7.31557 0.49679,9.11265 -1.03943,9.09171 -1.05305,-0.0149 -9.79159,-5.77595 -19.41898,-12.80366 z m 137.63225,-7.46551 V 872.6604 l 3.55422,-1.32958 c 4.63209,-1.73278 21.64512,-12.51784 28.93976,-18.34579 3.14744,-2.51448 6.08199,-4.57186 6.52123,-4.57186 1.174,0 0.93338,35.54329 -0.25207,37.23568 -0.55476,0.79197 -4.09766,3.48138 -7.8731,5.97654 -3.77545,2.49517 -11.5885,8.38161 -17.36233,13.08098 -5.77383,4.69938 -11.17958,8.54438 -12.01279,8.54438 -1.03741,0 -1.51492,-6.39717 -1.51492,-20.29524 z m -203.53862,-38.029 -13.37805,-9.48601 v -28.23083 c 0,-15.52703 0.49241,-28.23096 1.09426,-28.23096 0.60185,0 3.5364,2.46358 6.52123,5.47462 2.98483,3.01103 8.2747,7.27455 11.75525,9.47447 l 6.3283,3.99987 0.99438,27.78408 c 0.54691,15.28114 0.78475,27.99025 0.52854,28.24231 -0.25623,0.25206 -6.48598,-3.81029 -13.84391,-9.02755 z m 275.40253,-8.75308 c 0.49461,-10.14708 0.89928,-23.47525 0.89928,-29.61807 v -11.16898 l 7.20768,-4.14908 c 3.96422,-2.28199 10.14222,-6.33587 13.7289,-9.00864 l 6.52123,-4.85957 -0.021,28.15818 c -0.011,15.487 -0.47491,28.76695 -1.02966,29.51097 -0.55476,0.74414 -2.73932,2.23122 -4.85457,3.30469 -2.11527,1.07346 -7.62946,5.17552 -12.25376,9.11562 -4.62431,3.94023 -9.01297,7.16401 -9.7526,7.16401 -0.85601,0 -1.01792,-6.70528 -0.44548,-18.44913 z M 496.66377,820.38442 c -0.37955,-11.70116 -0.6167,-21.29998 -0.527,-21.33074 1.7514,-0.60037 33.01041,1.70789 32.76924,2.41978 -0.18878,0.5572 -0.34323,9.82694 -0.34323,20.59944 v 19.58635 h -15.60446 -15.60445 z m -45.10632,18.11468 c -1.95565,-1.02214 -11.99491,-8.43686 -22.30947,-16.47726 l -18.75377,-14.6188 v -7.68249 c 0,-4.22539 -1.25936,-20.07202 -2.79858,-35.21475 -1.53923,-15.14273 -4.00808,-40.29713 -5.48636,-55.89867 -1.47827,-15.60155 -3.62363,-35.9646 -4.76747,-45.25124 -3.81884,-31.00453 -3.02868,-28.16837 -8.47113,-30.40577 -2.68141,-1.10231 -12.06381,-6.18353 -20.84978,-11.29159 -8.78598,-5.10806 -21.22582,-11.86505 -27.64408,-15.0155 -10.99396,-5.3965 -37.38323,-20.5245 -43.11072,-24.71381 -2.4155,-1.76677 -1.23629,-2.72243 15.78823,-12.79532 10.11929,-5.98726 21.88879,-12.40198 26.15444,-14.25493 7.51898,-3.26613 7.87575,-3.29718 11.68614,-1.01728 10.90519,6.52506 30.83706,9.16231 51.46766,6.80988 19.31773,-2.20273 26.78139,-6.28891 47.20409,-25.84312 9.19448,-8.80349 17.12684,-16.00634 17.62748,-16.00634 0.50063,0 0.74482,31.30453 0.54264,69.56562 l -0.36761,69.56564 44.27572,-3.1e-4 44.27571,-3e-4 0.12068,-13.84552 c 0.0663,-7.61504 1.61261,-50.70282 0.70418,-79.35851 -0.90843,-28.65568 -2.03278,-76.81361 -2.81856,-98.55356 -2.14996,-1.75557 -21.67714,-10.19334 -23.34873,-10.19461 -0.83188,33.85947 -2.76581,74.91956 -3.29133,108.99714 l -0.88338,63.78751 -13.72891,-0.39215 c -7.55089,-0.21567 -14.0378,-0.69351 -14.41535,-1.06186 -0.37754,-0.36836 -1.0609,-31.77193 -1.51856,-69.78572 -1.2154,-38.43731 -1.21376,-81.62403 -3.15004,-117.41678 l -13.41487,-6.45453 c -7.37816,-3.55 -14.20468,-6.72078 -15.17004,-7.0462 -1.20705,-0.40688 -0.17105,-2.87167 3.31731,-7.89238 2.78988,-4.01539 9.95987,-15.50673 15.9333,-25.5363 11.81032,-19.82983 12.12811,-20.06454 21.81693,-16.11295 4.06583,1.65826 6.90245,1.07878 39.3392,-8.03647 54.80595,-15.40134 63.79813,-17.00594 94.94093,-16.94157 22.50315,0.0465 27.68728,0.46898 37.75448,3.07677 21.35336,5.53134 55.05386,16.53367 55.64708,18.16733 0.32182,0.88622 0.7523,46.95199 0.95645,102.36837 l 0.37136,100.75704 -5.70753,2.3222 c -5.5204,2.24604 -30.09672,16.64739 -51.26736,30.04189 -16.56632,10.48139 -39.75116,23.21778 -43.89474,24.11322 -4.58748,0.99135 -4.35831,-0.0975 -8.24641,39.18086 -1.54437,15.60155 -3.72205,35.66068 -4.83926,44.57584 -3.50363,27.95802 -7.59813,75.60995 -7.22076,84.03546 0.25087,5.60103 -0.26486,8.8202 -1.6823,10.50085 -2.86576,3.39803 -33.83933,23.65356 -38.25085,25.01461 -2.00066,0.61731 -7.28681,1.4421 -11.747,1.83288 l -8.10943,0.71064 0.9111,-28.84327 c 0.50112,-15.86386 1.26177,-30.5702 1.69033,-32.68081 l 0.77921,-3.83747 h -44.80067 -44.8007 l 0.26644,33.09418 0.26644,33.09419 -6.70804,0.36228 c -3.76871,0.20356 -8.26608,-0.45211 -10.26374,-1.49626 z m 132.9967,-121.6227 c -0.21411,-7.51982 -0.85266,-13.52044 -1.41898,-13.33471 -0.56631,0.18573 -32.8464,0.3377 -71.73352,0.3377 H 440.6978 v 13.57703 13.57703 l 72.12283,-0.24232 72.12283,-0.24233 z m 80.0648,-194.06663 c 7.94313,-2.27255 19.94156,-8.19845 27.79471,-13.72753 2.34425,-1.65048 2.58219,-4.82651 3.14273,-41.94953 0.33354,-22.09011 0.20235,-40.16384 -0.29154,-40.16384 -0.49389,0 -6.54163,1.49537 -13.4394,3.32305 -6.89777,1.82767 -18.71941,4.28136 -26.27031,5.45265 -7.5509,1.17129 -22.06921,4.2844 -32.26292,6.91802 -32.43012,8.37858 -42.37326,14.16944 -45.03402,18.39797 -2.66077,4.22852 -2.59424,4.08774 -3.26998,7.01365 -0.94921,4.2702 -0.46579,7.4433 2.4695,16.20939 2.00736,5.9949 4.57081,12.72337 5.69655,14.95216 3.48004,6.88996 16.12055,21.69078 20.60375,23.47509 4.4832,1.78432 31.76054,4.05635 42.87333,3.29971 4.90809,-0.33418 13.0025,-1.77454 17.9876,-3.20079 z M 628.54683,508.0281 c -11.40412,-7.43214 -14.05247,-21.41236 -6.01927,-31.77482 11.26282,-14.52855 25.73411,-12.98039 34.19098,3.6578 4.83028,9.50322 4.18771,16.40499 -2.19308,23.55528 -8.4962,9.52083 -16.27368,10.88652 -25.97863,4.56174 z M 651.43647,391.07954 V 379.6891 l -11.02549,10e-4 -11.02549,0.001 -0.27919,11.81935 -0.27918,11.81935 11.30468,-0.4301 11.30467,-0.43009 z m -49.01977,10.42461 c 1.03634,-0.64685 2.12087,-5.14286 2.60167,-10.78557 l 0.82451,-9.67633 H 594.66064 583.4784 v 10.80626 10.80626 l 8.58056,-0.0207 c 4.71931,-0.0108 9.38029,-0.51985 10.35774,-1.12995 z m 87.65231,-0.20016 h 4.6135 v -10.80626 -10.80627 h -10.98312 -10.98312 v 11.66526 11.66526 l 6.36962,-0.859 c 3.5033,-0.47244 8.44571,-0.85899 10.98312,-0.85899 z M 838.1495,804.26037 c -15.61182,-19.00645 -24.09848,-28.56297 -39.96086,-44.99888 -8.61365,-8.92499 -17.8532,-20.13159 -21.71679,-26.34027 -3.6987,-5.94345 -9.37162,-14.02756 -12.6067,-17.96468 -7.15894,-8.71281 -8.15195,-13.4058 -7.91746,-37.41742 0.17793,-18.2235 4.46505,-51.2511 7.50463,-57.81466 1.73643,-3.74989 5.80239,-5.61706 10.4061,-4.77868 6.10634,1.11208 43.86673,86.18781 58.6577,132.15866 7.35512,22.85957 16.23209,59.82056 15.64848,65.15502 -0.37562,3.43383 -1.09777,2.85704 -10.0151,-7.99909 z M 181.84633,798.4342 c 0.47489,-1.85733 2.42665,-10.06334 4.33722,-18.23557 6.94133,-29.69061 13.66887,-49.88872 26.32004,-79.02081 8.7666,-20.18703 29.12588,-60.78524 30.48272,-60.78524 0.67567,0 6.55905,2.50396 13.07419,5.56438 13.57626,6.37727 14.3989,7.59732 14.3989,21.35464 0,8.50342 -0.61802,10.42111 -8.35161,25.91463 -4.59338,9.20243 -15.25044,27.86409 -23.68236,41.47036 -13.19939,21.29939 -17.03422,26.3698 -27.5837,36.47115 -12.18382,11.66626 -15.38472,14.91256 -24.88737,25.24028 -4.35112,4.7289 -4.86374,4.98173 -4.10803,2.02618 z m 464.02198,-31.40571 c 0.3642,-1.67159 1.34833,-11.85312 2.18698,-22.62561 1.28038,-16.44676 4.87821,-50.07664 8.9876,-84.00964 0.51465,-4.24972 1.71739,-7.98718 2.68829,-8.35375 0.96633,-0.36484 6.29114,-3.48276 11.83292,-6.9287 5.54178,-3.44594 19.34297,-11.94707 30.66931,-18.89141 l 20.59336,-12.62603 0.40958,7.25046 c 0.22528,3.98775 -0.87609,19.22197 -2.4475,33.8538 -1.57141,14.63183 -2.90056,34.8747 -2.95369,44.98416 l -0.0965,18.38084 -10.00999,6.46158 c -5.50548,3.55386 -21.13975,15.25502 -34.74279,26.00257 -13.60312,10.74754 -25.41842,19.54099 -26.25629,19.54099 -0.86078,0 -1.2354,-1.32198 -0.86126,-3.03926 z m -288.91682,-13.4974 c -10.19371,-8.13267 -25.48428,-19.97046 -33.97904,-26.30622 -15.28072,-11.39701 -15.44515,-11.57887 -15.45829,-17.09483 -0.007,-3.06639 -0.58301,-15.60483 -1.27933,-27.86318 -0.69633,-12.25836 -1.67186,-31.89068 -2.16787,-43.62739 l -0.90184,-21.33948 16.93974,10.93363 c 9.31684,6.0135 23.88998,14.38832 32.38474,18.61072 l 15.44501,7.67711 v 6.50174 c 0,3.57597 0.89662,14.83346 1.99251,25.01666 2.19224,20.37094 6.64682,81.43249 5.97855,81.95156 -0.23109,0.17949 -8.76047,-6.32765 -18.95418,-14.46032 z M 228.44348,496.5314 228.30071,413.46104 h 14.90134 14.90133 l 0.24769,23.9764 c 0.25665,24.8442 0.23427,60.38868 -0.0706,112.11499 l -0.17712,30.05492 -14.75857,-0.003 -14.75857,-0.003 -0.14276,-83.07034 z m 537.57697,81.38747 c -0.0288,-0.18573 -0.37507,-37.22614 -0.76964,-82.312 l -0.7172,-81.97431 15.21437,-0.42346 15.21423,-0.42345 -0.14236,82.73546 -0.14251,82.73545 h -14.30222 c -7.86625,0 -14.32584,-0.15196 -14.35467,-0.33769 z M 171.35804,529.62838 c -0.23826,-12.25836 -0.23101,-37.35302 0.0161,-55.76591 l 0.4493,-33.47798 13.96605,0.3838 13.9661,0.3838 v 55.34359 55.34359 l -13.98217,0.0385 -13.98217,0.0385 -0.43317,-22.28792 z m 652.67417,-33.60881 c 0.21362,-29.6832 0.69729,-54.26149 1.07483,-54.61844 0.37755,-0.35695 6.41607,-0.32189 13.41891,0.0779 l 12.73246,0.7269 -0.37645,53.50439 -0.37645,53.50437 -13.43085,0.38715 -13.43098,0.38715 z M 287.98872,459.18506 c -0.20251,-37.40658 -0.0593,-70.12723 0.31825,-72.71257 0.56014,-3.83571 -0.67391,-4.21812 8.16723,-10.99095 8.84113,-6.77282 14.11891,-9.86017 26.15503,-12.62775 39.4652,-8.9144 41.72957,-9.21131 71.3903,-9.36078 27.21651,-0.13714 46.67827,1.80848 46.67827,4.6665 0,0.61901 -2.09168,4.65319 -4.64818,8.96483 -2.5565,4.31166 -7.21034,13.91791 -10.34187,21.34721 -3.13154,7.42931 -6.56346,15.42847 -7.62651,17.7759 l -1.93281,4.26808 -10.03478,-3.08729 c -5.51913,-1.69802 -12.81489,-4.22651 -16.21279,-5.61887 -9.0049,-3.68993 -52.98237,-3.42181 -65.21229,0.39756 l -8.23735,2.57253 -0.85914,9.40622 c -0.47252,5.17343 -0.93587,26.78538 -1.02966,48.02656 -0.13002,29.42948 0.28244,40.10121 1.73287,44.84303 2.36818,7.74216 1.73786,8.4134 -13.57297,14.4542 -6.04072,2.38333 -11.74414,4.63802 -12.67426,5.01043 -1.32347,0.52989 -1.7712,-14.10982 -2.05934,-67.33484 z M 183.84828,380.59272 C 125.85503,350.22192 79.77189,314.16528 46.286559,272.96087 33.813973,257.61307 0,207.03369 0,203.72481 0,203.37246 2.502024,202.69053 5.5600411,202.20939 14.462192,200.80881 55.171122,187.01257 73.786953,179.08734 100.51957,167.70657 123.98243,153.6314 171.61129,120.40335 224.42695,83.556749 241.69865,71.942474 258.78983,61.78052 280.61347,48.804763 334.82589,22.349434 353.51926,15.553118 367.86428,10.337732 393.03655,2.4603162 400.32508,0.90570001 L 404.5713,0 404.5502,32.141814 c -0.0228,34.755944 1.82313,52.745686 8.05487,78.497756 6.39561,26.4292 19.12564,53.01706 34.77433,72.62946 13.08175,16.39526 35.02991,29.97768 55.01037,34.04267 9.37957,1.90825 12.08628,1.97277 19.55921,0.4662 38.95774,-7.85402 75.66634,-51.20974 89.6666,-105.90327 6.79221,-26.534496 7.71395,-34.621323 8.52453,-74.788342 l 0.73966,-36.65283524 17.3377,4.43878104 c 18.24217,4.6703458 23.4746,6.5112202 46.83901,16.4789722 49.01493,20.910769 91.60583,45.70223 149.6736,87.122414 68.50668,48.86642 83.43398,57.7392 122.86092,73.02823 17.77261,6.89186 54.117,18.77263 62.7217,20.50335 l 3.6873,0.74164 -12.7001,20.62414 c -13.34936,21.67886 -26.27965,40.05817 -39.00401,55.44106 -9.80271,11.85081 -40.6241,40.92573 -53.09104,50.0827 -27.31352,20.06172 -34.26721,24.79142 -48.79239,33.18733 -25.13405,14.52819 -41.26194,22.63268 -49.869,25.05992 -4.39778,1.24019 -8.35912,1.89751 -8.80311,1.46072 -0.44386,-0.43679 -1.26004,-5.81173 -1.81345,-11.94431 -0.55342,-6.1326 -1.42383,-12.97372 -1.93427,-15.20251 -0.91462,-3.99409 -0.72434,-4.15744 13.24167,-11.36287 7.79321,-4.02079 18.49406,-10.04331 23.77969,-13.38337 5.28563,-3.34006 12.69924,-7.8709 16.47469,-10.06852 17.84524,-10.3873 48.07875,-35.18977 63.04902,-51.72299 10.74205,-11.86354 41.34652,-50.51227 40.39044,-51.0068 -0.25989,-0.1344 -5.72399,-1.96244 -12.14226,-4.06222 -17.95589,-5.87442 -54.44471,-24.0662 -73.11121,-36.4502 -21.4127,-14.20586 -51.72145,-35.16364 -67.61005,-46.75063 C 765.06464,102.3727 730.13761,82.145924 683.01295,61.912505 653.72789,49.338687 656.81423,49.111526 655.75494,63.918796 653.7845,91.462544 645.22002,131.43005 636.2813,154.79563 c -8.30935,21.72043 -21.49636,42.67962 -36.83171,58.53965 -6.79647,7.02899 -28.94278,22.81907 -38.88821,27.72686 -19.89391,9.8171 -48.05116,13.86029 -68.38019,9.81896 -23.15241,-4.60261 -54.85761,-24.0144 -72.18599,-44.19649 -28.31738,-32.98084 -46.23242,-80.5503 -50.83141,-134.971675 -0.84757,-10.029564 -1.75402,-18.979082 -2.01433,-19.887821 -0.6253,-2.182852 -12.61103,2.812532 -49.32535,20.557701 -33.04357,15.970983 -51.06274,26.236732 -73.44963,41.845155 -8.68353,6.05426 -29.68875,20.71035 -46.67827,32.56908 -55.3475,38.63267 -89.90235,58.96531 -117.958464,69.40868 -10.039975,3.7372 -19.077959,6.7949 -20.084397,6.7949 -3.597618,0 -3.166998,2.35169 1.751396,9.56476 6.81559,9.9954 32.996527,39.8978 47.873245,54.67816 21.01206,20.87596 56.62049,45.01626 92.51737,62.72105 9.13603,4.50601 16.8885,8.93492 17.22771,9.84201 0.33922,0.90711 0.1585,6.45553 -0.4016,12.32984 -0.77437,8.12167 -1.53026,10.75375 -3.15502,10.98604 -1.17518,0.16803 -4.84357,1.59225 -8.15199,3.16497 -3.30843,1.57271 -6.36263,2.80915 -6.78712,2.74765 -0.42448,-0.0615 -7.93006,-3.86059 -16.67906,-8.44239 z m 577.41936,-23.5203 c -16.96686,-11.70787 -29.91776,-17.31086 -56.68845,-24.52538 -37.68167,-10.15496 -47.06253,-11.46027 -75.61865,-10.52213 -27.99359,0.91968 -33.33327,1.92872 -68.31375,12.90934 -14.24829,4.47263 -30.58447,9.44481 -36.30258,11.04929 l -10.3966,2.9172 -25.46842,-8.17654 c -62.18754,-19.96512 -85.04772,-22.45398 -130.12572,-14.16718 -47.07469,8.65386 -86.42806,21.21778 -101.21285,32.31309 l -4.5288,3.39866 v -24.31962 -24.31964 l 6.52123,-2.89448 c 16.30174,-7.2356 40.81949,-16.38305 52.62745,-19.63501 10.57631,-2.91276 16.79911,-3.67988 34.20787,-4.21698 19.26449,-0.59437 22.97006,-0.31419 39.12737,2.95843 9.81617,1.98823 35.53787,9.32166 57.15934,16.29651 21.62149,6.97483 46.15028,13.99772 54.50843,15.60638 l 15.19665,2.92485 16.35228,-3.57208 c 8.99375,-1.96463 31.08922,-8.15215 49.10103,-13.75003 43.77777,-13.60564 53.29421,-16.15647 72.48472,-19.42913 26.56286,-4.52992 38.88996,-3.5053 73.14148,6.07951 16.02174,4.48345 25.1181,7.92589 35.69883,13.50997 l 14.19871,7.49347 v 24.91597 c 0,13.70377 -0.15445,24.8751 -0.34322,24.82515 -0.18878,-0.05 -5.28563,-3.50126 -11.32635,-7.66962 z M 222.04371,219.16869 c -9.23766,-5.99321 -10.34961,-12.91213 -3.20485,-19.94184 3.76157,-3.701 5.74022,-4.59266 10.19133,-4.59266 6.17205,0 13.28266,4.79533 15.45798,10.42472 1.66396,4.30608 -1.60407,10.47426 -7.38788,13.94405 -5.48625,3.29131 -10.15969,3.34275 -15.05658,0.16573 z m 564.29662,-0.98413 c -2.06703,-1.10348 -4.70847,-3.81447 -5.87007,-6.02443 -1.88773,-3.59187 -1.89184,-4.43668 -0.0384,-7.96396 5.29853,-10.08125 17.87173,-12.76251 25.34891,-5.40573 3.03381,2.98503 4.22424,5.42997 4.22424,8.67619 0,6.84866 -6.65783,12.84933 -14.1777,12.77835 -3.15106,-0.0297 -7.42033,-0.95693 -9.48736,-2.06042 z m -59.73812,-28.93219 c -4.71931,-2.14888 -8.58056,-4.62916 -8.58056,-5.51173 0,-2.53781 8.19264,-17.83436 11.34778,-21.18755 4.38795,-4.66339 13.20109,-3.4715 19.88542,2.68932 3.64667,3.36099 3.9229,7.63357 0.87851,13.58716 -2.58817,5.06132 -11.43315,14.48154 -13.51308,14.39185 -0.79065,-0.034 -5.29875,-1.82017 -10.01807,-3.96905 z m -447.04769,-4.80354 c -2.74436,-3.53631 -5.72669,-8.84978 -6.62742,-11.8077 -1.55377,-5.10253 -1.44696,-5.53944 2.08515,-8.52871 4.92523,-4.16827 14.17146,-6.90342 17.19796,-5.08734 2.27081,1.36263 10.10661,14.83528 11.75701,20.21468 0.69742,2.27325 -0.25846,3.57696 -4.78233,6.5225 -3.10968,2.02476 -7.67597,4.00422 -10.14729,4.3988 -4.08585,0.65236 -4.9458,0.1344 -9.48308,-5.71223 z m 222.11265,-37.74604 c -38.64514,-8.27294 -56.77704,-30.80692 -62.97236,-78.26079 -1.1563,-8.856854 -1.95092,-16.196874 -1.7658,-16.31115 0.18511,-0.114276 7.13237,-1.269425 15.43836,-2.566988 25.74366,-4.021699 56.92051,-5.429823 82.73594,-3.736806 18.57631,1.218258 49.10081,5.002247 50.80612,6.298215 0.20444,0.155354 -0.20419,3.258467 -0.90806,6.895801 -0.70385,3.637335 -2.00571,11.172232 -2.89301,16.744212 -2.37513,14.915211 -3.83303,19.393124 -11.69015,35.905896 -10.6323,22.34523 -19.76165,30.75733 -37.9611,34.97864 -10.48728,2.43249 -19.60126,2.44818 -30.78994,0.053 z"
       id="path9343-3"
       sodipodi:nodetypes="sssssscsscsscsssssssscssssssscssssssssssssccccccccssccscccsscssssscssssssssscsssscssssscssccsssssssssscccssscssssssssssssssscccszccccssccsssssssssscssssssssscsscccccssssscccccsssssssszcsszssssssscccccccccssccccccssscccccccssssssssssssssssssssssssssssscssscsssssscsscsscssssccccsscccccsscccccssssccccccccsssscccccssszcssssscssscssssssssssssssscssssssscssssscsssssssssssssssssssssssssssssssssssssssssssscssscccsssssscssssscssssssssssssssssssssssssssssssssssssssssssss"
       inkscape:label="white-logo" />
    <g
       id="g891"
       transform="matrix(1.2632049,0,0,1.256513,94.297994,-438.35404)"
       style="display:none">
      <path
         id="path840-3"
         style="color:#000000;display:inline;fill:#000000;-inkscape-stroke:none"
         d="m 378.22715,348.8655 -0.89063,44.87305 c -0.17044,-0.0289 -0.33536,-0.0686 -0.50976,-0.0977 -3.01848,-0.50294 -6.55147,-0.99594 -10.47461,-1.49023 -7.84628,-0.98859 -17.00165,-1.94643 -24.57422,-2.45118 -21.05428,-1.40337 -44.90152,-0.30625 -65.84766,3.01954 -2.25813,0.35853 -4.08247,0.66163 -5.90234,0.96289 l 0.0293,-43.96875 -33.41016,7.24218 c -10.75032,2.33054 -25.77016,7.50622 -37.46094,11.82618 -18.66081,6.89551 -54.55788,24.97217 -73.26562,36.27734 -13.28475,8.02803 -26.48315,17.06873 -65.0293,44.40039 -34.24957,24.28511 -49.25261,33.33536 -66.72265,40.89453 -5.53663,2.39566 -16.22125,6.4077 -25.71485,9.67774 -9.4936,3.27003 -21.52892,6.26156 -18,5.69726 -1.88246,0.30103 -3.52863,0.62096 -5.58789,1.19141 -1.02963,0.28522 -2.04739,0.53415 -4.17969,1.46289 -1.06614,0.46437 -2.36945,0.94328 -4.9707,2.83789 -2.60125,1.89461 -10.36523,5.72843 -10.36523,20.3164 0,10.62665 1.801,9.58156 2.42773,10.99415 0.62674,1.41258 1.12184,2.34477 1.64844,3.32031 1.05319,1.95107 2.19809,3.88975 3.55078,6.11523 2.70538,4.45096 6.17484,9.87536 9.9375,15.59571 7.52531,11.44068 15.59896,23.30721 21.625,30.84375 25.81135,32.28122 60.40743,59.92531 102.52344,83.08789 l -16.22071,-0.45313 -0.66211,50.15234 c -0.18174,13.76631 -0.1894,31.79346 -0.01,41.61329 0.002,0.11292 -0.002,0.36782 0,0.47851 l 0.78515,41.0918 34.78125,-0.0977 6.1211,-0.0176 0.0351,20.53711 19.41016,0.004 c -0.75303,1.0061 -1.28897,1.92886 -1.78711,2.42773 -1.61,1.6124 -2.15866,2.4256 -2.66406,3.11329 -1.0108,1.37536 -1.43683,2.11055 -1.9043,2.88671 -0.93494,1.55234 -1.72652,3.002 -2.65039,4.73243 -1.84774,3.46086 -4.06243,7.8285 -6.45508,12.67773 -4.78528,9.69846 -10.13432,21.00959 -13.69531,29.34375 -9.59723,22.46143 -15.25311,39.7133 -20.54492,62.71875 -1.37742,5.98816 -2.99173,12.80994 -3.04102,13.00586 -0.28018,1.11374 -1.15867,1.30155 -0.95507,8.03516 0.10179,3.3668 -0.15973,12.58489 11.05273,20.17578 5.60623,3.79544 12.59947,4.6494 16.92969,4.1582 4.33022,-0.4912 6.7777,-1.66492 8.52148,-2.53906 6.97511,-3.49657 6.51293,-4.55585 7.55078,-5.60156 1.03785,-1.04572 1.78807,-1.87746 2.66992,-2.85157 6.79635,-7.50732 8.2495,-9.00249 17.03125,-17.54883 6.75736,-6.5762 11.81018,-12.86531 18.48438,-23.15625 -0.0448,1.9926 -0.094,3.69454 -0.13281,6.09766 -0.13843,8.57333 -0.23622,19.55186 -0.26367,30.99414 l -0.13672,56.51369 16.8457,8.6699 c 1.09769,0.565 14.66106,9.4625 25.23828,17.7793 6.75249,5.3095 19.85576,15.0791 30.30274,22.6348 10.14166,7.3348 23.00132,16.6731 28.38867,20.6152 35.7199,26.1375 46.96308,34.2935 54.61328,39.5449 4.13431,2.838 9.78793,6.9412 9.7832,6.9375 1.15352,0.8988 2.21429,1.6888 3.36914,2.4883 0.57743,0.3998 1.12931,0.7827 2.09961,1.3672 0.48515,0.2922 1.02972,0.6272 2.19531,1.1953 1.1656,0.5681 0.59095,2.2958 10.39844,2.5684 10.80945,0.3039 9.77166,-1.654 10.91797,-2.1602 1.14677,-0.5063 1.65713,-0.796 2.11328,-1.0449 0.91231,-0.4978 1.41387,-0.8095 1.95313,-1.1426 1.0785,-0.6661 2.12057,-1.345 3.35742,-2.164 2.47371,-1.6381 5.59248,-3.7624 9.07617,-6.17 6.96737,-4.8151 15.27151,-10.682 21.67188,-15.3769 6.61307,-4.8509 20.72652,-15.2127 31.38476,-23.043 10.55598,-7.7551 24.15769,-17.6243 29.66992,-21.5371 6.29496,-4.4684 18.27207,-13.2652 27.37696,-20.0898 8.14476,-6.105 16.06806,-11.8151 22.11523,-15.9922 3.02358,-2.0886 5.59858,-3.8038 7.31641,-4.8926 1.71783,-1.0888 4.67952,-2.0196 -0.25586,-0.2012 3.25158,-1.1984 8.8464,-4.7796 11.91406,-8.8789 3.06804,-4.0998 4.06043,-7.5413 4.6543,-9.9141 1.18772,-4.7455 1.11027,-7.0231 1.25195,-10.4257 0.28335,-6.8052 0.28516,-16.9904 0.28516,-36.26762 0,-11.27493 0.0731,-22.23096 0.1875,-30.69726 0.005,-0.33918 0.008,-0.23085 0.0137,-0.57031 2.0021,2.2664 3.91647,4.54273 6.0625,6.80273 11.28799,11.88748 16.63037,18.00034 27.79297,31.8125 3.31893,4.10672 3.17679,5.35561 9.66797,10.62496 1.62279,1.3174 3.72211,3.4526 9.92187,5.1036 6.19976,1.6509 18.94868,-0.9534 24.60352,-6.6856 11.30966,-11.46443 7.23475,-14.60115 7.40234,-16.15819 0.57836,-5.37332 0.0396,-6.40482 -0.20313,-8.32422 -0.24271,-1.91941 -0.55139,-3.74928 -0.92382,-5.75 -0.74486,-4.00144 -1.74991,-8.60266 -2.93164,-13.60352 -2.36347,-10.00172 -5.38797,-21.38061 -8.36329,-30.7793 -5.89501,-18.62173 -15.59464,-43.07721 -24.6582,-63.83203 -4.53178,-10.3774 -8.85059,-19.70044 -12.63476,-27.05273 -0.30111,-0.58503 -0.59187,-1.01143 -0.88477,-1.57031 h 11.74023 l 0.0352,-21.0293 6.62109,-0.19336 33.88282,-0.99414 0.4414,-63.71875 0.43946,-63.36524 -21.3125,-1.23632 c 6.4667,-3.38129 13.61463,-7.56841 22.76367,-12.94336 11.11091,-6.52753 17.8166,-11.14795 37.83203,-26.08985 13.58116,-10.13859 32.40747,-28.18524 43.10547,-41.33007 10.18817,-12.51843 20.21633,-27.05693 30.40234,-43.86915 l 27.63281,-45.61132 -37.44335,-7.6543 c 1.09713,0.22428 -8.75934,-2.49696 -17.4629,-5.38867 -8.70355,-2.89171 -18.43905,-6.34029 -24.0625,-8.55664 -27.6511,-10.89807 -34.3177,-15.03745 -83.98437,-51.04492 -43.16114,-31.29109 -76.28085,-50.94664 -113.75,-67.19336 -17.23753,-7.47426 -24.05631,-9.88974 -37.76563,-13.45704 z"
         sodipodi:nodetypes="cccssscccssssscsssssssssccssccccccssssssssssssssscscccsssscssscssssssssssscssssccssssssssssssccccccccssscccsssscc"
         inkscape:label="external-under" />
      <path
         style="display:inline;fill:#ffffff;fill-opacity:1;stroke:none;stroke-width:3;stroke-miterlimit:4;stroke-dasharray:none;stroke-opacity:1"
         d="m 319.85064,1136.4481 c -1.65,-1.2856 -6.6,-4.8087 -11,-7.8291 -7.0926,-4.8687 -18.30071,-12.9859 -54,-39.1084 -5.5,-4.0245 -18.325,-13.3383 -28.5,-20.6972 -10.175,-7.359 -23.45,-17.2721 -29.5,-22.0292 -11.36398,-8.9355 -23.57977,-17.4364 -29.25,-20.355 l -3.25,-1.6728 0.0989,-41.22436 c 0.0544,-22.67338 0.39189,-43.57607 0.75,-46.45044 l 0.6511,-5.22611 4.70304,4.74274 c 2.58668,2.60851 7.12846,6.31026 10.09285,8.22612 l 5.38979,3.48337 0.65311,12.5 c 0.3592,6.875 0.65492,21.33872 0.65715,32.14159 0.004,19.53099 0.0167,19.64479 2.25406,20.21479 1.2375,0.3152 9.07303,5.7039 17.41229,11.9748 8.33925,6.2708 20.71425,15.2166 27.5,19.8794 12.10197,8.3159 29.02833,20.7844 55.77804,41.0879 7.39219,5.6109 15.94219,11.9694 19,14.1301 3.05782,2.1607 7.68551,5.6804 10.28375,7.8214 l 4.72409,3.8929 8.27591,-6.8925 c 8.43602,-7.0259 30.6907,-23.4733 38.65718,-28.5698 2.42389,-1.5507 12.3297,-8.7768 22.01291,-16.058 9.68321,-7.2812 21.43083,-15.8759 26.10583,-19.0993 4.675,-3.2234 14.92721,-10.7546 22.7827,-16.7359 7.85548,-5.9814 14.94298,-11.1286 15.75,-11.4383 1.24856,-0.4791 1.4673,-5.4636 1.4673,-33.43574 v -32.87269 l 3.82964,-1.95374 c 2.10631,-1.07456 7.09711,-4.6837 11.09067,-8.02032 3.99355,-3.33663 7.73432,-6.06659 8.31281,-6.06659 0.69133,0 0.83161,2.10656 0.40934,6.14669 -0.35335,3.38068 -0.64246,24.7698 -0.64246,47.53139 0,38.5017 -0.12191,41.4296 -1.75,42.0295 -3.05772,1.1266 -18.76608,11.9772 -35.52622,24.5399 -8.92308,6.6884 -21.00749,15.5564 -26.85424,19.7066 -5.84675,4.1503 -19.34675,13.9495 -30,21.7761 -10.65325,7.8266 -24.76954,18.1913 -31.36954,23.0326 -12.16943,8.9267 -32.88965,23.2464 -33.60755,23.2261 -0.21585,-0.01 -1.74245,-1.0629 -3.39245,-2.3485 z m -2,-51.6734 -6,-3.6845 -0.0473,-27.5897 -0.0473,-27.5897 13.29896,-0.3015 13.29896,-0.3016 -0.002,26.1299 -0.002,26.1298 -5.71509,4.3702 c -3.1433,2.4036 -6.4058,4.8542 -7.25,5.4459 -1.18943,0.8336 -2.88539,0.2465 -7.53491,-2.6088 z m -51.75,-37.465 -12.75,-9.4595 v -14.1062 -14.1063 l 4.47863,3.9423 c 2.46324,2.1682 8.53118,6.594 13.48431,9.835 l 9.00568,5.8927 0.0228,7 c 0.0125,3.85 0.30967,10.0375 0.66029,13.75 0.5115,5.4159 0.36186,6.7462 -0.75711,6.7308 -0.76703,-0.011 -7.1321,-4.276 -14.1446,-9.4788 z m 100.25,-5.5267 v -15.0248 l 2.58886,-0.9843 c 3.37397,-1.2827 15.76609,-9.267 21.07944,-13.5815 2.29256,-1.8616 4.43006,-3.3847 4.75,-3.3847 0.85513,0 0.67986,26.3131 -0.18361,27.566 -0.40408,0.5863 -2.98469,2.5774 -5.73469,4.4246 -2.75,1.8472 -8.44095,6.205 -12.64655,9.684 -4.2056,3.479 -8.1431,6.3254 -8.75,6.3254 -0.75564,0 -1.10345,-4.7358 -1.10345,-15.0247 z m -148.25556,-28.1534 -9.74444,-7.0225 v -20.89969 c 0,-11.49483 0.35867,-20.89969 0.79705,-20.89969 0.43838,0 2.57588,1.82381 4.75,4.05292 2.17412,2.2291 6.02721,5.38543 8.56241,7.01406 l 4.60947,2.96115 0.7243,20.56884 c 0.39836,11.31281 0.5716,20.72151 0.38498,20.90811 -0.18663,0.1867 -4.72432,-2.8208 -10.08377,-6.6832 z m 200.60053,-6.48 c 0.36027,-7.51195 0.65503,-17.37893 0.65503,-21.9266 v -8.2685 l 5.25,-3.07161 c 2.8875,-1.68938 7.3875,-4.69052 10,-6.6692 l 4.75,-3.59759 -0.0153,20.84581 c -0.008,11.4652 -0.34592,21.29649 -0.75,21.84739 -0.40408,0.5509 -1.99529,1.6518 -3.53602,2.4465 -1.54074,0.7946 -5.55722,3.8314 -8.92552,6.7484 -3.3683,2.9169 -6.56496,5.3035 -7.1037,5.3035 -0.62351,0 -0.74144,-4.964 -0.32448,-13.6581 z m -106.5799,-19.09188 c -0.27646,-8.6625 -0.4492,-15.76862 -0.38386,-15.79139 1.2757,-0.44446 24.04446,1.26437 23.86879,1.79139 -0.1375,0.4125 -0.25,7.275 -0.25,15.25 v 14.49998 H 323.9845 312.61837 Z m -32.85501,13.41058 c -1.42447,-0.7568 -8.73697,-6.24601 -16.25,-12.19837 l -13.66006,-10.82247 v -5.68744 c 0,-3.1281 -0.91731,-14.85954 -2.03846,-26.06988 -1.12116,-11.21033 -2.91945,-29.83242 -3.99621,-41.38242 -1.07676,-11.55 -2.63942,-26.625 -3.47258,-33.5 -2.78161,-22.95301 -2.20606,-20.85337 -6.17029,-22.50974 -1.95311,-0.81605 -8.78716,-4.57774 -15.18678,-8.35929 -6.39962,-3.78156 -15.46068,-8.78383 -20.13568,-11.11615 -8.00789,-3.99509 -27.22958,-15.19452 -31.40143,-18.29591 -1.75942,-1.30796 -0.9005,-2.01545 11.5,-9.47252 7.37079,-4.43244 15.94358,-9.18133 19.05064,-10.55309 5.47675,-2.41795 5.73662,-2.44094 8.51207,-0.7531 7.94323,4.83057 22.46141,6.78296 37.48854,5.04143 14.07085,-1.63071 19.50731,-4.65575 34.383,-19.13196 6.69717,-6.51732 12.47503,-11.84967 12.83969,-11.84967 0.36465,0 0.54252,23.1751 0.39525,51.50022 l -0.26776,51.50023 32.25,-2.3e-4 32.25,-2.2e-4 0.0879,-10.25 c 0.0483,-5.6375 1.17461,-37.53587 0.51292,-58.75 -0.66169,-21.21413 -1.48066,-56.86599 -2.05301,-72.96032 -1.56601,-1.29967 -15.78942,-7.54625 -17.00699,-7.54719 -0.60593,25.06655 -2.01459,55.4638 -2.39737,80.69182 l -0.64345,47.22262 -10,-0.29031 c -5.5,-0.15967 -10.225,-0.51342 -10.5,-0.78611 -0.275,-0.2727 -0.77275,-23.52112 -1.10611,-51.66316 -0.88528,-28.45558 -0.88409,-60.4272 -2.29446,-86.92498 l -9.77126,-4.77836 c -5.37418,-2.6281 -10.34655,-4.97547 -11.04971,-5.21638 -0.8792,-0.30122 -0.12459,-2.12593 2.4163,-5.84282 2.03212,-2.97264 7.25467,-11.47981 11.60566,-18.90481 8.60252,-14.68025 8.834,-14.85401 15.89124,-11.9286 2.96151,1.22763 5.02768,0.79863 28.65429,-5.94949 39.92012,-11.40179 46.46994,-12.58969 69.15405,-12.54204 16.39108,0.0344 20.16715,0.34719 27.5,2.27777 15.55358,4.09491 40.1007,12.24006 40.53279,13.44948 0.23441,0.65608 0.54792,34.75909 0.6967,75.78447 l 0.27051,74.59158 -4.15735,1.71915 c -4.02101,1.66277 -21.92216,12.32425 -37.34265,22.24035 -12.06675,7.75949 -28.95436,17.18839 -31.9725,17.85129 -3.34148,0.73391 -3.17455,-0.0722 -6.00661,29.00604 -1.1249,11.55 -2.7111,26.4 -3.52487,33 -2.55201,20.69764 -5.5344,55.9749 -5.25953,62.2124 0.18273,4.14651 -0.19292,6.52971 -1.22537,7.77392 -2.08739,2.51555 -24.64824,17.51096 -27.86155,18.51861 -1.45726,0.45695 -5.30764,1.06755 -8.5564,1.35685 l -5.90683,0.5261 0.66364,-21.35302 c 0.36501,-11.74416 0.91906,-22.63143 1.23122,-24.19394 l 0.56757,-2.84092 h -32.63238 -32.63239 l 0.19407,24.5 0.19407,24.49998 -4.88607,0.2682 c -2.74509,0.1507 -6.02093,-0.3347 -7.47601,-1.1076 z m 96.87351,-90.03874 c -0.15596,-5.56701 -0.62107,-10.00934 -1.03357,-9.87184 -0.4125,0.1375 -23.925,0.25 -52.25,0.25 h -51.5 v 10.05123 10.05123 l 52.53357,-0.17939 52.53357,-0.1794 z m 58.31842,-143.66973 c 5.7857,-1.6824 14.52524,-6.06941 20.2454,-10.16265 1.70753,-1.22187 1.88084,-3.57312 2.28913,-31.05571 0.24295,-16.35356 0.14739,-29.73375 -0.21235,-29.73375 -0.35975,0 -4.76486,1.10704 -9.78913,2.46009 -5.02427,1.35305 -13.63504,3.16954 -19.13504,4.03666 -5.5,0.86712 -16.075,3.17179 -23.5,5.12149 -23.62178,6.20276 -30.86427,10.4898 -32.80234,13.62023 -1.93808,3.13042 -1.88962,3.0262 -2.38182,5.19228 -0.6914,3.16128 -0.33928,5.51036 1.79876,12 1.46214,4.43809 3.32933,9.41925 4.14931,11.06925 2.53483,5.10072 11.74205,16.05793 15.00757,17.37888 3.26552,1.32095 23.13407,3.00296 31.22852,2.44281 3.575,-0.2474 9.47089,-1.31371 13.10199,-2.36958 z m -26.27458,-10.94304 c -8.30665,-5.5021 -10.23568,-15.85181 -4.38438,-23.52326 8.20373,-10.75565 18.74448,-9.60953 24.90438,2.70791 3.51833,7.03534 3.05029,12.1448 -1.59742,17.43824 -6.18855,7.04838 -11.85359,8.05942 -18.92258,3.37711 z m 16.67259,-86.57835 v -8.43247 l -8.03086,8.7e-4 -8.03086,8.8e-4 -0.20336,8.75 -0.20335,8.75 8.23422,-0.31841 8.23421,-0.3184 z m -35.70552,7.71746 c 0.75486,-0.47887 1.54482,-3.80732 1.89503,-7.98468 l 0.60056,-7.1635 h -8.14503 -8.14504 v 8 8 l 6.25,-0.0153 c 3.4375,-0.008 6.83251,-0.38485 7.54448,-0.83651 z m 63.84509,-0.14818 h 3.36043 v -8 -8 h -8 -8 v 8.63592 8.63593 l 4.63957,-0.63593 c 2.55177,-0.34975 6.15177,-0.63592 8,-0.63592 z M 560.85064,976.1209 c -11.37154,-14.07069 -17.5531,-21.14549 -29.10717,-33.31318 -6.27406,-6.60727 -13.00404,-14.90364 -15.81831,-19.5 -2.69404,-4.4 -6.82618,-10.38476 -9.18253,-13.29946 -5.21456,-6.45019 -5.93788,-9.92446 -5.76707,-27.70054 0.12964,-13.49106 3.25235,-37.94177 5.4663,-42.80085 1.26486,-2.77608 4.22648,-4.15837 7.57969,-3.53771 4.44789,0.82329 31.95217,63.80582 42.72579,97.83856 5.35732,16.9232 11.82326,44.28584 11.39819,48.23501 -0.27362,2.54212 -0.79968,2.11508 -7.29489,-5.92183 z m -478.0449,-4.31318 c 0.34591,-1.375 1.76755,-7.45 3.15919,-13.5 5.056,-21.98029 9.95627,-36.93318 19.17126,-58.5 6.38551,-14.94469 21.21501,-45 22.20332,-45 0.49215,0 4.77755,1.85371 9.52311,4.11937 9.88882,4.72117 10.48802,5.62438 10.48802,15.80908 0,6.29518 -0.45016,7.71487 -6.08323,19.1849 -3.34577,6.81266 -11.10827,20.6281 -17.25,30.70098 -9.61431,15.76818 -12.40756,19.52186 -20.0917,27 -8.87458,8.63667 -11.20608,11.03994 -18.12772,18.68567 -3.16931,3.50086 -3.5427,3.68803 -2.99225,1.5 z m 337.98911,-23.25 c 0.26528,-1.2375 0.98211,-8.775 1.59297,-16.75 0.93262,-12.17572 3.55324,-37.0723 6.54648,-62.19329 0.37487,-3.14611 1.25093,-5.913 1.95813,-6.18437 0.70386,-0.2701 4.5824,-2.57833 8.61898,-5.1294 4.03658,-2.55107 14.08923,-8.84455 22.33923,-13.98552 l 15,-9.3472 0.29834,5.3676 c 0.16409,2.95218 -0.63814,14.23024 -1.78274,25.06235 -1.1446,10.83211 -2.11274,25.81814 -2.15144,33.30229 l -0.0703,13.60754 -7.29118,4.78358 c -4.01014,2.63097 -15.39799,11.29347 -25.30631,19.25 -9.90838,7.95653 -18.51453,14.46642 -19.12483,14.46642 -0.62698,0 -0.89985,-0.97868 -0.62733,-2.25 z m -210.44421,-9.99228 c -7.425,-6.02071 -18.5625,-14.78436 -24.75,-19.47479 -11.13033,-8.43734 -11.2501,-8.57197 -11.25967,-12.6555 -0.005,-2.27008 -0.42466,-11.55243 -0.93185,-20.62743 -0.5072,-9.075 -1.21777,-23.60903 -1.57906,-32.29785 l -0.65689,-15.79786 12.33874,8.09429 c 6.7863,4.45186 17.40123,10.65184 23.58873,13.77773 l 11.25,5.68345 v 4.81331 c 0,2.64733 0.65309,10.98138 1.45132,18.52012 1.59681,15.08084 4.84148,60.2854 4.35472,60.66967 -0.16832,0.13288 -6.38104,-4.68443 -13.80604,-10.70514 z m -93.60399,-190.25979 -0.10399,-61.49793 h 10.85399 10.85399 l 0.18041,17.75 c 0.18694,18.39245 0.17064,44.70643 -0.0514,83 l -0.12901,22.25 -10.75,-0.002 -10.75,-0.002 -0.10399,-61.49792 z m 391.56585,60.25207 c -0.021,-0.1375 -0.27324,-27.55893 -0.56059,-60.93651 l -0.52244,-60.68651 11.08198,-0.31349 11.08197,-0.31349 -0.10376,61.25 -0.10376,61.25 h -10.41763 c -5.7297,0 -10.43479,-0.1125 -10.45577,-0.25 z m -433.14633,-35.75 c -0.17354,-9.075 -0.16826,-27.65286 0.0117,-41.28413 l 0.32727,-24.78413 10.17273,0.28413 10.17277,0.28413 v 40.97149 40.97149 l -10.18447,0.0285 -10.18448,0.0285 -0.31552,-16.5 z m 475.40149,-24.88098 c 0.15564,-21.97481 0.50798,-40.1704 0.78298,-40.43465 0.275,-0.26426 4.67337,-0.2383 9.77415,0.0577 l 9.27416,0.53813 -0.27416,39.60991 -0.27415,39.60989 -9.78298,0.28661 -9.78297,0.28661 z M 160.11883,720.65773 c -0.14751,-27.69251 -0.0432,-51.91598 0.23181,-53.82994 0.408,-2.83962 -0.49087,-3.12272 5.94893,-8.13672 6.43979,-5.014 10.28408,-7.2996 19.05107,-9.34847 28.74607,-6.59943 30.39541,-6.81924 52,-6.92989 19.82424,-0.10153 34,1.33884 34,3.45466 0,0.45826 -1.52356,3.44481 -3.38569,6.63677 -1.86213,3.19197 -5.25194,10.30358 -7.53292,15.80358 -2.28098,5.5 -4.78076,11.42187 -5.55507,13.1597 l -1.40784,3.15971 -7.30924,-2.28556 c -4.02008,-1.25706 -9.33424,-3.12893 -11.80924,-4.15971 -6.55908,-2.7317 -38.59184,-2.53321 -47.5,0.29432 l -6,1.90447 -0.62579,6.96353 c -0.34418,3.82995 -0.68168,19.82952 -0.75,35.55461 -0.0947,21.78698 0.20573,29.68738 1.26221,33.1978 1.72496,5.73161 1.26584,6.22854 -9.88642,10.70061 -4.4,1.76441 -8.55432,3.43358 -9.23181,3.70928 -0.964,0.39228 -1.29012,-10.44566 -1.5,-49.84875 z M 84.26394,662.47493 C 42.02222,639.99108 8.45571,613.29794 -15.93468,582.79385 c -9.08491,-11.36215 -33.71468,-48.80664 -33.71468,-51.25624 0,-0.26085 1.82245,-0.76569 4.04988,-1.12188 6.48424,-1.03687 36.13623,-11.25038 49.69582,-17.11752 19.47178,-8.42531 36.5619,-18.84532 71.2543,-43.44442 38.47041,-27.27796 51.05095,-35.87614 63.5,-43.39915 15.89613,-9.6061 55.38393,-29.19128 69,-34.22267 10.44877,-3.86101 28.78401,-9.69275 34.0929,-10.84365 l 3.09291,-0.6705 -0.0154,23.79495 c -0.0166,25.73022 1.32795,39.04823 5.86709,58.11278 4.6585,19.56584 13.93093,39.24913 25.32928,53.76841 9.52862,12.1376 25.51545,22.19282 40.06902,25.20218 6.83199,1.4127 8.80353,1.46046 14.24674,0.34513 28.37644,-5.81442 55.11463,-37.91115 65.31228,-78.40139 4.94738,-19.64379 5.61877,-25.63056 6.20919,-55.36666 l 0.53876,-27.13451 12.62861,3.28608 c 13.28742,3.45751 17.09867,4.82033 34.11708,12.19957 35.702,15.48048 66.72483,33.83388 109.02077,64.49771 49.89964,36.17637 60.77257,42.74499 89.49077,54.06363 12.94534,5.10212 39.41824,13.89759 45.68583,15.17886 l 2.68583,0.54905 -9.25058,15.26828 c -9.72367,16.04911 -19.14197,29.65552 -28.41025,41.04365 -7.14019,8.77329 -29.59018,30.29778 -38.67101,37.07679 -19.89491,14.85192 -24.95987,18.35337 -35.53982,24.56896 -18.30741,10.75538 -30.05481,16.75523 -36.32415,18.55214 -3.20329,0.91813 -6.08872,1.40475 -6.41208,1.08139 -0.32336,-0.32336 -0.91777,-4.30249 -1.32091,-8.84251 -0.40313,-4.54003 -1.03714,-9.60459 -1.4089,-11.25459 -0.66622,-2.95687 -0.52756,-3.0778 9.64505,-8.41206 5.67655,-2.97664 13.47099,-7.43518 17.32099,-9.90786 3.85,-2.47269 9.25,-5.82692 12,-7.45384 12.99822,-7.68984 35.02004,-26.05139 45.92423,-38.29112 7.82439,-8.78271 30.11646,-37.39481 29.42002,-37.76091 -0.18934,-0.0995 -4.16925,-1.45282 -8.84425,-3.00731 -13.07896,-4.3489 -39.65708,-17.81648 -53.25359,-26.9845 -15.59675,-10.51676 -37.67337,-26.03204 -49.24641,-34.61002 -34.23434,-25.37461 -59.67485,-40.34872 -94,-55.32775 -21.33095,-9.30854 -19.08289,-9.47671 -19.85447,1.48528 -1.43525,20.39095 -7.67353,49.97935 -14.18441,67.27715 -6.05245,16.07988 -15.65774,31.59621 -26.82786,43.33757 -4.95048,5.20364 -21.08164,16.89322 -28.32579,20.52651 -14.49053,7.26771 -35,10.26093 -49.80747,7.26909 -16.86399,-3.40737 -39.95775,-17.77814 -52.57957,-32.71917 -20.62611,-24.41609 -33.67525,-59.6323 -37.02511,-99.92106 -0.61736,-7.425 -1.27761,-14.05043 -1.46722,-14.72318 -0.45546,-1.61599 -9.18575,2.08215 -35.9281,15.2191 -24.06862,11.8235 -37.19361,19.42335 -53.5,30.97844 -6.325,4.48204 -21.625,15.33211 -34,24.11126 -40.31458,28.60021 -65.484,43.65269 -85.9198,51.38404 -7.31302,2.76669 -13.8962,5.03034 -14.62928,5.03034 -2.62047,0 -2.30681,1.74098 1.2757,7.0809 4.96441,7.39971 24.03435,29.53679 34.87041,40.47886 15.30498,15.45471 41.24181,33.32605 67.38875,46.43311 6.6546,3.33585 12.30142,6.61462 12.5485,7.28615 0.24708,0.67154 0.11545,4.7791 -0.29252,9.12792 -0.56405,6.01256 -1.11463,7.96112 -2.29809,8.13309 -0.85599,0.12439 -3.52801,1.17876 -5.93783,2.34306 -2.40983,1.1643 -4.63448,2.07965 -4.94367,2.03412 -0.30919,-0.0455 -5.77618,-2.85804 -12.14887,-6.25 z m 420.5867,-17.41234 c -12.35854,-8.66747 -21.79185,-12.81543 -41.29136,-18.15642 -27.44696,-7.51783 -34.27989,-8.48417 -55.07989,-7.78965 -20.39026,0.68085 -24.27963,1.42785 -49.75907,9.55693 -10.37832,3.31114 -22.27743,6.9921 -26.44245,8.17991 l -7.57278,2.15964 -18.55095,-6.05319 c -45.2968,-14.7804 -61.94793,-16.62293 -94.78231,-10.48812 -34.28875,6.40655 -62.95336,15.70776 -73.72246,23.92175 l -3.29873,2.51606 v -18.00409 -18.0041 l 4.75,-2.14282 c 11.87403,-5.3566 29.73252,-12.12856 38.33332,-14.53602 7.70368,-2.15635 12.23631,-2.72426 24.91668,-3.12188 14.03207,-0.44002 16.73117,-0.2326 28.5,2.19016 7.15,1.47191 25.88544,6.90093 41.63431,12.06449 15.74888,5.16355 33.61541,10.36267 39.70341,11.55358 l 11.06909,2.1653 11.91084,-2.64445 c 6.55096,-1.45444 22.64509,-6.03513 35.76472,-10.1793 31.8873,-10.07241 38.81898,-11.96082 52.79716,-14.38361 19.34813,-3.35355 28.32707,-2.59501 53.27555,4.50073 11.67009,3.31915 18.29576,5.86763 26.00271,10.00159 l 10.34221,5.5475 v 18.44557 c 0,10.14506 -0.1125,18.41532 -0.25,18.37834 -0.1375,-0.037 -3.85,-2.59202 -8.25,-5.6779 z M 112.08512,542.97089 c -6.72862,-4.43684 -7.53855,-9.559 -2.33438,-14.76317 2.73989,-2.73989 4.18112,-3.4 7.42327,-3.4 4.49566,0 9.67496,3.55004 11.25944,7.71754 1.21201,3.18784 -1.16839,7.75421 -5.38126,10.32294 -3.99613,2.43659 -7.40022,2.47467 -10.96707,0.12269 z m 411.02819,-0.72856 c -1.50559,-0.81692 -3.42964,-2.8239 -4.27568,-4.45996 -1.37507,-2.6591 -1.37801,-3.28452 -0.0277,-5.89581 3.8594,-7.46326 13.01754,-9.44823 18.46385,-4.00192 2.20984,2.20985 3.07692,4.01987 3.07692,6.42308 0,5.07014 -4.8495,9.51251 -10.32692,9.45996 -2.2952,-0.022 -5.40492,-0.70843 -6.91051,-1.52535 z M 479.60064,520.8235 c -3.4375,-1.59084 -6.25,-3.42702 -6.25,-4.0804 0,-1.87877 5.96744,-13.20298 8.26561,-15.68538 3.19614,-3.45236 9.61555,-2.56999 14.48439,1.99093 2.65617,2.48818 2.85736,5.65122 0.63982,10.05873 -1.88521,3.74695 -8.32781,10.72085 -9.84277,10.65445 -0.57588,-0.0252 -3.85955,-1.34749 -7.29705,-2.93833 z m -325.6252,-3.55612 c -1.99897,-2.61797 -4.17127,-6.55159 -4.82735,-8.74137 -1.13175,-3.77746 -1.05395,-4.10091 1.5188,-6.3139 3.58749,-3.08582 10.32236,-5.11068 12.52683,-3.76622 1.65404,1.00877 7.36156,10.98273 8.56369,14.96516 0.508,1.68291 -0.18826,2.64806 -3.4834,4.82868 -2.26506,1.49895 -5.5911,2.96437 -7.39119,3.25648 -2.97609,0.48295 -3.60247,0.0995 -6.90738,-4.22883 z m 161.7847,-27.94382 c -28.14875,-6.12455 -41.35585,-22.80671 -45.86846,-57.93735 -0.84224,-6.55683 -1.42103,-11.99073 -1.28619,-12.07533 0.13483,-0.0846 5.19515,-0.93977 11.24515,-1.90037 18.75143,-2.97731 41.46035,-4.01976 60.26406,-2.7664 13.5308,0.90189 35.76455,3.70322 37.00668,4.66264 0.14891,0.11501 -0.14873,2.41228 -0.66142,5.10504 -0.51268,2.69276 -1.46094,8.27093 -2.10724,12.39593 -1.73002,11.0419 -2.79194,14.35695 -8.51499,26.58154 -7.74447,16.54243 -14.3942,22.77 -27.6505,25.89509 -7.63883,1.8008 -14.27737,1.81241 -22.42709,0.0392 z"
         id="path9343-6"
         sodipodi:nodetypes="sssssscsscsscsssssssscssssssscssssssssssssccccccccssccscccsscssssscssssssssscsssscssssscssccsssssssssscccssscssssssssssssssscccszccccssccsssssssssscssssssssscsscccccssssscccccsssssssszcsszssssssscccccccccssccccccssscccccccssssssssssssssssssssssssssssscssscsssssscsscsscssssccccsscccccsscccccssssccccccccsssscccccssszcssssscssscssssssssssssssscssssssscssssscsssssssssssssssssssssssssssssssssssssssssssscssscccsssssscssssscssssssssssssssssssssssssssssssssssssssssssss"
         inkscape:label="internal-outline" />
    </g>
  </g>
</svg>
