<?xml version="1.0" encoding="utf-8" ?>
<svg baseProfile="full" class="WaveDrom" height="85" version="1.1" viewBox="0,0,809,85" width="809" xmlns="http://www.w3.org/2000/svg" xmlns:ev="http://www.w3.org/2001/xml-events" xmlns:xlink="http://www.w3.org/1999/xlink"><defs /><g font-family="sans-serif" font-size="14" font-weight="normal" text-anchor="middle" transform="translate(4.5,0.5)"><g stroke="black" stroke-linecap="round" stroke-width="1" transform="translate(0,20.0)"><line x1="0" x2="800" y1="0" y2="0" /><line x1="0" x2="0" y1="0" y2="40.0" /><line x1="0" x2="800" y1="40.0" y2="40.0" /><line x1="800.0" x2="800.0" y1="0" y2="40.0" /><line x1="775.0" x2="775.0" y1="0" y2="5.0" /><line x1="775.0" x2="775.0" y1="35.0" y2="40.0" /><line x1="750.0" x2="750.0" y1="0" y2="5.0" /><line x1="750.0" x2="750.0" y1="35.0" y2="40.0" /><line x1="725.0" x2="725.0" y1="0" y2="5.0" /><line x1="725.0" x2="725.0" y1="35.0" y2="40.0" /><line x1="700.0" x2="700.0" y1="0" y2="5.0" /><line x1="700.0" x2="700.0" y1="35.0" y2="40.0" /><line x1="675.0" x2="675.0" y1="0" y2="5.0" /><line x1="675.0" x2="675.0" y1="35.0" y2="40.0" /><line x1="650.0" x2="650.0" y1="0" y2="5.0" /><line x1="650.0" x2="650.0" y1="35.0" y2="40.0" /><line x1="625.0" x2="625.0" y1="0" y2="5.0" /><line x1="625.0" x2="625.0" y1="35.0" y2="40.0" /><line x1="600.0" x2="600.0" y1="0" y2="40.0" /><line x1="575.0" x2="575.0" y1="0" y2="5.0" /><line x1="575.0" x2="575.0" y1="35.0" y2="40.0" /><line x1="550.0" x2="550.0" y1="0" y2="5.0" /><line x1="550.0" x2="550.0" y1="35.0" y2="40.0" /><line x1="525.0" x2="525.0" y1="0" y2="5.0" /><line x1="525.0" x2="525.0" y1="35.0" y2="40.0" /><line x1="500.0" x2="500.0" y1="0" y2="5.0" /><line x1="500.0" x2="500.0" y1="35.0" y2="40.0" /><line x1="475.0" x2="475.0" y1="0" y2="5.0" /><line x1="475.0" x2="475.0" y1="35.0" y2="40.0" /><line x1="450.0" x2="450.0" y1="0" y2="5.0" /><line x1="450.0" x2="450.0" y1="35.0" y2="40.0" /><line x1="425.0" x2="425.0" y1="0" y2="5.0" /><line x1="425.0" x2="425.0" y1="35.0" y2="40.0" /><line x1="400.0" x2="400.0" y1="0" y2="5.0" /><line x1="400.0" x2="400.0" y1="35.0" y2="40.0" /><line x1="375.0" x2="375.0" y1="0" y2="5.0" /><line x1="375.0" x2="375.0" y1="35.0" y2="40.0" /><line x1="350.0" x2="350.0" y1="0" y2="5.0" /><line x1="350.0" x2="350.0" y1="35.0" y2="40.0" /><line x1="325.0" x2="325.0" y1="0" y2="5.0" /><line x1="325.0" x2="325.0" y1="35.0" y2="40.0" /><line x1="300.0" x2="300.0" y1="0" y2="5.0" /><line x1="300.0" x2="300.0" y1="35.0" y2="40.0" /><line x1="275.0" x2="275.0" y1="0" y2="5.0" /><line x1="275.0" x2="275.0" y1="35.0" y2="40.0" /><line x1="250.0" x2="250.0" y1="0" y2="5.0" /><line x1="250.0" x2="250.0" y1="35.0" y2="40.0" /><line x1="225.0" x2="225.0" y1="0" y2="5.0" /><line x1="225.0" x2="225.0" y1="35.0" y2="40.0" /><line x1="200.0" x2="200.0" y1="0" y2="5.0" /><line x1="200.0" x2="200.0" y1="35.0" y2="40.0" /><line x1="175.0" x2="175.0" y1="0" y2="5.0" /><line x1="175.0" x2="175.0" y1="35.0" y2="40.0" /><line x1="150.0" x2="150.0" y1="0" y2="5.0" /><line x1="150.0" x2="150.0" y1="35.0" y2="40.0" /><line x1="125.0" x2="125.0" y1="0" y2="5.0" /><line x1="125.0" x2="125.0" y1="35.0" y2="40.0" /><line x1="100.0" x2="100.0" y1="0" y2="5.0" /><line x1="100.0" x2="100.0" y1="35.0" y2="40.0" /><line x1="75.0" x2="75.0" y1="0" y2="5.0" /><line x1="75.0" x2="75.0" y1="35.0" y2="40.0" /><line x1="50.0" x2="50.0" y1="0" y2="5.0" /><line x1="50.0" x2="50.0" y1="35.0" y2="40.0" /><line x1="25.0" x2="25.0" y1="0" y2="40.0" /></g><g text-anchor="middle"><g><g transform="translate(0,20.0)"><rect height="40.0" style="fill-opacity:0.1" width="575.0" x="25.0" y="0" /></g><g transform="translate(12.5,16.0)"><text x="775.0"><tspan>0</tspan></text><text x="600.0"><tspan>7</tspan></text><text x="575.0"><tspan>8</tspan></text><text x="25.0"><tspan>30</tspan></text><text x="0.0"><tspan>31</tspan></text></g><g transform="translate(12.5,44.0)"><text x="687.5"><tspan>DIV</tspan></text><text><tspan>EN</tspan></text></g><g transform="translate(12.5,80)"><text x="687.5"><tspan>rw</tspan></text><text><tspan>rw</tspan></text></g></g></g></g></svg>